  0
SECTION
  2
BLOCKS
  0
ENDSEC
  0
SECTION
  2
ENTITIES
  0
LINE
  8
0
 10
247.5
 20
247.5
 11
247.5
 21
261
  0
LINE
  8
0
 10
247.5
 20
261
 11
246.5
 21
261
  0
LINE
  8
0
 10
246.5
 20
261
 11
246.5
 21
247.5
  0
LINE
  8
0
 10
246.5
 20
247.5
 11
218.5
 21
247.5
  0
LINE
  8
0
 10
218.5
 20
247.5
 11
218.5
 21
261
  0
LINE
  8
0
 10
218.5
 20
261
 11
217.5
 21
261
  0
LINE
  8
0
 10
217.5
 20
261
 11
217.5
 21
247.5
  0
LINE
  8
0
 10
217.5
 20
247.5
 11
189.5
 21
247.5
  0
LINE
  8
0
 10
189.5
 20
247.5
 11
189.5
 21
261
  0
LINE
  8
0
 10
189.5
 20
261
 11
188.5
 21
261
  0
LINE
  8
0
 10
188.5
 20
261
 11
188.5
 21
247.5
  0
LINE
  8
0
 10
188.5
 20
247.5
 11
160.5
 21
247.5
  0
LINE
  8
0
 10
160.5
 20
247.5
 11
160.5
 21
261
  0
LINE
  8
0
 10
160.5
 20
261
 11
159.5
 21
261
  0
LINE
  8
0
 10
159.5
 20
261
 11
159.5
 21
247.5
  0
LINE
  8
0
 10
159.5
 20
247.5
 11
131.5
 21
247.5
  0
LINE
  8
0
 10
131.5
 20
247.5
 11
131.5
 21
261
  0
LINE
  8
0
 10
131.5
 20
261
 11
130.5
 21
261
  0
LINE
  8
0
 10
130.5
 20
261
 11
130.5
 21
247.5
  0
LINE
  8
0
 10
130.5
 20
247.5
 11
102.5
 21
247.5
  0
LINE
  8
0
 10
102.5
 20
247.5
 11
102.5
 21
261
  0
LINE
  8
0
 10
102.5
 20
261
 11
101.5
 21
261
  0
LINE
  8
0
 10
101.5
 20
261
 11
101.5
 21
247.5
  0
LINE
  8
0
 10
101.5
 20
247.5
 11
73.5
 21
247.5
  0
LINE
  8
0
 10
73.5
 20
247.5
 11
73.5
 21
261
  0
LINE
  8
0
 10
73.5
 20
261
 11
72.5
 21
261
  0
LINE
  8
0
 10
72.5
 20
261
 11
72.5
 21
247.5
  0
LINE
  8
0
 10
72.5
 20
247.5
 11
44.5
 21
247.5
  0
LINE
  8
0
 10
44.5
 20
247.5
 11
44.5
 21
261
  0
LINE
  8
0
 10
44.5
 20
261
 11
43.5
 21
261
  0
LINE
  8
0
 10
43.5
 20
261
 11
43.5
 21
247.5
  0
LINE
  8
0
 10
43.5
 20
247.5
 11
15.5
 21
247.5
  0
LINE
  8
0
 10
15.5
 20
247.5
 11
15.5
 21
261
  0
LINE
  8
0
 10
15.5
 20
261
 11
14.5
 21
261
  0
LINE
  8
0
 10
14.5
 20
261
 11
14.5
 21
247.5
  0
LINE
  8
0
 10
14.5
 20
247.5
 11
1
 21
247.5
  0
LINE
  8
0
 10
1
 20
247.5
 11
1
 21
261
  0
LINE
  8
0
 10
1
 20
261
 11
0
 21
261
  0
LINE
  8
0
 10
0
 20
261
 11
0
 21
0
  0
LINE
  8
0
 10
0
 20
0
 11
378
 21
0
  0
LINE
  8
0
 10
378
 20
0
 11
378
 21
261
  0
LINE
  8
0
 10
378
 20
261
 11
377
 21
261
  0
LINE
  8
0
 10
377
 20
261
 11
377
 21
247.5
  0
LINE
  8
0
 10
377
 20
247.5
 11
363.5
 21
247.5
  0
LINE
  8
0
 10
363.5
 20
247.5
 11
363.5
 21
261
  0
LINE
  8
0
 10
363.5
 20
261
 11
377
 21
261
  0
LINE
  8
0
 10
377
 20
261
 11
377
 21
262
  0
LINE
  8
0
 10
377
 20
262
 11
0
 21
262
  0
LINE
  8
0
 10
0
 20
262
 11
0
 21
261
  0
LINE
  8
0
 10
0
 20
261
 11
275.5
 21
261
  0
LINE
  8
0
 10
275.5
 20
261
 11
275.5
 21
247.5
  0
LINE
  8
0
 10
275.5
 20
247.5
 11
247.5
 21
247.5
  0
LINE
  8
0
 10
1
 20
218.5
 11
1
 21
246.5
  0
LINE
  8
0
 10
1
 20
246.5
 11
14.5
 21
246.5
  0
LINE
  8
0
 10
14.5
 20
246.5
 11
14.5
 21
218.5
  0
LINE
  8
0
 10
14.5
 20
218.5
 11
1
 21
218.5
  0
LINE
  8
0
 10
7.14577
 20
227.134
 11
7.69089
 21
227.671
  0
LINE
  8
0
 10
7.69089
 20
227.671
 11
7.892
 21
228.458
  0
LINE
  8
0
 10
7.892
 20
228.458
 11
7.79236
 21
229.005
  0
LINE
  8
0
 10
7.79236
 20
229.005
 11
7.50162
 21
229.438
  0
LINE
  8
0
 10
7.50162
 20
229.438
 11
7.032
 21
229.743
  0
LINE
  8
0
 10
7.032
 20
229.743
 11
7.37169
 21
229.979
  0
LINE
  8
0
 10
7.37169
 20
229.979
 11
7.57095
 21
230.312
  0
LINE
  8
0
 10
7.57095
 20
230.312
 11
7.63599
 21
230.753
  0
LINE
  8
0
 10
7.63599
 20
230.753
 11
7.46565
 21
231.427
  0
LINE
  8
0
 10
7.46565
 20
231.427
 11
7.00533
 21
231.886
  0
LINE
  8
0
 10
7.00533
 20
231.886
 11
6.33099
 21
232.056
  0
LINE
  8
0
 10
6.33099
 20
232.056
 11
5.6557
 21
231.884
  0
LINE
  8
0
 10
5.6557
 20
231.884
 11
5.18729
 21
231.421
  0
LINE
  8
0
 10
5.18729
 20
231.421
 11
5.01199
 21
230.753
  0
LINE
  8
0
 10
5.01199
 20
230.753
 11
5.043
 21
230.473
  0
LINE
  8
0
 10
5.043
 20
230.473
 11
5.13199
 21
230.218
  0
LINE
  8
0
 10
5.13199
 20
230.218
 11
5.27299
 21
230.002
  0
LINE
  8
0
 10
5.27299
 20
230.002
 11
5.35721
 21
229.912
  0
LINE
  8
0
 10
5.35721
 20
229.912
 11
5.45944
 21
229.833
  0
LINE
  8
0
 10
5.45944
 20
229.833
 11
5.603
 21
229.743
  0
LINE
  8
0
 10
5.603
 20
229.743
 11
5.1394
 21
229.421
  0
LINE
  8
0
 10
5.1394
 20
229.421
 11
4.85359
 21
228.98
  0
LINE
  8
0
 10
4.85359
 20
228.98
 11
4.756
 21
228.438
  0
LINE
  8
0
 10
4.756
 20
228.438
 11
4.96614
 21
227.668
  0
LINE
  8
0
 10
4.96614
 20
227.668
 11
5.52917
 21
227.135
  0
LINE
  8
0
 10
5.52917
 20
227.135
 11
6.34399
 21
226.936
  0
LINE
  8
0
 10
6.34399
 20
226.936
 11
7.14577
 21
227.134
  0
LINE
  8
0
 10
5.9234
 20
230.055
 11
5.63191
 21
230.355
  0
LINE
  8
0
 10
5.63191
 20
230.355
 11
5.52399
 21
230.793
  0
LINE
  8
0
 10
5.52399
 20
230.793
 11
5.62784
 21
231.216
  0
LINE
  8
0
 10
5.62784
 20
231.216
 11
5.90947
 21
231.503
  0
LINE
  8
0
 10
5.90947
 20
231.503
 11
6.32399
 21
231.608
  0
LINE
  8
0
 10
6.32399
 20
231.608
 11
6.73851
 21
231.501
  0
LINE
  8
0
 10
6.73851
 20
231.501
 11
7.02014
 21
231.209
  0
LINE
  8
0
 10
7.02014
 20
231.209
 11
7.12399
 21
230.779
  0
LINE
  8
0
 10
7.12399
 20
230.779
 11
7.0211
 21
230.351
  0
LINE
  8
0
 10
7.0211
 20
230.351
 11
6.74622
 21
230.055
  0
LINE
  8
0
 10
6.74622
 20
230.055
 11
6.34999
 21
229.944
  0
LINE
  8
0
 10
6.34999
 20
229.944
 11
5.9234
 21
230.055
  0
LINE
  8
0
 10
5.77985
 20
227.521
 11
5.40514
 21
227.896
  0
LINE
  8
0
 10
5.40514
 20
227.896
 11
5.26799
 21
228.45
  0
LINE
  8
0
 10
5.26799
 20
228.45
 11
5.40514
 21
228.993
  0
LINE
  8
0
 10
5.40514
 20
228.993
 11
5.7785
 21
229.361
  0
LINE
  8
0
 10
5.7785
 20
229.361
 11
6.33099
 21
229.496
  0
LINE
  8
0
 10
6.33099
 20
229.496
 11
6.87407
 21
229.361
  0
LINE
  8
0
 10
6.87407
 20
229.361
 11
7.24359
 21
228.993
  0
LINE
  8
0
 10
7.24359
 20
228.993
 11
7.37999
 21
228.45
  0
LINE
  8
0
 10
7.37999
 20
228.45
 11
7.24515
 21
227.899
  0
LINE
  8
0
 10
7.24515
 20
227.899
 11
6.87851
 21
227.523
  0
LINE
  8
0
 10
6.87851
 20
227.523
 11
6.33699
 21
227.384
  0
LINE
  8
0
 10
6.33699
 20
227.384
 11
5.77985
 21
227.521
  0
LINE
  8
0
 10
15.5
 20
218.5
 11
15.5
 21
246.5
  0
LINE
  8
0
 10
15.5
 20
246.5
 11
43.5
 21
246.5
  0
LINE
  8
0
 10
43.5
 20
246.5
 11
43.5
 21
218.5
  0
LINE
  8
0
 10
43.5
 20
218.5
 11
15.5
 21
218.5
  0
LINE
  8
0
 10
44.5
 20
218.5
 11
44.5
 21
246.5
  0
LINE
  8
0
 10
44.5
 20
246.5
 11
72.5
 21
246.5
  0
LINE
  8
0
 10
72.5
 20
246.5
 11
72.5
 21
218.5
  0
LINE
  8
0
 10
72.5
 20
218.5
 11
44.5
 21
218.5
  0
LINE
  8
0
 10
73.5
 20
218.5
 11
73.5
 21
246.5
  0
LINE
  8
0
 10
73.5
 20
246.5
 11
101.5
 21
246.5
  0
LINE
  8
0
 10
101.5
 20
246.5
 11
101.5
 21
218.5
  0
LINE
  8
0
 10
101.5
 20
218.5
 11
73.5
 21
218.5
  0
LINE
  8
0
 10
102.5
 20
218.5
 11
102.5
 21
246.5
  0
LINE
  8
0
 10
102.5
 20
246.5
 11
130.5
 21
246.5
  0
LINE
  8
0
 10
130.5
 20
246.5
 11
130.5
 21
218.5
  0
LINE
  8
0
 10
130.5
 20
218.5
 11
102.5
 21
218.5
  0
LINE
  8
0
 10
131.5
 20
218.5
 11
131.5
 21
246.5
  0
LINE
  8
0
 10
131.5
 20
246.5
 11
159.5
 21
246.5
  0
LINE
  8
0
 10
159.5
 20
246.5
 11
159.5
 21
218.5
  0
LINE
  8
0
 10
159.5
 20
218.5
 11
131.5
 21
218.5
  0
LINE
  8
0
 10
160.5
 20
218.5
 11
160.5
 21
246.5
  0
LINE
  8
0
 10
160.5
 20
246.5
 11
188.5
 21
246.5
  0
LINE
  8
0
 10
188.5
 20
246.5
 11
188.5
 21
218.5
  0
LINE
  8
0
 10
188.5
 20
218.5
 11
160.5
 21
218.5
  0
LINE
  8
0
 10
189.5
 20
218.5
 11
189.5
 21
246.5
  0
LINE
  8
0
 10
189.5
 20
246.5
 11
217.5
 21
246.5
  0
LINE
  8
0
 10
217.5
 20
246.5
 11
217.5
 21
218.5
  0
LINE
  8
0
 10
217.5
 20
218.5
 11
189.5
 21
218.5
  0
LINE
  8
0
 10
218.5
 20
218.5
 11
218.5
 21
246.5
  0
LINE
  8
0
 10
218.5
 20
246.5
 11
246.5
 21
246.5
  0
LINE
  8
0
 10
246.5
 20
246.5
 11
246.5
 21
218.5
  0
LINE
  8
0
 10
246.5
 20
218.5
 11
218.5
 21
218.5
  0
LINE
  8
0
 10
247.5
 20
218.5
 11
247.5
 21
246.5
  0
LINE
  8
0
 10
247.5
 20
246.5
 11
275.5
 21
246.5
  0
LINE
  8
0
 10
275.5
 20
246.5
 11
275.5
 21
218.5
  0
LINE
  8
0
 10
275.5
 20
218.5
 11
247.5
 21
218.5
  0
LINE
  8
0
 10
276.5
 20
218.5
 11
276.5
 21
246.5
  0
LINE
  8
0
 10
276.5
 20
246.5
 11
304.5
 21
246.5
  0
LINE
  8
0
 10
304.5
 20
246.5
 11
304.5
 21
218.5
  0
LINE
  8
0
 10
304.5
 20
218.5
 11
276.5
 21
218.5
  0
LINE
  8
0
 10
305.5
 20
218.5
 11
305.5
 21
246.5
  0
LINE
  8
0
 10
305.5
 20
246.5
 11
333.5
 21
246.5
  0
LINE
  8
0
 10
333.5
 20
246.5
 11
333.5
 21
218.5
  0
LINE
  8
0
 10
333.5
 20
218.5
 11
305.5
 21
218.5
  0
LINE
  8
0
 10
334.5
 20
218.5
 11
334.5
 21
246.5
  0
LINE
  8
0
 10
334.5
 20
246.5
 11
362.5
 21
246.5
  0
LINE
  8
0
 10
362.5
 20
246.5
 11
362.5
 21
218.5
  0
LINE
  8
0
 10
362.5
 20
218.5
 11
334.5
 21
218.5
  0
LINE
  8
0
 10
363.5
 20
218.5
 11
363.5
 21
246.5
  0
LINE
  8
0
 10
363.5
 20
246.5
 11
377
 21
246.5
  0
LINE
  8
0
 10
377
 20
246.5
 11
377
 21
218.5
  0
LINE
  8
0
 10
377
 20
218.5
 11
363.5
 21
218.5
  0
LINE
  8
0
 10
373.344
 20
232.116
 11
373.813
 21
232.579
  0
LINE
  8
0
 10
373.813
 20
232.579
 11
373.988
 21
233.247
  0
LINE
  8
0
 10
373.988
 20
233.247
 11
373.957
 21
233.527
  0
LINE
  8
0
 10
373.957
 20
233.527
 11
373.868
 21
233.782
  0
LINE
  8
0
 10
373.868
 20
233.782
 11
373.727
 21
233.998
  0
LINE
  8
0
 10
373.727
 20
233.998
 11
373.643
 21
234.088
  0
LINE
  8
0
 10
373.643
 20
234.088
 11
373.541
 21
234.167
  0
LINE
  8
0
 10
373.541
 20
234.167
 11
373.397
 21
234.257
  0
LINE
  8
0
 10
373.397
 20
234.257
 11
373.861
 21
234.579
  0
LINE
  8
0
 10
373.861
 20
234.579
 11
374.146
 21
235.02
  0
LINE
  8
0
 10
374.146
 20
235.02
 11
374.244
 21
235.562
  0
LINE
  8
0
 10
374.244
 20
235.562
 11
374.034
 21
236.332
  0
LINE
  8
0
 10
374.034
 20
236.332
 11
373.471
 21
236.865
  0
LINE
  8
0
 10
373.471
 20
236.865
 11
372.656
 21
237.064
  0
LINE
  8
0
 10
372.656
 20
237.064
 11
371.854
 21
236.866
  0
LINE
  8
0
 10
371.854
 20
236.866
 11
371.309
 21
236.329
  0
LINE
  8
0
 10
371.309
 20
236.329
 11
371.108
 21
235.542
  0
LINE
  8
0
 10
371.108
 20
235.542
 11
371.208
 21
234.995
  0
LINE
  8
0
 10
371.208
 20
234.995
 11
371.498
 21
234.562
  0
LINE
  8
0
 10
371.498
 20
234.562
 11
371.968
 21
234.257
  0
LINE
  8
0
 10
371.968
 20
234.257
 11
371.628
 21
234.021
  0
LINE
  8
0
 10
371.628
 20
234.021
 11
371.429
 21
233.688
  0
LINE
  8
0
 10
371.429
 20
233.688
 11
371.364
 21
233.247
  0
LINE
  8
0
 10
371.364
 20
233.247
 11
371.534
 21
232.573
  0
LINE
  8
0
 10
371.534
 20
232.573
 11
371.995
 21
232.114
  0
LINE
  8
0
 10
371.995
 20
232.114
 11
372.669
 21
231.944
  0
LINE
  8
0
 10
372.669
 20
231.944
 11
373.344
 21
232.116
  0
LINE
  8
0
 10
372.126
 20
234.639
 11
371.756
 21
235.007
  0
LINE
  8
0
 10
371.756
 20
235.007
 11
371.62
 21
235.55
  0
LINE
  8
0
 10
371.62
 20
235.55
 11
371.755
 21
236.101
  0
LINE
  8
0
 10
371.755
 20
236.101
 11
372.121
 21
236.477
  0
LINE
  8
0
 10
372.121
 20
236.477
 11
372.663
 21
236.616
  0
LINE
  8
0
 10
372.663
 20
236.616
 11
373.22
 21
236.479
  0
LINE
  8
0
 10
373.22
 20
236.479
 11
373.595
 21
236.104
  0
LINE
  8
0
 10
373.595
 20
236.104
 11
373.732
 21
235.55
  0
LINE
  8
0
 10
373.732
 20
235.55
 11
373.595
 21
235.007
  0
LINE
  8
0
 10
373.595
 20
235.007
 11
373.221
 21
234.639
  0
LINE
  8
0
 10
373.221
 20
234.639
 11
372.669
 21
234.504
  0
LINE
  8
0
 10
372.669
 20
234.504
 11
372.126
 21
234.639
  0
LINE
  8
0
 10
372.261
 20
232.499
 11
371.98
 21
232.791
  0
LINE
  8
0
 10
371.98
 20
232.791
 11
371.876
 21
233.221
  0
LINE
  8
0
 10
371.876
 20
233.221
 11
371.979
 21
233.649
  0
LINE
  8
0
 10
371.979
 20
233.649
 11
372.254
 21
233.945
  0
LINE
  8
0
 10
372.254
 20
233.945
 11
372.65
 21
234.056
  0
LINE
  8
0
 10
372.65
 20
234.056
 11
373.077
 21
233.945
  0
LINE
  8
0
 10
373.077
 20
233.945
 11
373.368
 21
233.645
  0
LINE
  8
0
 10
373.368
 20
233.645
 11
373.476
 21
233.207
  0
LINE
  8
0
 10
373.476
 20
233.207
 11
373.372
 21
232.784
  0
LINE
  8
0
 10
373.372
 20
232.784
 11
373.091
 21
232.497
  0
LINE
  8
0
 10
373.091
 20
232.497
 11
372.676
 21
232.392
  0
LINE
  8
0
 10
372.676
 20
232.392
 11
372.261
 21
232.499
  0
LINE
  8
0
 10
1
 20
189.5
 11
1
 21
217.5
  0
LINE
  8
0
 10
1
 20
217.5
 11
14.5
 21
217.5
  0
LINE
  8
0
 10
14.5
 20
217.5
 11
14.5
 21
189.5
  0
LINE
  8
0
 10
14.5
 20
189.5
 11
1
 21
189.5
  0
LINE
  8
0
 10
7.724
 20
202.542
 11
7.724
 21
202.992
  0
LINE
  8
0
 10
7.724
 20
202.992
 11
4.92099
 21
202.992
  0
LINE
  8
0
 10
4.92099
 20
202.992
 11
4.92099
 21
202.542
  0
LINE
  8
0
 10
4.92099
 20
202.542
 11
7.224
 21
202.542
  0
LINE
  8
0
 10
7.224
 20
202.542
 11
5.224
 21
198
  0
LINE
  8
0
 10
5.224
 20
198
 11
5.737
 21
198
  0
LINE
  8
0
 10
5.737
 20
198
 11
7.724
 21
202.542
  0
LINE
  8
0
 10
15.5
 20
189.5
 11
15.5
 21
217.5
  0
LINE
  8
0
 10
15.5
 20
217.5
 11
43.5
 21
217.5
  0
LINE
  8
0
 10
43.5
 20
217.5
 11
43.5
 21
189.5
  0
LINE
  8
0
 10
43.5
 20
189.5
 11
15.5
 21
189.5
  0
LINE
  8
0
 10
44.5
 20
189.5
 11
44.5
 21
217.5
  0
LINE
  8
0
 10
44.5
 20
217.5
 11
72.5
 21
217.5
  0
LINE
  8
0
 10
72.5
 20
217.5
 11
72.5
 21
189.5
  0
LINE
  8
0
 10
72.5
 20
189.5
 11
44.5
 21
189.5
  0
LINE
  8
0
 10
73.5
 20
189.5
 11
73.5
 21
217.5
  0
LINE
  8
0
 10
73.5
 20
217.5
 11
101.5
 21
217.5
  0
LINE
  8
0
 10
101.5
 20
217.5
 11
101.5
 21
189.5
  0
LINE
  8
0
 10
101.5
 20
189.5
 11
73.5
 21
189.5
  0
LINE
  8
0
 10
102.5
 20
189.5
 11
102.5
 21
217.5
  0
LINE
  8
0
 10
102.5
 20
217.5
 11
130.5
 21
217.5
  0
LINE
  8
0
 10
130.5
 20
217.5
 11
130.5
 21
189.5
  0
LINE
  8
0
 10
130.5
 20
189.5
 11
102.5
 21
189.5
  0
LINE
  8
0
 10
131.5
 20
189.5
 11
131.5
 21
217.5
  0
LINE
  8
0
 10
131.5
 20
217.5
 11
159.5
 21
217.5
  0
LINE
  8
0
 10
159.5
 20
217.5
 11
159.5
 21
189.5
  0
LINE
  8
0
 10
159.5
 20
189.5
 11
131.5
 21
189.5
  0
LINE
  8
0
 10
160.5
 20
189.5
 11
160.5
 21
217.5
  0
LINE
  8
0
 10
160.5
 20
217.5
 11
188.5
 21
217.5
  0
LINE
  8
0
 10
188.5
 20
217.5
 11
188.5
 21
189.5
  0
LINE
  8
0
 10
188.5
 20
189.5
 11
160.5
 21
189.5
  0
LINE
  8
0
 10
189.5
 20
189.5
 11
189.5
 21
217.5
  0
LINE
  8
0
 10
189.5
 20
217.5
 11
217.5
 21
217.5
  0
LINE
  8
0
 10
217.5
 20
217.5
 11
217.5
 21
189.5
  0
LINE
  8
0
 10
217.5
 20
189.5
 11
189.5
 21
189.5
  0
LINE
  8
0
 10
218.5
 20
189.5
 11
218.5
 21
217.5
  0
LINE
  8
0
 10
218.5
 20
217.5
 11
246.5
 21
217.5
  0
LINE
  8
0
 10
246.5
 20
217.5
 11
246.5
 21
189.5
  0
LINE
  8
0
 10
246.5
 20
189.5
 11
218.5
 21
189.5
  0
LINE
  8
0
 10
247.5
 20
189.5
 11
247.5
 21
217.5
  0
LINE
  8
0
 10
247.5
 20
217.5
 11
275.5
 21
217.5
  0
LINE
  8
0
 10
275.5
 20
217.5
 11
275.5
 21
189.5
  0
LINE
  8
0
 10
275.5
 20
189.5
 11
247.5
 21
189.5
  0
LINE
  8
0
 10
276.5
 20
189.5
 11
276.5
 21
217.5
  0
LINE
  8
0
 10
276.5
 20
217.5
 11
304.5
 21
217.5
  0
LINE
  8
0
 10
304.5
 20
217.5
 11
304.5
 21
189.5
  0
LINE
  8
0
 10
304.5
 20
189.5
 11
276.5
 21
189.5
  0
LINE
  8
0
 10
305.5
 20
189.5
 11
305.5
 21
217.5
  0
LINE
  8
0
 10
305.5
 20
217.5
 11
333.5
 21
217.5
  0
LINE
  8
0
 10
333.5
 20
217.5
 11
333.5
 21
189.5
  0
LINE
  8
0
 10
333.5
 20
189.5
 11
305.5
 21
189.5
  0
LINE
  8
0
 10
334.5
 20
189.5
 11
334.5
 21
217.5
  0
LINE
  8
0
 10
334.5
 20
217.5
 11
362.5
 21
217.5
  0
LINE
  8
0
 10
362.5
 20
217.5
 11
362.5
 21
189.5
  0
LINE
  8
0
 10
362.5
 20
189.5
 11
334.5
 21
189.5
  0
LINE
  8
0
 10
363.5
 20
189.5
 11
363.5
 21
217.5
  0
LINE
  8
0
 10
363.5
 20
217.5
 11
377
 21
217.5
  0
LINE
  8
0
 10
377
 20
217.5
 11
377
 21
189.5
  0
LINE
  8
0
 10
377
 20
189.5
 11
363.5
 21
189.5
  0
LINE
  8
0
 10
374.079
 20
203.458
 11
371.776
 21
203.458
  0
LINE
  8
0
 10
371.776
 20
203.458
 11
373.776
 21
208
  0
LINE
  8
0
 10
373.776
 20
208
 11
373.263
 21
208
  0
LINE
  8
0
 10
373.263
 20
208
 11
371.276
 21
203.458
  0
LINE
  8
0
 10
371.276
 20
203.458
 11
371.276
 21
203.008
  0
LINE
  8
0
 10
371.276
 20
203.008
 11
374.079
 21
203.008
  0
LINE
  8
0
 10
374.079
 20
203.008
 11
374.079
 21
203.458
  0
LINE
  8
0
 10
1
 20
160.5
 11
1
 21
188.5
  0
LINE
  8
0
 10
1
 20
188.5
 11
14.5
 21
188.5
  0
LINE
  8
0
 10
14.5
 20
188.5
 11
14.5
 21
160.5
  0
LINE
  8
0
 10
14.5
 20
160.5
 11
1
 21
160.5
  0
LINE
  8
0
 10
7.22488
 20
169.166
 11
7.8051
 21
169.786
  0
LINE
  8
0
 10
7.8051
 20
169.786
 11
8.01999
 21
170.691
  0
LINE
  8
0
 10
8.01999
 20
170.691
 11
7.81078
 21
171.555
  0
LINE
  8
0
 10
7.81078
 20
171.555
 11
7.25821
 21
172.162
  0
LINE
  8
0
 10
7.25821
 20
172.162
 11
6.47499
 21
172.392
  0
LINE
  8
0
 10
6.47499
 20
172.392
 11
6.28426
 21
172.378
  0
LINE
  8
0
 10
6.28426
 20
172.378
 11
6.1024
 21
172.333
  0
LINE
  8
0
 10
6.1024
 20
172.333
 11
5.903
 21
172.252
  0
LINE
  8
0
 10
5.903
 20
172.252
 11
7.02899
 21
173.992
  0
LINE
  8
0
 10
7.02899
 20
173.992
 11
6.47899
 21
173.992
  0
LINE
  8
0
 10
6.47899
 20
173.992
 11
5.27199
 21
172.163
  0
LINE
  8
0
 10
5.27199
 20
172.163
 11
4.91673
 21
171.57
  0
LINE
  8
0
 10
4.91673
 20
171.57
 11
4.73991
 21
171.114
  0
LINE
  8
0
 10
4.73991
 20
171.114
 11
4.69199
 21
170.664
  0
LINE
  8
0
 10
4.69199
 20
170.664
 11
4.91437
 21
169.777
  0
LINE
  8
0
 10
4.91437
 20
169.777
 11
5.51096
 21
169.164
  0
LINE
  8
0
 10
5.51096
 20
169.164
 11
6.37599
 21
168.936
  0
LINE
  8
0
 10
6.37599
 20
168.936
 11
7.22488
 21
169.166
  0
LINE
  8
0
 10
5.77229
 20
169.554
 11
5.35803
 21
170.014
  0
LINE
  8
0
 10
5.35803
 20
170.014
 11
5.20399
 21
170.684
  0
LINE
  8
0
 10
5.20399
 20
170.684
 11
5.3591
 21
171.326
  0
LINE
  8
0
 10
5.3591
 20
171.326
 11
5.77155
 21
171.775
  0
LINE
  8
0
 10
5.77155
 20
171.775
 11
6.362
 21
171.944
  0
LINE
  8
0
 10
6.362
 20
171.944
 11
6.95555
 21
171.778
  0
LINE
  8
0
 10
6.95555
 20
171.778
 11
7.3591
 21
171.329
  0
LINE
  8
0
 10
7.3591
 20
171.329
 11
7.508
 21
170.671
  0
LINE
  8
0
 10
7.508
 20
170.671
 11
7.35959
 21
170.007
  0
LINE
  8
0
 10
7.35959
 20
170.007
 11
6.9594
 21
169.552
  0
LINE
  8
0
 10
6.9594
 20
169.552
 11
6.375
 21
169.384
  0
LINE
  8
0
 10
6.375
 20
169.384
 11
5.77229
 21
169.554
  0
LINE
  8
0
 10
15.5
 20
160.5
 11
15.5
 21
188.5
  0
LINE
  8
0
 10
15.5
 20
188.5
 11
43.5
 21
188.5
  0
LINE
  8
0
 10
43.5
 20
188.5
 11
43.5
 21
160.5
  0
LINE
  8
0
 10
43.5
 20
160.5
 11
15.5
 21
160.5
  0
LINE
  8
0
 10
44.5
 20
160.5
 11
44.5
 21
188.5
  0
LINE
  8
0
 10
44.5
 20
188.5
 11
72.5
 21
188.5
  0
LINE
  8
0
 10
72.5
 20
188.5
 11
72.5
 21
160.5
  0
LINE
  8
0
 10
72.5
 20
160.5
 11
44.5
 21
160.5
  0
LINE
  8
0
 10
73.5
 20
160.5
 11
73.5
 21
188.5
  0
LINE
  8
0
 10
73.5
 20
188.5
 11
101.5
 21
188.5
  0
LINE
  8
0
 10
101.5
 20
188.5
 11
101.5
 21
160.5
  0
LINE
  8
0
 10
101.5
 20
160.5
 11
73.5
 21
160.5
  0
LINE
  8
0
 10
102.5
 20
160.5
 11
102.5
 21
188.5
  0
LINE
  8
0
 10
102.5
 20
188.5
 11
130.5
 21
188.5
  0
LINE
  8
0
 10
130.5
 20
188.5
 11
130.5
 21
160.5
  0
LINE
  8
0
 10
130.5
 20
160.5
 11
102.5
 21
160.5
  0
LINE
  8
0
 10
131.5
 20
160.5
 11
131.5
 21
188.5
  0
LINE
  8
0
 10
131.5
 20
188.5
 11
159.5
 21
188.5
  0
LINE
  8
0
 10
159.5
 20
188.5
 11
159.5
 21
160.5
  0
LINE
  8
0
 10
159.5
 20
160.5
 11
131.5
 21
160.5
  0
LINE
  8
0
 10
160.5
 20
160.5
 11
160.5
 21
188.5
  0
LINE
  8
0
 10
160.5
 20
188.5
 11
188.5
 21
188.5
  0
LINE
  8
0
 10
188.5
 20
188.5
 11
188.5
 21
160.5
  0
LINE
  8
0
 10
188.5
 20
160.5
 11
160.5
 21
160.5
  0
LINE
  8
0
 10
189.5
 20
160.5
 11
189.5
 21
188.5
  0
LINE
  8
0
 10
189.5
 20
188.5
 11
217.5
 21
188.5
  0
LINE
  8
0
 10
217.5
 20
188.5
 11
217.5
 21
160.5
  0
LINE
  8
0
 10
217.5
 20
160.5
 11
189.5
 21
160.5
  0
LINE
  8
0
 10
218.5
 20
160.5
 11
218.5
 21
188.5
  0
LINE
  8
0
 10
218.5
 20
188.5
 11
246.5
 21
188.5
  0
LINE
  8
0
 10
246.5
 20
188.5
 11
246.5
 21
160.5
  0
LINE
  8
0
 10
246.5
 20
160.5
 11
218.5
 21
160.5
  0
LINE
  8
0
 10
247.5
 20
160.5
 11
247.5
 21
188.5
  0
LINE
  8
0
 10
247.5
 20
188.5
 11
275.5
 21
188.5
  0
LINE
  8
0
 10
275.5
 20
188.5
 11
275.5
 21
160.5
  0
LINE
  8
0
 10
275.5
 20
160.5
 11
247.5
 21
160.5
  0
LINE
  8
0
 10
276.5
 20
160.5
 11
276.5
 21
188.5
  0
LINE
  8
0
 10
276.5
 20
188.5
 11
304.5
 21
188.5
  0
LINE
  8
0
 10
304.5
 20
188.5
 11
304.5
 21
160.5
  0
LINE
  8
0
 10
304.5
 20
160.5
 11
276.5
 21
160.5
  0
LINE
  8
0
 10
305.5
 20
160.5
 11
305.5
 21
188.5
  0
LINE
  8
0
 10
305.5
 20
188.5
 11
333.5
 21
188.5
  0
LINE
  8
0
 10
333.5
 20
188.5
 11
333.5
 21
160.5
  0
LINE
  8
0
 10
333.5
 20
160.5
 11
305.5
 21
160.5
  0
LINE
  8
0
 10
334.5
 20
160.5
 11
334.5
 21
188.5
  0
LINE
  8
0
 10
334.5
 20
188.5
 11
362.5
 21
188.5
  0
LINE
  8
0
 10
362.5
 20
188.5
 11
362.5
 21
160.5
  0
LINE
  8
0
 10
362.5
 20
160.5
 11
334.5
 21
160.5
  0
LINE
  8
0
 10
363.5
 20
160.5
 11
363.5
 21
188.5
  0
LINE
  8
0
 10
363.5
 20
188.5
 11
377
 21
188.5
  0
LINE
  8
0
 10
377
 20
188.5
 11
377
 21
160.5
  0
LINE
  8
0
 10
377
 20
160.5
 11
363.5
 21
160.5
  0
LINE
  8
0
 10
373.728
 20
175.837
 11
374.083
 21
176.43
  0
LINE
  8
0
 10
374.083
 20
176.43
 11
374.26
 21
176.886
  0
LINE
  8
0
 10
374.26
 20
176.886
 11
374.308
 21
177.336
  0
LINE
  8
0
 10
374.308
 20
177.336
 11
374.086
 21
178.223
  0
LINE
  8
0
 10
374.086
 20
178.223
 11
373.489
 21
178.836
  0
LINE
  8
0
 10
373.489
 20
178.836
 11
372.624
 21
179.064
  0
LINE
  8
0
 10
372.624
 20
179.064
 11
371.775
 21
178.834
  0
LINE
  8
0
 10
371.775
 20
178.834
 11
371.195
 21
178.214
  0
LINE
  8
0
 10
371.195
 20
178.214
 11
370.98
 21
177.309
  0
LINE
  8
0
 10
370.98
 20
177.309
 11
371.189
 21
176.445
  0
LINE
  8
0
 10
371.189
 20
176.445
 11
371.742
 21
175.838
  0
LINE
  8
0
 10
371.742
 20
175.838
 11
372.525
 21
175.608
  0
LINE
  8
0
 10
372.525
 20
175.608
 11
372.716
 21
175.622
  0
LINE
  8
0
 10
372.716
 20
175.622
 11
372.898
 21
175.667
  0
LINE
  8
0
 10
372.898
 20
175.667
 11
373.097
 21
175.748
  0
LINE
  8
0
 10
373.097
 20
175.748
 11
371.971
 21
174.008
  0
LINE
  8
0
 10
371.971
 20
174.008
 11
372.521
 21
174.008
  0
LINE
  8
0
 10
372.521
 20
174.008
 11
373.728
 21
175.837
  0
LINE
  8
0
 10
372.044
 20
176.222
 11
371.641
 21
176.671
  0
LINE
  8
0
 10
371.641
 20
176.671
 11
371.492
 21
177.329
  0
LINE
  8
0
 10
371.492
 20
177.329
 11
371.64
 21
177.993
  0
LINE
  8
0
 10
371.64
 20
177.993
 11
372.041
 21
178.448
  0
LINE
  8
0
 10
372.041
 20
178.448
 11
372.625
 21
178.616
  0
LINE
  8
0
 10
372.625
 20
178.616
 11
373.228
 21
178.446
  0
LINE
  8
0
 10
373.228
 20
178.446
 11
373.642
 21
177.986
  0
LINE
  8
0
 10
373.642
 20
177.986
 11
373.796
 21
177.316
  0
LINE
  8
0
 10
373.796
 20
177.316
 11
373.641
 21
176.674
  0
LINE
  8
0
 10
373.641
 20
176.674
 11
373.228
 21
176.225
  0
LINE
  8
0
 10
373.228
 20
176.225
 11
372.638
 21
176.056
  0
LINE
  8
0
 10
372.638
 20
176.056
 11
372.044
 21
176.222
  0
LINE
  8
0
 10
1
 20
131.5
 11
1
 21
159.5
  0
LINE
  8
0
 10
1
 20
159.5
 11
14.5
 21
159.5
  0
LINE
  8
0
 10
14.5
 20
159.5
 11
14.5
 21
131.5
  0
LINE
  8
0
 10
14.5
 20
131.5
 11
1
 21
131.5
  0
LINE
  8
0
 10
7.21155
 20
140.17
 11
7.79843
 21
140.79
  0
LINE
  8
0
 10
7.79843
 20
140.79
 11
8.01999
 21
141.671
  0
LINE
  8
0
 10
8.01999
 20
141.671
 11
7.8017
 21
142.546
  0
LINE
  8
0
 10
7.8017
 20
142.546
 11
7.22162
 21
143.16
  0
LINE
  8
0
 10
7.22162
 20
143.16
 11
6.392
 21
143.392
  0
LINE
  8
0
 10
6.392
 20
143.392
 11
6.10985
 21
143.368
  0
LINE
  8
0
 10
6.10985
 20
143.368
 11
5.83481
 21
143.293
  0
LINE
  8
0
 10
5.83481
 20
143.293
 11
5.54799
 21
143.158
  0
LINE
  8
0
 10
5.54799
 20
143.158
 11
5.784
 21
144.542
  0
LINE
  8
0
 10
5.784
 20
144.542
 11
7.59099
 21
144.542
  0
LINE
  8
0
 10
7.59099
 20
144.542
 11
7.59099
 21
144.992
  0
LINE
  8
0
 10
7.59099
 20
144.992
 11
5.396
 21
144.992
  0
LINE
  8
0
 10
5.396
 20
144.992
 11
4.96199
 21
142.535
  0
LINE
  8
0
 10
4.96199
 20
142.535
 11
5.33699
 21
142.388
  0
LINE
  8
0
 10
5.33699
 20
142.388
 11
5.64473
 21
142.699
  0
LINE
  8
0
 10
5.64473
 20
142.699
 11
5.97891
 21
142.883
  0
LINE
  8
0
 10
5.97891
 20
142.883
 11
6.34399
 21
142.944
  0
LINE
  8
0
 10
6.34399
 20
142.944
 11
6.93777
 21
142.775
  0
LINE
  8
0
 10
6.93777
 20
142.775
 11
7.35222
 21
142.322
  0
LINE
  8
0
 10
7.35222
 20
142.322
 11
7.508
 21
141.671
  0
LINE
  8
0
 10
7.508
 20
141.671
 11
7.35088
 21
141.016
  0
LINE
  8
0
 10
7.35088
 20
141.016
 11
6.9351
 21
140.557
  0
LINE
  8
0
 10
6.9351
 20
140.557
 11
6.34399
 21
140.384
  0
LINE
  8
0
 10
6.34399
 20
140.384
 11
5.78569
 21
140.537
  0
LINE
  8
0
 10
5.78569
 20
140.537
 11
5.37363
 21
140.955
  0
LINE
  8
0
 10
5.37363
 20
140.955
 11
5.16599
 21
141.577
  0
LINE
  8
0
 10
5.16599
 20
141.577
 11
4.69199
 21
141.577
  0
LINE
  8
0
 10
4.69199
 20
141.577
 11
4.73636
 21
141.304
  0
LINE
  8
0
 10
4.73636
 20
141.304
 11
4.78696
 21
141.104
  0
LINE
  8
0
 10
4.78696
 20
141.104
 11
4.85799
 21
140.921
  0
LINE
  8
0
 10
4.85799
 20
140.921
 11
5.23244
 21
140.395
  0
LINE
  8
0
 10
5.23244
 20
140.395
 11
5.75421
 21
140.056
  0
LINE
  8
0
 10
5.75421
 20
140.056
 11
6.37599
 21
139.936
  0
LINE
  8
0
 10
6.37599
 20
139.936
 11
7.21155
 21
140.17
  0
LINE
  8
0
 10
15.5
 20
131.5
 11
15.5
 21
159.5
  0
LINE
  8
0
 10
15.5
 20
159.5
 11
43.5
 21
159.5
  0
LINE
  8
0
 10
43.5
 20
159.5
 11
43.5
 21
131.5
  0
LINE
  8
0
 10
43.5
 20
131.5
 11
15.5
 21
131.5
  0
LINE
  8
0
 10
44.5
 20
131.5
 11
44.5
 21
159.5
  0
LINE
  8
0
 10
44.5
 20
159.5
 11
72.5
 21
159.5
  0
LINE
  8
0
 10
72.5
 20
159.5
 11
72.5
 21
131.5
  0
LINE
  8
0
 10
72.5
 20
131.5
 11
44.5
 21
131.5
  0
LINE
  8
0
 10
73.5
 20
131.5
 11
73.5
 21
159.5
  0
LINE
  8
0
 10
73.5
 20
159.5
 11
101.5
 21
159.5
  0
LINE
  8
0
 10
101.5
 20
159.5
 11
101.5
 21
131.5
  0
LINE
  8
0
 10
101.5
 20
131.5
 11
73.5
 21
131.5
  0
LINE
  8
0
 10
102.5
 20
131.5
 11
102.5
 21
159.5
  0
LINE
  8
0
 10
102.5
 20
159.5
 11
130.5
 21
159.5
  0
LINE
  8
0
 10
130.5
 20
159.5
 11
130.5
 21
131.5
  0
LINE
  8
0
 10
130.5
 20
131.5
 11
102.5
 21
131.5
  0
LINE
  8
0
 10
131.5
 20
131.5
 11
131.5
 21
159.5
  0
LINE
  8
0
 10
131.5
 20
159.5
 11
159.5
 21
159.5
  0
LINE
  8
0
 10
159.5
 20
159.5
 11
159.5
 21
131.5
  0
LINE
  8
0
 10
159.5
 20
131.5
 11
131.5
 21
131.5
  0
LINE
  8
0
 10
160.5
 20
131.5
 11
160.5
 21
159.5
  0
LINE
  8
0
 10
160.5
 20
159.5
 11
188.5
 21
159.5
  0
LINE
  8
0
 10
188.5
 20
159.5
 11
188.5
 21
131.5
  0
LINE
  8
0
 10
188.5
 20
131.5
 11
160.5
 21
131.5
  0
LINE
  8
0
 10
189.5
 20
131.5
 11
189.5
 21
159.5
  0
LINE
  8
0
 10
189.5
 20
159.5
 11
217.5
 21
159.5
  0
LINE
  8
0
 10
217.5
 20
159.5
 11
217.5
 21
131.5
  0
LINE
  8
0
 10
217.5
 20
131.5
 11
189.5
 21
131.5
  0
LINE
  8
0
 10
218.5
 20
131.5
 11
218.5
 21
159.5
  0
LINE
  8
0
 10
218.5
 20
159.5
 11
246.5
 21
159.5
  0
LINE
  8
0
 10
246.5
 20
159.5
 11
246.5
 21
131.5
  0
LINE
  8
0
 10
246.5
 20
131.5
 11
218.5
 21
131.5
  0
LINE
  8
0
 10
247.5
 20
131.5
 11
247.5
 21
159.5
  0
LINE
  8
0
 10
247.5
 20
159.5
 11
275.5
 21
159.5
  0
LINE
  8
0
 10
275.5
 20
159.5
 11
275.5
 21
131.5
  0
LINE
  8
0
 10
275.5
 20
131.5
 11
247.5
 21
131.5
  0
LINE
  8
0
 10
276.5
 20
131.5
 11
276.5
 21
159.5
  0
LINE
  8
0
 10
276.5
 20
159.5
 11
304.5
 21
159.5
  0
LINE
  8
0
 10
304.5
 20
159.5
 11
304.5
 21
131.5
  0
LINE
  8
0
 10
304.5
 20
131.5
 11
276.5
 21
131.5
  0
LINE
  8
0
 10
305.5
 20
131.5
 11
305.5
 21
159.5
  0
LINE
  8
0
 10
305.5
 20
159.5
 11
333.5
 21
159.5
  0
LINE
  8
0
 10
333.5
 20
159.5
 11
333.5
 21
131.5
  0
LINE
  8
0
 10
333.5
 20
131.5
 11
305.5
 21
131.5
  0
LINE
  8
0
 10
334.5
 20
131.5
 11
334.5
 21
159.5
  0
LINE
  8
0
 10
334.5
 20
159.5
 11
362.5
 21
159.5
  0
LINE
  8
0
 10
362.5
 20
159.5
 11
362.5
 21
131.5
  0
LINE
  8
0
 10
362.5
 20
131.5
 11
334.5
 21
131.5
  0
LINE
  8
0
 10
363.5
 20
131.5
 11
363.5
 21
159.5
  0
LINE
  8
0
 10
363.5
 20
159.5
 11
377
 21
159.5
  0
LINE
  8
0
 10
377
 20
159.5
 11
377
 21
131.5
  0
LINE
  8
0
 10
377
 20
131.5
 11
363.5
 21
131.5
  0
LINE
  8
0
 10
374.038
 20
147.465
 11
373.663
 21
147.612
  0
LINE
  8
0
 10
373.663
 20
147.612
 11
373.355
 21
147.301
  0
LINE
  8
0
 10
373.355
 20
147.301
 11
373.021
 21
147.117
  0
LINE
  8
0
 10
373.021
 20
147.117
 11
372.656
 21
147.056
  0
LINE
  8
0
 10
372.656
 20
147.056
 11
372.062
 21
147.225
  0
LINE
  8
0
 10
372.062
 20
147.225
 11
371.648
 21
147.678
  0
LINE
  8
0
 10
371.648
 20
147.678
 11
371.492
 21
148.329
  0
LINE
  8
0
 10
371.492
 20
148.329
 11
371.649
 21
148.984
  0
LINE
  8
0
 10
371.649
 20
148.984
 11
372.065
 21
149.443
  0
LINE
  8
0
 10
372.065
 20
149.443
 11
372.656
 21
149.616
  0
LINE
  8
0
 10
372.656
 20
149.616
 11
373.214
 21
149.463
  0
LINE
  8
0
 10
373.214
 20
149.463
 11
373.626
 21
149.045
  0
LINE
  8
0
 10
373.626
 20
149.045
 11
373.834
 21
148.423
  0
LINE
  8
0
 10
373.834
 20
148.423
 11
374.308
 21
148.423
  0
LINE
  8
0
 10
374.308
 20
148.423
 11
374.264
 21
148.696
  0
LINE
  8
0
 10
374.264
 20
148.696
 11
374.213
 21
148.896
  0
LINE
  8
0
 10
374.213
 20
148.896
 11
374.142
 21
149.079
  0
LINE
  8
0
 10
374.142
 20
149.079
 11
373.768
 21
149.605
  0
LINE
  8
0
 10
373.768
 20
149.605
 11
373.246
 21
149.944
  0
LINE
  8
0
 10
373.246
 20
149.944
 11
372.624
 21
150.064
  0
LINE
  8
0
 10
372.624
 20
150.064
 11
371.788
 21
149.83
  0
LINE
  8
0
 10
371.788
 20
149.83
 11
371.202
 21
149.21
  0
LINE
  8
0
 10
371.202
 20
149.21
 11
370.98
 21
148.329
  0
LINE
  8
0
 10
370.98
 20
148.329
 11
371.198
 21
147.454
  0
LINE
  8
0
 10
371.198
 20
147.454
 11
371.778
 21
146.84
  0
LINE
  8
0
 10
371.778
 20
146.84
 11
372.608
 21
146.608
  0
LINE
  8
0
 10
372.608
 20
146.608
 11
372.89
 21
146.632
  0
LINE
  8
0
 10
372.89
 20
146.632
 11
373.165
 21
146.707
  0
LINE
  8
0
 10
373.165
 20
146.707
 11
373.452
 21
146.842
  0
LINE
  8
0
 10
373.452
 20
146.842
 11
373.216
 21
145.458
  0
LINE
  8
0
 10
373.216
 20
145.458
 11
371.409
 21
145.458
  0
LINE
  8
0
 10
371.409
 20
145.458
 11
371.409
 21
145.008
  0
LINE
  8
0
 10
371.409
 20
145.008
 11
373.604
 21
145.008
  0
LINE
  8
0
 10
373.604
 20
145.008
 11
374.038
 21
147.465
  0
LINE
  8
0
 10
1
 20
102.5
 11
1
 21
130.5
  0
LINE
  8
0
 10
1
 20
130.5
 11
14.5
 21
130.5
  0
LINE
  8
0
 10
14.5
 20
130.5
 11
14.5
 21
102.5
  0
LINE
  8
0
 10
14.5
 20
102.5
 11
1
 21
102.5
  0
LINE
  8
0
 10
7.57199
 20
111.896
 11
8.019
 21
111.896
  0
LINE
  8
0
 10
8.019
 20
111.896
 11
8.019
 21
112.344
  0
LINE
  8
0
 10
8.019
 20
112.344
 11
7.57199
 21
112.344
  0
LINE
  8
0
 10
7.57199
 20
112.344
 11
7.57199
 21
115.992
  0
LINE
  8
0
 10
7.57199
 20
115.992
 11
6.96799
 21
115.992
  0
LINE
  8
0
 10
6.96799
 20
115.992
 11
4.59999
 21
112.344
  0
LINE
  8
0
 10
4.59999
 20
112.344
 11
4.59999
 21
111.896
  0
LINE
  8
0
 10
4.59999
 20
111.896
 11
7.06
 21
111.896
  0
LINE
  8
0
 10
7.06
 20
111.896
 11
7.06
 21
111
  0
LINE
  8
0
 10
7.06
 20
111
 11
7.57199
 21
111
  0
LINE
  8
0
 10
7.57199
 20
111
 11
7.57199
 21
111.896
  0
LINE
  8
0
 10
5.159
 20
112.344
 11
7.06
 21
115.299
  0
LINE
  8
0
 10
7.06
 20
115.299
 11
7.06
 21
112.344
  0
LINE
  8
0
 10
7.06
 20
112.344
 11
5.159
 21
112.344
  0
LINE
  8
0
 10
15.5
 20
102.5
 11
15.5
 21
130.5
  0
LINE
  8
0
 10
15.5
 20
130.5
 11
43.5
 21
130.5
  0
LINE
  8
0
 10
43.5
 20
130.5
 11
43.5
 21
102.5
  0
LINE
  8
0
 10
43.5
 20
102.5
 11
15.5
 21
102.5
  0
LINE
  8
0
 10
44.5
 20
102.5
 11
44.5
 21
130.5
  0
LINE
  8
0
 10
44.5
 20
130.5
 11
72.5
 21
130.5
  0
LINE
  8
0
 10
72.5
 20
130.5
 11
72.5
 21
102.5
  0
LINE
  8
0
 10
72.5
 20
102.5
 11
44.5
 21
102.5
  0
LINE
  8
0
 10
73.5
 20
102.5
 11
73.5
 21
130.5
  0
LINE
  8
0
 10
73.5
 20
130.5
 11
101.5
 21
130.5
  0
LINE
  8
0
 10
101.5
 20
130.5
 11
101.5
 21
102.5
  0
LINE
  8
0
 10
101.5
 20
102.5
 11
73.5
 21
102.5
  0
LINE
  8
0
 10
102.5
 20
102.5
 11
102.5
 21
130.5
  0
LINE
  8
0
 10
102.5
 20
130.5
 11
130.5
 21
130.5
  0
LINE
  8
0
 10
130.5
 20
130.5
 11
130.5
 21
102.5
  0
LINE
  8
0
 10
130.5
 20
102.5
 11
102.5
 21
102.5
  0
LINE
  8
0
 10
131.5
 20
102.5
 11
131.5
 21
130.5
  0
LINE
  8
0
 10
131.5
 20
130.5
 11
159.5
 21
130.5
  0
LINE
  8
0
 10
159.5
 20
130.5
 11
159.5
 21
102.5
  0
LINE
  8
0
 10
159.5
 20
102.5
 11
131.5
 21
102.5
  0
LINE
  8
0
 10
160.5
 20
102.5
 11
160.5
 21
130.5
  0
LINE
  8
0
 10
160.5
 20
130.5
 11
188.5
 21
130.5
  0
LINE
  8
0
 10
188.5
 20
130.5
 11
188.5
 21
102.5
  0
LINE
  8
0
 10
188.5
 20
102.5
 11
160.5
 21
102.5
  0
LINE
  8
0
 10
189.5
 20
102.5
 11
189.5
 21
130.5
  0
LINE
  8
0
 10
189.5
 20
130.5
 11
217.5
 21
130.5
  0
LINE
  8
0
 10
217.5
 20
130.5
 11
217.5
 21
102.5
  0
LINE
  8
0
 10
217.5
 20
102.5
 11
189.5
 21
102.5
  0
LINE
  8
0
 10
218.5
 20
102.5
 11
218.5
 21
130.5
  0
LINE
  8
0
 10
218.5
 20
130.5
 11
246.5
 21
130.5
  0
LINE
  8
0
 10
246.5
 20
130.5
 11
246.5
 21
102.5
  0
LINE
  8
0
 10
246.5
 20
102.5
 11
218.5
 21
102.5
  0
LINE
  8
0
 10
247.5
 20
102.5
 11
247.5
 21
130.5
  0
LINE
  8
0
 10
247.5
 20
130.5
 11
275.5
 21
130.5
  0
LINE
  8
0
 10
275.5
 20
130.5
 11
275.5
 21
102.5
  0
LINE
  8
0
 10
275.5
 20
102.5
 11
247.5
 21
102.5
  0
LINE
  8
0
 10
276.5
 20
102.5
 11
276.5
 21
130.5
  0
LINE
  8
0
 10
276.5
 20
130.5
 11
304.5
 21
130.5
  0
LINE
  8
0
 10
304.5
 20
130.5
 11
304.5
 21
102.5
  0
LINE
  8
0
 10
304.5
 20
102.5
 11
276.5
 21
102.5
  0
LINE
  8
0
 10
305.5
 20
102.5
 11
305.5
 21
130.5
  0
LINE
  8
0
 10
305.5
 20
130.5
 11
333.5
 21
130.5
  0
LINE
  8
0
 10
333.5
 20
130.5
 11
333.5
 21
102.5
  0
LINE
  8
0
 10
333.5
 20
102.5
 11
305.5
 21
102.5
  0
LINE
  8
0
 10
334.5
 20
102.5
 11
334.5
 21
130.5
  0
LINE
  8
0
 10
334.5
 20
130.5
 11
362.5
 21
130.5
  0
LINE
  8
0
 10
362.5
 20
130.5
 11
362.5
 21
102.5
  0
LINE
  8
0
 10
362.5
 20
102.5
 11
334.5
 21
102.5
  0
LINE
  8
0
 10
363.5
 20
102.5
 11
363.5
 21
130.5
  0
LINE
  8
0
 10
363.5
 20
130.5
 11
377
 21
130.5
  0
LINE
  8
0
 10
377
 20
130.5
 11
377
 21
102.5
  0
LINE
  8
0
 10
377
 20
102.5
 11
363.5
 21
102.5
  0
LINE
  8
0
 10
374.4
 20
119.656
 11
374.4
 21
120.104
  0
LINE
  8
0
 10
374.4
 20
120.104
 11
371.94
 21
120.104
  0
LINE
  8
0
 10
371.94
 20
120.104
 11
371.94
 21
121
  0
LINE
  8
0
 10
371.94
 20
121
 11
371.428
 21
121
  0
LINE
  8
0
 10
371.428
 20
121
 11
371.428
 21
120.104
  0
LINE
  8
0
 10
371.428
 20
120.104
 11
370.981
 21
120.104
  0
LINE
  8
0
 10
370.981
 20
120.104
 11
370.981
 21
119.656
  0
LINE
  8
0
 10
370.981
 20
119.656
 11
371.428
 21
119.656
  0
LINE
  8
0
 10
371.428
 20
119.656
 11
371.428
 21
116.008
  0
LINE
  8
0
 10
371.428
 20
116.008
 11
372.032
 21
116.008
  0
LINE
  8
0
 10
372.032
 20
116.008
 11
374.4
 21
119.656
  0
LINE
  8
0
 10
371.94
 20
119.656
 11
373.841
 21
119.656
  0
LINE
  8
0
 10
373.841
 20
119.656
 11
371.94
 21
116.701
  0
LINE
  8
0
 10
371.94
 20
116.701
 11
371.94
 21
119.656
  0
LINE
  8
0
 10
1
 20
73.5
 11
1
 21
101.5
  0
LINE
  8
0
 10
1
 20
101.5
 11
14.5
 21
101.5
  0
LINE
  8
0
 10
14.5
 20
101.5
 11
14.5
 21
73.5
  0
LINE
  8
0
 10
14.5
 20
73.5
 11
1
 21
73.5
  0
LINE
  8
0
 10
7.07214
 20
82.1494
 11
7.62085
 21
82.7153
  0
LINE
  8
0
 10
7.62085
 20
82.7153
 11
7.82799
 21
83.522
  0
LINE
  8
0
 10
7.82799
 20
83.522
 11
7.73358
 21
84.0698
  0
LINE
  8
0
 10
7.73358
 20
84.0698
 11
7.4514
 21
84.5162
  0
LINE
  8
0
 10
7.4514
 20
84.5162
 11
6.98299
 21
84.854
  0
LINE
  8
0
 10
6.98299
 20
84.854
 11
7.27866
 21
85.1167
  0
LINE
  8
0
 10
7.27866
 20
85.1167
 11
7.45166
 21
85.4299
  0
LINE
  8
0
 10
7.45166
 20
85.4299
 11
7.508
 21
85.804
  0
LINE
  8
0
 10
7.508
 20
85.804
 11
7.34843
 21
86.4561
  0
LINE
  8
0
 10
7.34843
 20
86.4561
 11
6.91422
 21
86.8952
  0
LINE
  8
0
 10
6.91422
 20
86.8952
 11
6.27199
 21
87.056
  0
LINE
  8
0
 10
6.27199
 20
87.056
 11
5.62773
 21
86.8943
  0
LINE
  8
0
 10
5.62773
 20
86.8943
 11
5.19925
 21
86.4397
  0
LINE
  8
0
 10
5.19925
 20
86.4397
 11
5.02899
 21
85.738
  0
LINE
  8
0
 10
5.02899
 20
85.738
 11
5.50899
 21
85.738
  0
LINE
  8
0
 10
5.50899
 20
85.738
 11
5.60121
 21
86.2076
  0
LINE
  8
0
 10
5.60121
 20
86.2076
 11
5.85544
 21
86.5044
  0
LINE
  8
0
 10
5.85544
 20
86.5044
 11
6.25899
 21
86.608
  0
LINE
  8
0
 10
6.25899
 20
86.608
 11
6.64296
 21
86.5077
  0
LINE
  8
0
 10
6.64296
 20
86.5077
 11
6.90137
 21
86.2333
  0
LINE
  8
0
 10
6.90137
 20
86.2333
 11
6.99599
 21
85.825
  0
LINE
  8
0
 10
6.99599
 20
85.825
 11
6.89374
 21
85.4151
  0
LINE
  8
0
 10
6.89374
 20
85.4151
 11
6.60725
 21
85.1452
  0
LINE
  8
0
 10
6.60725
 20
85.1452
 11
6.16699
 21
85.048
  0
LINE
  8
0
 10
6.16699
 20
85.048
 11
6.09618
 21
85.0501
  0
LINE
  8
0
 10
6.09618
 20
85.0501
 11
6.04199
 21
85.055
  0
LINE
  8
0
 10
6.04199
 20
85.055
 11
5.92999
 21
85.062
  0
LINE
  8
0
 10
5.92999
 20
85.062
 11
5.92999
 21
84.62
  0
LINE
  8
0
 10
5.92999
 20
84.62
 11
6.19118
 21
84.6123
  0
LINE
  8
0
 10
6.19118
 20
84.6123
 11
6.36281
 21
84.6004
  0
LINE
  8
0
 10
6.36281
 20
84.6004
 11
6.49599
 21
84.58
  0
LINE
  8
0
 10
6.49599
 20
84.58
 11
6.92413
 21
84.3609
  0
LINE
  8
0
 10
6.92413
 20
84.3609
 11
7.21118
 21
83.9814
  0
LINE
  8
0
 10
7.21118
 20
83.9814
 11
7.31599
 21
83.495
  0
LINE
  8
0
 10
7.31599
 20
83.495
 11
7.17485
 21
82.9274
  0
LINE
  8
0
 10
7.17485
 20
82.9274
 11
6.80014
 21
82.5323
  0
LINE
  8
0
 10
6.80014
 20
82.5323
 11
6.265
 21
82.384
  0
LINE
  8
0
 10
6.265
 20
82.384
 11
5.91658
 21
82.4405
  0
LINE
  8
0
 10
5.91658
 20
82.4405
 11
5.61639
 21
82.6041
  0
LINE
  8
0
 10
5.61639
 20
82.6041
 11
5.37799
 21
82.866
  0
LINE
  8
0
 10
5.37799
 20
82.866
 11
5.28136
 21
83.0498
  0
LINE
  8
0
 10
5.28136
 20
83.0498
 11
5.22162
 21
83.2692
  0
LINE
  8
0
 10
5.22162
 20
83.2692
 11
5.187
 21
83.569
  0
LINE
  8
0
 10
5.187
 20
83.569
 11
4.70699
 21
83.569
  0
LINE
  8
0
 10
4.70699
 20
83.569
 11
4.73685
 21
83.2415
  0
LINE
  8
0
 10
4.73685
 20
83.2415
 11
4.80515
 21
82.9642
  0
LINE
  8
0
 10
4.80515
 20
82.9642
 11
4.91899
 21
82.712
  0
LINE
  8
0
 10
4.91899
 20
82.712
 11
5.26604
 21
82.2966
  0
LINE
  8
0
 10
5.26604
 20
82.2966
 11
5.73662
 21
82.0301
  0
LINE
  8
0
 10
5.73662
 20
82.0301
 11
6.29099
 21
81.936
  0
LINE
  8
0
 10
6.29099
 20
81.936
 11
7.07214
 21
82.1494
  0
LINE
  8
0
 10
15.5
 20
73.5
 11
15.5
 21
101.5
  0
LINE
  8
0
 10
15.5
 20
101.5
 11
43.5
 21
101.5
  0
LINE
  8
0
 10
43.5
 20
101.5
 11
43.5
 21
73.5
  0
LINE
  8
0
 10
43.5
 20
73.5
 11
15.5
 21
73.5
  0
LINE
  8
0
 10
44.5
 20
73.5
 11
44.5
 21
101.5
  0
LINE
  8
0
 10
44.5
 20
101.5
 11
72.5
 21
101.5
  0
LINE
  8
0
 10
72.5
 20
101.5
 11
72.5
 21
73.5
  0
LINE
  8
0
 10
72.5
 20
73.5
 11
44.5
 21
73.5
  0
LINE
  8
0
 10
73.5
 20
73.5
 11
73.5
 21
101.5
  0
LINE
  8
0
 10
73.5
 20
101.5
 11
101.5
 21
101.5
  0
LINE
  8
0
 10
101.5
 20
101.5
 11
101.5
 21
73.5
  0
LINE
  8
0
 10
101.5
 20
73.5
 11
73.5
 21
73.5
  0
LINE
  8
0
 10
102.5
 20
73.5
 11
102.5
 21
101.5
  0
LINE
  8
0
 10
102.5
 20
101.5
 11
130.5
 21
101.5
  0
LINE
  8
0
 10
130.5
 20
101.5
 11
130.5
 21
73.5
  0
LINE
  8
0
 10
130.5
 20
73.5
 11
102.5
 21
73.5
  0
LINE
  8
0
 10
131.5
 20
73.5
 11
131.5
 21
101.5
  0
LINE
  8
0
 10
131.5
 20
101.5
 11
159.5
 21
101.5
  0
LINE
  8
0
 10
159.5
 20
101.5
 11
159.5
 21
73.5
  0
LINE
  8
0
 10
159.5
 20
73.5
 11
131.5
 21
73.5
  0
LINE
  8
0
 10
160.5
 20
73.5
 11
160.5
 21
101.5
  0
LINE
  8
0
 10
160.5
 20
101.5
 11
188.5
 21
101.5
  0
LINE
  8
0
 10
188.5
 20
101.5
 11
188.5
 21
73.5
  0
LINE
  8
0
 10
188.5
 20
73.5
 11
160.5
 21
73.5
  0
LINE
  8
0
 10
189.5
 20
73.5
 11
189.5
 21
101.5
  0
LINE
  8
0
 10
189.5
 20
101.5
 11
217.5
 21
101.5
  0
LINE
  8
0
 10
217.5
 20
101.5
 11
217.5
 21
73.5
  0
LINE
  8
0
 10
217.5
 20
73.5
 11
189.5
 21
73.5
  0
LINE
  8
0
 10
218.5
 20
73.5
 11
218.5
 21
101.5
  0
LINE
  8
0
 10
218.5
 20
101.5
 11
246.5
 21
101.5
  0
LINE
  8
0
 10
246.5
 20
101.5
 11
246.5
 21
73.5
  0
LINE
  8
0
 10
246.5
 20
73.5
 11
218.5
 21
73.5
  0
LINE
  8
0
 10
247.5
 20
73.5
 11
247.5
 21
101.5
  0
LINE
  8
0
 10
247.5
 20
101.5
 11
275.5
 21
101.5
  0
LINE
  8
0
 10
275.5
 20
101.5
 11
275.5
 21
73.5
  0
LINE
  8
0
 10
275.5
 20
73.5
 11
247.5
 21
73.5
  0
LINE
  8
0
 10
276.5
 20
73.5
 11
276.5
 21
101.5
  0
LINE
  8
0
 10
276.5
 20
101.5
 11
304.5
 21
101.5
  0
LINE
  8
0
 10
304.5
 20
101.5
 11
304.5
 21
73.5
  0
LINE
  8
0
 10
304.5
 20
73.5
 11
276.5
 21
73.5
  0
LINE
  8
0
 10
305.5
 20
73.5
 11
305.5
 21
101.5
  0
LINE
  8
0
 10
305.5
 20
101.5
 11
333.5
 21
101.5
  0
LINE
  8
0
 10
333.5
 20
101.5
 11
333.5
 21
73.5
  0
LINE
  8
0
 10
333.5
 20
73.5
 11
305.5
 21
73.5
  0
LINE
  8
0
 10
334.5
 20
73.5
 11
334.5
 21
101.5
  0
LINE
  8
0
 10
334.5
 20
101.5
 11
362.5
 21
101.5
  0
LINE
  8
0
 10
362.5
 20
101.5
 11
362.5
 21
73.5
  0
LINE
  8
0
 10
362.5
 20
73.5
 11
334.5
 21
73.5
  0
LINE
  8
0
 10
363.5
 20
73.5
 11
363.5
 21
101.5
  0
LINE
  8
0
 10
363.5
 20
101.5
 11
377
 21
101.5
  0
LINE
  8
0
 10
377
 20
101.5
 11
377
 21
73.5
  0
LINE
  8
0
 10
377
 20
73.5
 11
363.5
 21
73.5
  0
LINE
  8
0
 10
373.372
 20
87.1057
 11
373.801
 21
87.5603
  0
LINE
  8
0
 10
373.801
 20
87.5603
 11
373.971
 21
88.262
  0
LINE
  8
0
 10
373.971
 20
88.262
 11
373.491
 21
88.262
  0
LINE
  8
0
 10
373.491
 20
88.262
 11
373.399
 21
87.7924
  0
LINE
  8
0
 10
373.399
 20
87.7924
 11
373.145
 21
87.4956
  0
LINE
  8
0
 10
373.145
 20
87.4956
 11
372.741
 21
87.392
  0
LINE
  8
0
 10
372.741
 20
87.392
 11
372.357
 21
87.4923
  0
LINE
  8
0
 10
372.357
 20
87.4923
 11
372.099
 21
87.7667
  0
LINE
  8
0
 10
372.099
 20
87.7667
 11
372.004
 21
88.175
  0
LINE
  8
0
 10
372.004
 20
88.175
 11
372.106
 21
88.5849
  0
LINE
  8
0
 10
372.106
 20
88.5849
 11
372.393
 21
88.8548
  0
LINE
  8
0
 10
372.393
 20
88.8548
 11
372.833
 21
88.952
  0
LINE
  8
0
 10
372.833
 20
88.952
 11
372.904
 21
88.9499
  0
LINE
  8
0
 10
372.904
 20
88.9499
 11
372.958
 21
88.945
  0
LINE
  8
0
 10
372.958
 20
88.945
 11
373.07
 21
88.938
  0
LINE
  8
0
 10
373.07
 20
88.938
 11
373.07
 21
89.38
  0
LINE
  8
0
 10
373.07
 20
89.38
 11
372.809
 21
89.3877
  0
LINE
  8
0
 10
372.809
 20
89.3877
 11
372.637
 21
89.3996
  0
LINE
  8
0
 10
372.637
 20
89.3996
 11
372.504
 21
89.42
  0
LINE
  8
0
 10
372.504
 20
89.42
 11
372.076
 21
89.6391
  0
LINE
  8
0
 10
372.076
 20
89.6391
 11
371.789
 21
90.0186
  0
LINE
  8
0
 10
371.789
 20
90.0186
 11
371.684
 21
90.505
  0
LINE
  8
0
 10
371.684
 20
90.505
 11
371.825
 21
91.0726
  0
LINE
  8
0
 10
371.825
 20
91.0726
 11
372.2
 21
91.4677
  0
LINE
  8
0
 10
372.2
 20
91.4677
 11
372.735
 21
91.616
  0
LINE
  8
0
 10
372.735
 20
91.616
 11
373.083
 21
91.5595
  0
LINE
  8
0
 10
373.083
 20
91.5595
 11
373.384
 21
91.3959
  0
LINE
  8
0
 10
373.384
 20
91.3959
 11
373.622
 21
91.134
  0
LINE
  8
0
 10
373.622
 20
91.134
 11
373.719
 21
90.9502
  0
LINE
  8
0
 10
373.719
 20
90.9502
 11
373.778
 21
90.7308
  0
LINE
  8
0
 10
373.778
 20
90.7308
 11
373.813
 21
90.431
  0
LINE
  8
0
 10
373.813
 20
90.431
 11
374.293
 21
90.431
  0
LINE
  8
0
 10
374.293
 20
90.431
 11
374.263
 21
90.7585
  0
LINE
  8
0
 10
374.263
 20
90.7585
 11
374.195
 21
91.0358
  0
LINE
  8
0
 10
374.195
 20
91.0358
 11
374.081
 21
91.288
  0
LINE
  8
0
 10
374.081
 20
91.288
 11
373.734
 21
91.7034
  0
LINE
  8
0
 10
373.734
 20
91.7034
 11
373.263
 21
91.9699
  0
LINE
  8
0
 10
373.263
 20
91.9699
 11
372.709
 21
92.064
  0
LINE
  8
0
 10
372.709
 20
92.064
 11
371.928
 21
91.8506
  0
LINE
  8
0
 10
371.928
 20
91.8506
 11
371.379
 21
91.2847
  0
LINE
  8
0
 10
371.379
 20
91.2847
 11
371.172
 21
90.478
  0
LINE
  8
0
 10
371.172
 20
90.478
 11
371.266
 21
89.9302
  0
LINE
  8
0
 10
371.266
 20
89.9302
 11
371.549
 21
89.4838
  0
LINE
  8
0
 10
371.549
 20
89.4838
 11
372.017
 21
89.146
  0
LINE
  8
0
 10
372.017
 20
89.146
 11
371.721
 21
88.8833
  0
LINE
  8
0
 10
371.721
 20
88.8833
 11
371.548
 21
88.5701
  0
LINE
  8
0
 10
371.548
 20
88.5701
 11
371.492
 21
88.196
  0
LINE
  8
0
 10
371.492
 20
88.196
 11
371.652
 21
87.5439
  0
LINE
  8
0
 10
371.652
 20
87.5439
 11
372.086
 21
87.1048
  0
LINE
  8
0
 10
372.086
 20
87.1048
 11
372.728
 21
86.944
  0
LINE
  8
0
 10
372.728
 20
86.944
 11
373.372
 21
87.1057
  0
LINE
  8
0
 10
1
 20
44.5
 11
1
 21
72.5
  0
LINE
  8
0
 10
1
 20
72.5
 11
14.5
 21
72.5
  0
LINE
  8
0
 10
14.5
 20
72.5
 11
14.5
 21
44.5
  0
LINE
  8
0
 10
14.5
 20
44.5
 11
1
 21
44.5
  0
LINE
  8
0
 10
7.82799
 20
53.45
 11
5.349
 21
53.45
  0
LINE
  8
0
 10
5.349
 20
53.45
 11
6.924
 21
54.976
  0
LINE
  8
0
 10
6.924
 20
54.976
 11
7.46547
 21
55.5603
  0
LINE
  8
0
 10
7.46547
 20
55.5603
 11
7.74718
 21
56.0487
  0
LINE
  8
0
 10
7.74718
 20
56.0487
 11
7.82799
 21
56.543
  0
LINE
  8
0
 10
7.82799
 20
56.543
 11
7.62633
 21
57.3237
  0
LINE
  8
0
 10
7.62633
 20
57.3237
 11
7.08133
 21
57.858
  0
LINE
  8
0
 10
7.08133
 20
57.858
 11
6.28299
 21
58.056
  0
LINE
  8
0
 10
6.28299
 20
58.056
 11
5.65321
 21
57.9395
  0
LINE
  8
0
 10
5.65321
 20
57.9395
 11
5.15744
 21
57.6081
  0
LINE
  8
0
 10
5.15744
 20
57.6081
 11
4.83699
 21
57.089
  0
LINE
  8
0
 10
4.83699
 20
57.089
 11
4.77129
 21
56.8734
  0
LINE
  8
0
 10
4.77129
 20
56.8734
 11
4.73936
 21
56.6539
  0
LINE
  8
0
 10
4.73936
 20
56.6539
 11
4.73099
 21
56.363
  0
LINE
  8
0
 10
4.73099
 20
56.363
 11
5.211
 21
56.363
  0
LINE
  8
0
 10
5.211
 20
56.363
 11
5.22429
 21
56.6384
  0
LINE
  8
0
 10
5.22429
 20
56.6384
 11
5.26537
 21
56.8596
  0
LINE
  8
0
 10
5.26537
 20
56.8596
 11
5.336
 21
57.049
  0
LINE
  8
0
 10
5.336
 20
57.049
 11
5.56036
 21
57.3495
  0
LINE
  8
0
 10
5.56036
 20
57.3495
 11
5.87695
 21
57.5408
  0
LINE
  8
0
 10
5.87695
 20
57.5408
 11
6.26399
 21
57.608
  0
LINE
  8
0
 10
6.26399
 20
57.608
 11
6.80829
 21
57.4725
  0
LINE
  8
0
 10
6.80829
 20
57.4725
 11
7.17903
 21
57.1068
  0
LINE
  8
0
 10
7.17903
 20
57.1068
 11
7.31599
 21
56.572
  0
LINE
  8
0
 10
7.31599
 20
56.572
 11
7.28
 21
56.2869
  0
LINE
  8
0
 10
7.28
 20
56.2869
 11
7.168
 21
56.0138
  0
LINE
  8
0
 10
7.168
 20
56.0138
 11
6.974
 21
55.738
  0
LINE
  8
0
 10
6.974
 20
55.738
 11
6.85588
 21
55.5942
  0
LINE
  8
0
 10
6.85588
 20
55.5942
 11
6.70576
 21
55.4371
  0
LINE
  8
0
 10
6.70576
 20
55.4371
 11
4.69099
 21
53.45
  0
LINE
  8
0
 10
4.69099
 20
53.45
 11
4.69099
 21
53
  0
LINE
  8
0
 10
4.69099
 20
53
 11
7.82799
 21
53
  0
LINE
  8
0
 10
7.82799
 20
53
 11
7.82799
 21
53.45
  0
LINE
  8
0
 10
15.5
 20
44.5
 11
15.5
 21
72.5
  0
LINE
  8
0
 10
15.5
 20
72.5
 11
43.5
 21
72.5
  0
LINE
  8
0
 10
43.5
 20
72.5
 11
43.5
 21
44.5
  0
LINE
  8
0
 10
43.5
 20
44.5
 11
15.5
 21
44.5
  0
LINE
  8
0
 10
44.5
 20
44.5
 11
44.5
 21
72.5
  0
LINE
  8
0
 10
44.5
 20
72.5
 11
72.5
 21
72.5
  0
LINE
  8
0
 10
72.5
 20
72.5
 11
72.5
 21
44.5
  0
LINE
  8
0
 10
72.5
 20
44.5
 11
44.5
 21
44.5
  0
LINE
  8
0
 10
73.5
 20
44.5
 11
73.5
 21
72.5
  0
LINE
  8
0
 10
73.5
 20
72.5
 11
101.5
 21
72.5
  0
LINE
  8
0
 10
101.5
 20
72.5
 11
101.5
 21
44.5
  0
LINE
  8
0
 10
101.5
 20
44.5
 11
73.5
 21
44.5
  0
LINE
  8
0
 10
102.5
 20
44.5
 11
102.5
 21
72.5
  0
LINE
  8
0
 10
102.5
 20
72.5
 11
130.5
 21
72.5
  0
LINE
  8
0
 10
130.5
 20
72.5
 11
130.5
 21
44.5
  0
LINE
  8
0
 10
130.5
 20
44.5
 11
102.5
 21
44.5
  0
LINE
  8
0
 10
131.5
 20
44.5
 11
131.5
 21
72.5
  0
LINE
  8
0
 10
131.5
 20
72.5
 11
159.5
 21
72.5
  0
LINE
  8
0
 10
159.5
 20
72.5
 11
159.5
 21
44.5
  0
LINE
  8
0
 10
159.5
 20
44.5
 11
131.5
 21
44.5
  0
LINE
  8
0
 10
160.5
 20
44.5
 11
160.5
 21
72.5
  0
LINE
  8
0
 10
160.5
 20
72.5
 11
188.5
 21
72.5
  0
LINE
  8
0
 10
188.5
 20
72.5
 11
188.5
 21
44.5
  0
LINE
  8
0
 10
188.5
 20
44.5
 11
160.5
 21
44.5
  0
LINE
  8
0
 10
189.5
 20
44.5
 11
189.5
 21
72.5
  0
LINE
  8
0
 10
189.5
 20
72.5
 11
217.5
 21
72.5
  0
LINE
  8
0
 10
217.5
 20
72.5
 11
217.5
 21
44.5
  0
LINE
  8
0
 10
217.5
 20
44.5
 11
189.5
 21
44.5
  0
LINE
  8
0
 10
218.5
 20
44.5
 11
218.5
 21
72.5
  0
LINE
  8
0
 10
218.5
 20
72.5
 11
246.5
 21
72.5
  0
LINE
  8
0
 10
246.5
 20
72.5
 11
246.5
 21
44.5
  0
LINE
  8
0
 10
246.5
 20
44.5
 11
218.5
 21
44.5
  0
LINE
  8
0
 10
247.5
 20
44.5
 11
247.5
 21
72.5
  0
LINE
  8
0
 10
247.5
 20
72.5
 11
275.5
 21
72.5
  0
LINE
  8
0
 10
275.5
 20
72.5
 11
275.5
 21
44.5
  0
LINE
  8
0
 10
275.5
 20
44.5
 11
247.5
 21
44.5
  0
LINE
  8
0
 10
276.5
 20
44.5
 11
276.5
 21
72.5
  0
LINE
  8
0
 10
276.5
 20
72.5
 11
304.5
 21
72.5
  0
LINE
  8
0
 10
304.5
 20
72.5
 11
304.5
 21
44.5
  0
LINE
  8
0
 10
304.5
 20
44.5
 11
276.5
 21
44.5
  0
LINE
  8
0
 10
305.5
 20
44.5
 11
305.5
 21
72.5
  0
LINE
  8
0
 10
305.5
 20
72.5
 11
333.5
 21
72.5
  0
LINE
  8
0
 10
333.5
 20
72.5
 11
333.5
 21
44.5
  0
LINE
  8
0
 10
333.5
 20
44.5
 11
305.5
 21
44.5
  0
LINE
  8
0
 10
334.5
 20
44.5
 11
334.5
 21
72.5
  0
LINE
  8
0
 10
334.5
 20
72.5
 11
362.5
 21
72.5
  0
LINE
  8
0
 10
362.5
 20
72.5
 11
362.5
 21
44.5
  0
LINE
  8
0
 10
362.5
 20
44.5
 11
334.5
 21
44.5
  0
LINE
  8
0
 10
363.5
 20
44.5
 11
363.5
 21
72.5
  0
LINE
  8
0
 10
363.5
 20
72.5
 11
377
 21
72.5
  0
LINE
  8
0
 10
377
 20
72.5
 11
377
 21
44.5
  0
LINE
  8
0
 10
377
 20
44.5
 11
363.5
 21
44.5
  0
LINE
  8
0
 10
373.347
 20
58.0605
 11
373.843
 21
58.3919
  0
LINE
  8
0
 10
373.843
 20
58.3919
 11
374.163
 21
58.911
  0
LINE
  8
0
 10
374.163
 20
58.911
 11
374.229
 21
59.1266
  0
LINE
  8
0
 10
374.229
 20
59.1266
 11
374.261
 21
59.3461
  0
LINE
  8
0
 10
374.261
 20
59.3461
 11
374.269
 21
59.637
  0
LINE
  8
0
 10
374.269
 20
59.637
 11
373.789
 21
59.637
  0
LINE
  8
0
 10
373.789
 20
59.637
 11
373.776
 21
59.3616
  0
LINE
  8
0
 10
373.776
 20
59.3616
 11
373.735
 21
59.1404
  0
LINE
  8
0
 10
373.735
 20
59.1404
 11
373.664
 21
58.951
  0
LINE
  8
0
 10
373.664
 20
58.951
 11
373.44
 21
58.6505
  0
LINE
  8
0
 10
373.44
 20
58.6505
 11
373.123
 21
58.4592
  0
LINE
  8
0
 10
373.123
 20
58.4592
 11
372.736
 21
58.392
  0
LINE
  8
0
 10
372.736
 20
58.392
 11
372.192
 21
58.5275
  0
LINE
  8
0
 10
372.192
 20
58.5275
 11
371.821
 21
58.8932
  0
LINE
  8
0
 10
371.821
 20
58.8932
 11
371.684
 21
59.428
  0
LINE
  8
0
 10
371.684
 20
59.428
 11
371.72
 21
59.7131
  0
LINE
  8
0
 10
371.72
 20
59.7131
 11
371.832
 21
59.9862
  0
LINE
  8
0
 10
371.832
 20
59.9862
 11
372.026
 21
60.262
  0
LINE
  8
0
 10
372.026
 20
60.262
 11
372.144
 21
60.4058
  0
LINE
  8
0
 10
372.144
 20
60.4058
 11
372.294
 21
60.5629
  0
LINE
  8
0
 10
372.294
 20
60.5629
 11
374.309
 21
62.55
  0
LINE
  8
0
 10
374.309
 20
62.55
 11
374.309
 21
63
  0
LINE
  8
0
 10
374.309
 20
63
 11
371.172
 21
63
  0
LINE
  8
0
 10
371.172
 20
63
 11
371.172
 21
62.55
  0
LINE
  8
0
 10
371.172
 20
62.55
 11
373.651
 21
62.55
  0
LINE
  8
0
 10
373.651
 20
62.55
 11
372.076
 21
61.024
  0
LINE
  8
0
 10
372.076
 20
61.024
 11
371.535
 21
60.4397
  0
LINE
  8
0
 10
371.535
 20
60.4397
 11
371.253
 21
59.9513
  0
LINE
  8
0
 10
371.253
 20
59.9513
 11
371.172
 21
59.457
  0
LINE
  8
0
 10
371.172
 20
59.457
 11
371.374
 21
58.6763
  0
LINE
  8
0
 10
371.374
 20
58.6763
 11
371.919
 21
58.142
  0
LINE
  8
0
 10
371.919
 20
58.142
 11
372.717
 21
57.944
  0
LINE
  8
0
 10
372.717
 20
57.944
 11
373.347
 21
58.0605
  0
LINE
  8
0
 10
1
 20
15.5
 11
1
 21
43.5
  0
LINE
  8
0
 10
1
 20
43.5
 11
14.5
 21
43.5
  0
LINE
  8
0
 10
14.5
 20
43.5
 11
14.5
 21
15.5
  0
LINE
  8
0
 10
14.5
 20
15.5
 11
1
 21
15.5
  0
LINE
  8
0
 10
6.868
 20
28.992
 11
5.52699
 21
28.992
  0
LINE
  8
0
 10
5.52699
 20
28.992
 11
5.52699
 21
28.542
  0
LINE
  8
0
 10
5.52699
 20
28.542
 11
6.35599
 21
28.542
  0
LINE
  8
0
 10
6.35599
 20
28.542
 11
6.35599
 21
24
  0
LINE
  8
0
 10
6.35599
 20
24
 11
6.868
 21
24
  0
LINE
  8
0
 10
6.868
 20
24
 11
6.868
 21
28.992
  0
LINE
  8
0
 10
15.5
 20
15.5
 11
15.5
 21
43.5
  0
LINE
  8
0
 10
15.5
 20
43.5
 11
43.5
 21
43.5
  0
LINE
  8
0
 10
43.5
 20
43.5
 11
43.5
 21
15.5
  0
LINE
  8
0
 10
43.5
 20
15.5
 11
15.5
 21
15.5
  0
LINE
  8
0
 10
44.5
 20
15.5
 11
44.5
 21
43.5
  0
LINE
  8
0
 10
44.5
 20
43.5
 11
72.5
 21
43.5
  0
LINE
  8
0
 10
72.5
 20
43.5
 11
72.5
 21
15.5
  0
LINE
  8
0
 10
72.5
 20
15.5
 11
44.5
 21
15.5
  0
LINE
  8
0
 10
73.5
 20
15.5
 11
73.5
 21
43.5
  0
LINE
  8
0
 10
73.5
 20
43.5
 11
101.5
 21
43.5
  0
LINE
  8
0
 10
101.5
 20
43.5
 11
101.5
 21
15.5
  0
LINE
  8
0
 10
101.5
 20
15.5
 11
73.5
 21
15.5
  0
LINE
  8
0
 10
102.5
 20
15.5
 11
102.5
 21
43.5
  0
LINE
  8
0
 10
102.5
 20
43.5
 11
130.5
 21
43.5
  0
LINE
  8
0
 10
130.5
 20
43.5
 11
130.5
 21
15.5
  0
LINE
  8
0
 10
130.5
 20
15.5
 11
102.5
 21
15.5
  0
LINE
  8
0
 10
131.5
 20
15.5
 11
131.5
 21
43.5
  0
LINE
  8
0
 10
131.5
 20
43.5
 11
159.5
 21
43.5
  0
LINE
  8
0
 10
159.5
 20
43.5
 11
159.5
 21
15.5
  0
LINE
  8
0
 10
159.5
 20
15.5
 11
131.5
 21
15.5
  0
LINE
  8
0
 10
160.5
 20
15.5
 11
160.5
 21
43.5
  0
LINE
  8
0
 10
160.5
 20
43.5
 11
188.5
 21
43.5
  0
LINE
  8
0
 10
188.5
 20
43.5
 11
188.5
 21
15.5
  0
LINE
  8
0
 10
188.5
 20
15.5
 11
160.5
 21
15.5
  0
LINE
  8
0
 10
189.5
 20
15.5
 11
189.5
 21
43.5
  0
LINE
  8
0
 10
189.5
 20
43.5
 11
217.5
 21
43.5
  0
LINE
  8
0
 10
217.5
 20
43.5
 11
217.5
 21
15.5
  0
LINE
  8
0
 10
217.5
 20
15.5
 11
189.5
 21
15.5
  0
LINE
  8
0
 10
218.5
 20
15.5
 11
218.5
 21
43.5
  0
LINE
  8
0
 10
218.5
 20
43.5
 11
246.5
 21
43.5
  0
LINE
  8
0
 10
246.5
 20
43.5
 11
246.5
 21
15.5
  0
LINE
  8
0
 10
246.5
 20
15.5
 11
218.5
 21
15.5
  0
LINE
  8
0
 10
247.5
 20
15.5
 11
247.5
 21
43.5
  0
LINE
  8
0
 10
247.5
 20
43.5
 11
275.5
 21
43.5
  0
LINE
  8
0
 10
275.5
 20
43.5
 11
275.5
 21
15.5
  0
LINE
  8
0
 10
275.5
 20
15.5
 11
247.5
 21
15.5
  0
LINE
  8
0
 10
276.5
 20
15.5
 11
276.5
 21
43.5
  0
LINE
  8
0
 10
276.5
 20
43.5
 11
304.5
 21
43.5
  0
LINE
  8
0
 10
304.5
 20
43.5
 11
304.5
 21
15.5
  0
LINE
  8
0
 10
304.5
 20
15.5
 11
276.5
 21
15.5
  0
LINE
  8
0
 10
305.5
 20
15.5
 11
305.5
 21
43.5
  0
LINE
  8
0
 10
305.5
 20
43.5
 11
333.5
 21
43.5
  0
LINE
  8
0
 10
333.5
 20
43.5
 11
333.5
 21
15.5
  0
LINE
  8
0
 10
333.5
 20
15.5
 11
305.5
 21
15.5
  0
LINE
  8
0
 10
334.5
 20
15.5
 11
334.5
 21
43.5
  0
LINE
  8
0
 10
334.5
 20
43.5
 11
362.5
 21
43.5
  0
LINE
  8
0
 10
362.5
 20
43.5
 11
362.5
 21
15.5
  0
LINE
  8
0
 10
362.5
 20
15.5
 11
334.5
 21
15.5
  0
LINE
  8
0
 10
363.5
 20
15.5
 11
363.5
 21
43.5
  0
LINE
  8
0
 10
363.5
 20
43.5
 11
377
 21
43.5
  0
LINE
  8
0
 10
377
 20
43.5
 11
377
 21
15.5
  0
LINE
  8
0
 10
377
 20
15.5
 11
363.5
 21
15.5
  0
LINE
  8
0
 10
373.473
 20
29.458
 11
372.644
 21
29.458
  0
LINE
  8
0
 10
372.644
 20
29.458
 11
372.644
 21
34
  0
LINE
  8
0
 10
372.644
 20
34
 11
372.132
 21
34
  0
LINE
  8
0
 10
372.132
 20
34
 11
372.132
 21
29.008
  0
LINE
  8
0
 10
372.132
 20
29.008
 11
373.473
 21
29.008
  0
LINE
  8
0
 10
373.473
 20
29.008
 11
373.473
 21
29.458
  0
LINE
  8
0
 10
1
 20
1
 11
1
 21
14.5
  0
LINE
  8
0
 10
1
 20
14.5
 11
14.5
 21
14.5
  0
LINE
  8
0
 10
14.5
 20
14.5
 11
14.5
 21
1
  0
LINE
  8
0
 10
14.5
 20
1
 11
1
 21
1
  0
LINE
  8
0
 10
15.5
 20
1
 11
15.5
 21
14.5
  0
LINE
  8
0
 10
15.5
 20
14.5
 11
43.5
 21
14.5
  0
LINE
  8
0
 10
43.5
 20
14.5
 11
43.5
 21
1
  0
LINE
  8
0
 10
43.5
 20
1
 11
15.5
 21
1
  0
LINE
  8
0
 10
28.796
 20
6.66399
 11
31.059
 21
6.66399
  0
LINE
  8
0
 10
31.059
 20
6.66399
 11
31.763
 21
5
  0
LINE
  8
0
 10
31.763
 20
5
 11
32.296
 21
5
  0
LINE
  8
0
 10
32.296
 20
5
 11
30.204
 21
9.99199
  0
LINE
  8
0
 10
30.204
 20
9.99199
 11
29.658
 21
9.99199
  0
LINE
  8
0
 10
29.658
 20
9.99199
 11
27.572
 21
5
  0
LINE
  8
0
 10
27.572
 20
5
 11
28.086
 21
5
  0
LINE
  8
0
 10
28.086
 20
5
 11
28.796
 21
6.66399
  0
LINE
  8
0
 10
28.98
 20
7.112
 11
29.934
 21
9.42
  0
LINE
  8
0
 10
29.934
 20
9.42
 11
30.868
 21
7.112
  0
LINE
  8
0
 10
30.868
 20
7.112
 11
28.98
 21
7.112
  0
LINE
  8
0
 10
44.5
 20
1
 11
44.5
 21
14.5
  0
LINE
  8
0
 10
44.5
 20
14.5
 11
72.5
 21
14.5
  0
LINE
  8
0
 10
72.5
 20
14.5
 11
72.5
 21
1
  0
LINE
  8
0
 10
72.5
 20
1
 11
44.5
 21
1
  0
LINE
  8
0
 10
58.7881
 20
5.02611
 11
59.2102
 21
5.11021
  0
LINE
  8
0
 10
59.2102
 20
5.11021
 11
59.544
 21
5.26099
  0
LINE
  8
0
 10
59.544
 20
5.26099
 11
59.8342
 21
5.54318
  0
LINE
  8
0
 10
59.8342
 20
5.54318
 11
60.0191
 21
5.9398
  0
LINE
  8
0
 10
60.0191
 20
5.9398
 11
60.084
 21
6.418
  0
LINE
  8
0
 10
60.084
 20
6.418
 11
59.9986
 21
6.94907
  0
LINE
  8
0
 10
59.9986
 20
6.94907
 11
59.7324
 21
7.34926
  0
LINE
  8
0
 10
59.7324
 20
7.34926
 11
59.271
 21
7.63499
  0
LINE
  8
0
 10
59.271
 20
7.63499
 11
59.5874
 21
7.89258
  0
LINE
  8
0
 10
59.5874
 20
7.89258
 11
59.7696
 21
8.2364
  0
LINE
  8
0
 10
59.7696
 20
8.2364
 11
59.828
 21
8.67999
  0
LINE
  8
0
 10
59.828
 20
8.67999
 11
59.7765
 21
9.09148
  0
LINE
  8
0
 10
59.7765
 20
9.09148
 11
59.6281
 21
9.43718
  0
LINE
  8
0
 10
59.6281
 20
9.43718
 11
59.392
 21
9.698
  0
LINE
  8
0
 10
59.392
 20
9.698
 11
59.0802
 21
9.86533
  0
LINE
  8
0
 10
59.0802
 20
9.86533
 11
58.6791
 21
9.96132
  0
LINE
  8
0
 10
58.6791
 20
9.96132
 11
58.156
 21
9.99199
  0
LINE
  8
0
 10
58.156
 20
9.99199
 11
57.012
 21
9.99199
  0
LINE
  8
0
 10
57.012
 20
9.99199
 11
57.012
 21
5
  0
LINE
  8
0
 10
57.012
 20
5
 11
58.229
 21
5
  0
LINE
  8
0
 10
58.229
 20
5
 11
58.7881
 21
5.02611
  0
LINE
  8
0
 10
57.524
 20
7.81599
 11
57.524
 21
9.54199
  0
LINE
  8
0
 10
57.524
 20
9.54199
 11
58.1
 21
9.54199
  0
LINE
  8
0
 10
58.1
 20
9.54199
 11
58.5212
 21
9.52469
  0
LINE
  8
0
 10
58.5212
 20
9.52469
 11
58.8235
 21
9.46762
  0
LINE
  8
0
 10
58.8235
 20
9.46762
 11
59.038
 21
9.36299
  0
LINE
  8
0
 10
59.038
 20
9.36299
 11
59.1847
 21
9.19844
  0
LINE
  8
0
 10
59.1847
 20
9.19844
 11
59.2812
 21
8.95921
  0
LINE
  8
0
 10
59.2812
 20
8.95921
 11
59.316
 21
8.67599
  0
LINE
  8
0
 10
59.316
 20
8.67599
 11
59.2737
 21
8.35699
  0
LINE
  8
0
 10
59.2737
 20
8.35699
 11
59.1493
 21
8.10999
  0
LINE
  8
0
 10
59.1493
 20
8.10999
 11
58.947
 21
7.94699
  0
LINE
  8
0
 10
58.947
 20
7.94699
 11
58.7365
 21
7.86992
  0
LINE
  8
0
 10
58.7365
 20
7.86992
 11
58.4725
 21
7.8284
  0
LINE
  8
0
 10
58.4725
 20
7.8284
 11
58.106
 21
7.81599
  0
LINE
  8
0
 10
58.106
 20
7.81599
 11
57.524
 21
7.81599
  0
LINE
  8
0
 10
57.524
 20
5.45
 11
57.524
 21
7.368
  0
LINE
  8
0
 10
57.524
 20
7.368
 11
58.089
 21
7.368
  0
LINE
  8
0
 10
58.089
 20
7.368
 11
58.5629
 21
7.35391
  0
LINE
  8
0
 10
58.5629
 20
7.35391
 11
58.8951
 21
7.30873
  0
LINE
  8
0
 10
58.8951
 20
7.30873
 11
59.129
 21
7.228
  0
LINE
  8
0
 10
59.129
 20
7.228
 11
59.3692
 21
7.03369
  0
LINE
  8
0
 10
59.3692
 20
7.03369
 11
59.5198
 21
6.75162
  0
LINE
  8
0
 10
59.5198
 20
6.75162
 11
59.572
 21
6.392
  0
LINE
  8
0
 10
59.572
 20
6.392
 11
59.5253
 21
6.06976
  0
LINE
  8
0
 10
59.5253
 20
6.06976
 11
59.396
 21
5.80554
  0
LINE
  8
0
 10
59.396
 20
5.80554
 11
59.2
 21
5.62999
  0
LINE
  8
0
 10
59.2
 20
5.62999
 11
58.9406
 21
5.52689
  0
LINE
  8
0
 10
58.9406
 20
5.52689
 11
58.6027
 21
5.46843
  0
LINE
  8
0
 10
58.6027
 20
5.46843
 11
58.172
 21
5.45
  0
LINE
  8
0
 10
58.172
 20
5.45
 11
57.524
 21
5.45
  0
LINE
  8
0
 10
73.5
 20
1
 11
73.5
 21
14.5
  0
LINE
  8
0
 10
73.5
 20
14.5
 11
101.5
 21
14.5
  0
LINE
  8
0
 10
101.5
 20
14.5
 11
101.5
 21
1
  0
LINE
  8
0
 10
101.5
 20
1
 11
73.5
 21
1
  0
LINE
  8
0
 10
89.293
 20
5.09026
 11
90.039
 21
5.55006
  0
LINE
  8
0
 10
90.039
 20
5.55006
 11
90.615
 21
6.31099
  0
LINE
  8
0
 10
90.615
 20
6.31099
 11
90.075
 21
6.31099
  0
LINE
  8
0
 10
90.075
 20
6.31099
 11
89.8947
 21
6.08884
  0
LINE
  8
0
 10
89.8947
 20
6.08884
 11
89.7422
 21
5.92447
  0
LINE
  8
0
 10
89.7422
 20
5.92447
 11
89.588
 21
5.79099
  0
LINE
  8
0
 10
89.588
 20
5.79099
 11
89.2307
 21
5.56992
  0
LINE
  8
0
 10
89.2307
 20
5.56992
 11
88.8206
 21
5.43173
  0
LINE
  8
0
 10
88.8206
 20
5.43173
 11
88.384
 21
5.38399
  0
LINE
  8
0
 10
88.384
 20
5.38399
 11
87.3524
 21
5.67433
  0
LINE
  8
0
 10
87.3524
 20
5.67433
 11
86.6142
 21
6.43466
  0
LINE
  8
0
 10
86.6142
 20
6.43466
 11
86.332
 21
7.49899
  0
LINE
  8
0
 10
86.332
 20
7.49899
 11
86.6051
 21
8.57733
  0
LINE
  8
0
 10
86.6051
 20
8.57733
 11
87.3329
 21
9.327
  0
LINE
  8
0
 10
87.3329
 20
9.327
 11
88.378
 21
9.60799
  0
LINE
  8
0
 10
88.378
 20
9.60799
 11
88.7886
 21
9.56924
  0
LINE
  8
0
 10
88.7886
 20
9.56924
 11
89.1714
 21
9.45407
  0
LINE
  8
0
 10
89.1714
 20
9.45407
 11
89.516
 21
9.26399
  0
LINE
  8
0
 10
89.516
 20
9.26399
 11
89.7097
 21
9.11159
  0
LINE
  8
0
 10
89.7097
 20
9.11159
 11
89.8773
 21
8.92273
  0
LINE
  8
0
 10
89.8773
 20
8.92273
 11
90.049
 21
8.66499
  0
LINE
  8
0
 10
90.049
 20
8.66499
 11
90.595
 21
8.66499
  0
LINE
  8
0
 10
90.595
 20
8.66499
 11
90.0703
 21
9.40874
  0
LINE
  8
0
 10
90.0703
 20
9.40874
 11
89.2971
 21
9.88692
  0
LINE
  8
0
 10
89.2971
 20
9.88692
 11
88.349
 21
10.056
  0
LINE
  8
0
 10
88.349
 20
10.056
 11
87.048
 21
9.71655
  0
LINE
  8
0
 10
87.048
 20
9.71655
 11
86.153
 21
8.80444
  0
LINE
  8
0
 10
86.153
 20
8.80444
 11
85.82
 21
7.47899
  0
LINE
  8
0
 10
85.82
 20
7.47899
 11
86.16
 21
6.17747
  0
LINE
  8
0
 10
86.16
 20
6.17747
 11
87.0696
 21
5.27419
  0
LINE
  8
0
 10
87.0696
 20
5.27419
 11
88.383
 21
4.936
  0
LINE
  8
0
 10
88.383
 20
4.936
 11
89.293
 21
5.09026
  0
LINE
  8
0
 10
102.5
 20
1
 11
102.5
 21
14.5
  0
LINE
  8
0
 10
102.5
 20
14.5
 11
130.5
 21
14.5
  0
LINE
  8
0
 10
130.5
 20
14.5
 11
130.5
 21
1
  0
LINE
  8
0
 10
130.5
 20
1
 11
102.5
 21
1
  0
LINE
  8
0
 10
116.99
 20
5.03932
 11
117.534
 21
5.16133
  0
LINE
  8
0
 10
117.534
 20
5.16133
 11
117.991
 21
5.37199
  0
LINE
  8
0
 10
117.991
 20
5.37199
 11
118.606
 21
5.90892
  0
LINE
  8
0
 10
118.606
 20
5.90892
 11
118.981
 21
6.6174
  0
LINE
  8
0
 10
118.981
 20
6.6174
 11
119.108
 21
7.47899
  0
LINE
  8
0
 10
119.108
 20
7.47899
 11
118.982
 21
8.34866
  0
LINE
  8
0
 10
118.982
 20
8.34866
 11
118.612
 21
9.06366
  0
LINE
  8
0
 10
118.612
 20
9.06366
 11
118.005
 21
9.59999
  0
LINE
  8
0
 10
118.005
 20
9.59999
 11
117.517
 21
9.82785
  0
LINE
  8
0
 10
117.517
 20
9.82785
 11
116.923
 21
9.95348
  0
LINE
  8
0
 10
116.923
 20
9.95348
 11
116.154
 21
9.99199
  0
LINE
  8
0
 10
116.154
 20
9.99199
 11
115.012
 21
9.99199
  0
LINE
  8
0
 10
115.012
 20
9.99199
 11
115.012
 21
5
  0
LINE
  8
0
 10
115.012
 20
5
 11
116.332
 21
5
  0
LINE
  8
0
 10
116.332
 20
5
 11
116.99
 21
5.03932
  0
LINE
  8
0
 10
115.524
 20
5.45
 11
115.524
 21
9.54199
  0
LINE
  8
0
 10
115.524
 20
9.54199
 11
116.19
 21
9.54199
  0
LINE
  8
0
 10
116.19
 20
9.54199
 11
116.83
 21
9.50885
  0
LINE
  8
0
 10
116.83
 20
9.50885
 11
117.33
 21
9.40347
  0
LINE
  8
0
 10
117.33
 20
9.40347
 11
117.729
 21
9.217
  0
LINE
  8
0
 10
117.729
 20
9.217
 11
118.198
 21
8.78358
  0
LINE
  8
0
 10
118.198
 20
8.78358
 11
118.493
 21
8.19839
  0
LINE
  8
0
 10
118.493
 20
8.19839
 11
118.596
 21
7.49899
  0
LINE
  8
0
 10
118.596
 20
7.49899
 11
118.516
 21
6.87451
  0
LINE
  8
0
 10
118.516
 20
6.87451
 11
118.283
 21
6.33115
  0
LINE
  8
0
 10
118.283
 20
6.33115
 11
117.91
 21
5.896
  0
LINE
  8
0
 10
117.91
 20
5.896
 11
117.483
 21
5.63948
  0
LINE
  8
0
 10
117.483
 20
5.63948
 11
116.928
 21
5.49518
  0
LINE
  8
0
 10
116.928
 20
5.49518
 11
116.19
 21
5.45
  0
LINE
  8
0
 10
116.19
 20
5.45
 11
115.524
 21
5.45
  0
LINE
  8
0
 10
131.5
 20
1
 11
131.5
 21
14.5
  0
LINE
  8
0
 10
131.5
 20
14.5
 11
159.5
 21
14.5
  0
LINE
  8
0
 10
159.5
 20
14.5
 11
159.5
 21
1
  0
LINE
  8
0
 10
159.5
 20
1
 11
131.5
 21
1
  0
LINE
  8
0
 10
146.695
 20
5.45
 11
144.524
 21
5.45
  0
LINE
  8
0
 10
144.524
 20
5.45
 11
144.524
 21
7.30399
  0
LINE
  8
0
 10
144.524
 20
7.30399
 11
146.623
 21
7.30399
  0
LINE
  8
0
 10
146.623
 20
7.30399
 11
146.623
 21
7.752
  0
LINE
  8
0
 10
146.623
 20
7.752
 11
144.524
 21
7.752
  0
LINE
  8
0
 10
144.524
 20
7.752
 11
144.524
 21
9.54199
  0
LINE
  8
0
 10
144.524
 20
9.54199
 11
146.695
 21
9.54199
  0
LINE
  8
0
 10
146.695
 20
9.54199
 11
146.695
 21
9.99199
  0
LINE
  8
0
 10
146.695
 20
9.99199
 11
144.012
 21
9.99199
  0
LINE
  8
0
 10
144.012
 20
9.99199
 11
144.012
 21
5
  0
LINE
  8
0
 10
144.012
 20
5
 11
146.695
 21
5
  0
LINE
  8
0
 10
146.695
 20
5
 11
146.695
 21
5.45
  0
LINE
  8
0
 10
160.5
 20
1
 11
160.5
 21
14.5
  0
LINE
  8
0
 10
160.5
 20
14.5
 11
188.5
 21
14.5
  0
LINE
  8
0
 10
188.5
 20
14.5
 11
188.5
 21
1
  0
LINE
  8
0
 10
188.5
 20
1
 11
160.5
 21
1
  0
LINE
  8
0
 10
173.524
 20
7.23999
 11
175.432
 21
7.23999
  0
LINE
  8
0
 10
175.432
 20
7.23999
 11
175.432
 21
7.68799
  0
LINE
  8
0
 10
175.432
 20
7.68799
 11
173.524
 21
7.68799
  0
LINE
  8
0
 10
173.524
 20
7.68799
 11
173.524
 21
9.54199
  0
LINE
  8
0
 10
173.524
 20
9.54199
 11
175.504
 21
9.54199
  0
LINE
  8
0
 10
175.504
 20
9.54199
 11
175.504
 21
9.99199
  0
LINE
  8
0
 10
175.504
 20
9.99199
 11
173.012
 21
9.99199
  0
LINE
  8
0
 10
173.012
 20
9.99199
 11
173.012
 21
5
  0
LINE
  8
0
 10
173.012
 20
5
 11
173.524
 21
5
  0
LINE
  8
0
 10
173.524
 20
5
 11
173.524
 21
7.23999
  0
LINE
  8
0
 10
189.5
 20
1
 11
189.5
 21
14.5
  0
LINE
  8
0
 10
189.5
 20
14.5
 11
217.5
 21
14.5
  0
LINE
  8
0
 10
217.5
 20
14.5
 11
217.5
 21
1
  0
LINE
  8
0
 10
217.5
 20
1
 11
189.5
 21
1
  0
LINE
  8
0
 10
205.206
 20
5.03229
 11
205.846
 21
5.31436
  0
LINE
  8
0
 10
205.846
 20
5.31436
 11
206.376
 21
5.77199
  0
LINE
  8
0
 10
206.376
 20
5.77199
 11
206.711
 21
6.25117
  0
LINE
  8
0
 10
206.711
 20
6.25117
 11
206.923
 21
6.7628
  0
LINE
  8
0
 10
206.923
 20
6.7628
 11
207.016
 21
7.30399
  0
LINE
  8
0
 10
207.016
 20
7.30399
 11
203.714
 21
7.30399
  0
LINE
  8
0
 10
203.714
 20
7.30399
 11
203.714
 21
6.85599
  0
LINE
  8
0
 10
203.714
 20
6.85599
 11
206.431
 21
6.85599
  0
LINE
  8
0
 10
206.431
 20
6.85599
 11
206.327
 21
6.54692
  0
LINE
  8
0
 10
206.327
 20
6.54692
 11
206.158
 21
6.2574
  0
LINE
  8
0
 10
206.158
 20
6.2574
 11
205.918
 21
5.97499
  0
LINE
  8
0
 10
205.918
 20
5.97499
 11
205.5
 21
5.65155
  0
LINE
  8
0
 10
205.5
 20
5.65155
 11
205.009
 21
5.4521
  0
LINE
  8
0
 10
205.009
 20
5.4521
 11
204.464
 21
5.38399
  0
LINE
  8
0
 10
204.464
 20
5.38399
 11
203.382
 21
5.66811
  0
LINE
  8
0
 10
203.382
 20
5.66811
 11
202.62
 21
6.42088
  0
LINE
  8
0
 10
202.62
 20
6.42088
 11
202.332
 21
7.493
  0
LINE
  8
0
 10
202.332
 20
7.493
 11
202.617
 21
8.57243
  0
LINE
  8
0
 10
202.617
 20
8.57243
 11
203.374
 21
9.32521
  0
LINE
  8
0
 10
203.374
 20
9.32521
 11
204.457
 21
9.60799
  0
LINE
  8
0
 10
204.457
 20
9.60799
 11
205.161
 21
9.4951
  0
LINE
  8
0
 10
205.161
 20
9.4951
 11
205.746
 21
9.17021
  0
LINE
  8
0
 10
205.746
 20
9.17021
 11
206.174
 21
8.65399
  0
LINE
  8
0
 10
206.174
 20
8.65399
 11
206.72
 21
8.65399
  0
LINE
  8
0
 10
206.72
 20
8.65399
 11
206.213
 21
9.39125
  0
LINE
  8
0
 10
206.213
 20
9.39125
 11
205.409
 21
9.87939
  0
LINE
  8
0
 10
205.409
 20
9.87939
 11
204.409
 21
10.056
  0
LINE
  8
0
 10
204.409
 20
10.056
 11
203.092
 21
9.7131
  0
LINE
  8
0
 10
203.092
 20
9.7131
 11
202.168
 21
8.80354
  0
LINE
  8
0
 10
202.168
 20
8.80354
 11
201.82
 21
7.506
  0
LINE
  8
0
 10
201.82
 20
7.506
 11
202.177
 21
6.19704
  0
LINE
  8
0
 10
202.177
 20
6.19704
 11
203.123
 21
5.28096
  0
LINE
  8
0
 10
203.123
 20
5.28096
 11
204.474
 21
4.936
  0
LINE
  8
0
 10
204.474
 20
4.936
 11
205.206
 21
5.03229
  0
LINE
  8
0
 10
218.5
 20
1
 11
218.5
 21
14.5
  0
LINE
  8
0
 10
218.5
 20
14.5
 11
246.5
 21
14.5
  0
LINE
  8
0
 10
246.5
 20
14.5
 11
246.5
 21
1
  0
LINE
  8
0
 10
246.5
 20
1
 11
218.5
 21
1
  0
LINE
  8
0
 10
231.524
 20
7.30399
 11
234.02
 21
7.30399
  0
LINE
  8
0
 10
234.02
 20
7.30399
 11
234.02
 21
5
  0
LINE
  8
0
 10
234.02
 20
5
 11
234.532
 21
5
  0
LINE
  8
0
 10
234.532
 20
5
 11
234.532
 21
9.99199
  0
LINE
  8
0
 10
234.532
 20
9.99199
 11
234.02
 21
9.99199
  0
LINE
  8
0
 10
234.02
 20
9.99199
 11
234.02
 21
7.752
  0
LINE
  8
0
 10
234.02
 20
7.752
 11
231.524
 21
7.752
  0
LINE
  8
0
 10
231.524
 20
7.752
 11
231.524
 21
9.99199
  0
LINE
  8
0
 10
231.524
 20
9.99199
 11
231.012
 21
9.99199
  0
LINE
  8
0
 10
231.012
 20
9.99199
 11
231.012
 21
5
  0
LINE
  8
0
 10
231.012
 20
5
 11
231.524
 21
5
  0
LINE
  8
0
 10
231.524
 20
5
 11
231.524
 21
7.30399
  0
LINE
  8
0
 10
247.5
 20
1
 11
247.5
 21
14.5
  0
LINE
  8
0
 10
247.5
 20
14.5
 11
275.5
 21
14.5
  0
LINE
  8
0
 10
275.5
 20
14.5
 11
275.5
 21
1
  0
LINE
  8
0
 10
275.5
 20
1
 11
247.5
 21
1
  0
LINE
  8
0
 10
260.524
 20
9.99199
 11
260.012
 21
9.99199
  0
LINE
  8
0
 10
260.012
 20
9.99199
 11
260.012
 21
5
  0
LINE
  8
0
 10
260.012
 20
5
 11
260.524
 21
5
  0
LINE
  8
0
 10
260.524
 20
5
 11
260.524
 21
9.99199
  0
LINE
  8
0
 10
276.5
 20
1
 11
276.5
 21
14.5
  0
LINE
  8
0
 10
276.5
 20
14.5
 11
304.5
 21
14.5
  0
LINE
  8
0
 10
304.5
 20
14.5
 11
304.5
 21
1
  0
LINE
  8
0
 10
304.5
 20
1
 11
276.5
 21
1
  0
LINE
  8
0
 10
290.353
 20
5.00922
 11
290.729
 21
5.22577
  0
LINE
  8
0
 10
290.729
 20
5.22577
 11
290.995
 21
5.58099
  0
LINE
  8
0
 10
290.995
 20
5.58099
 11
291.095
 21
5.85469
  0
LINE
  8
0
 10
291.095
 20
5.85469
 11
291.163
 21
6.20796
  0
LINE
  8
0
 10
291.163
 20
6.20796
 11
291.188
 21
6.58099
  0
LINE
  8
0
 10
291.188
 20
6.58099
 11
291.188
 21
9.99199
  0
LINE
  8
0
 10
291.188
 20
9.99199
 11
290.676
 21
9.99199
  0
LINE
  8
0
 10
290.676
 20
9.99199
 11
290.676
 21
6.575
  0
LINE
  8
0
 10
290.676
 20
6.575
 11
290.585
 21
5.91644
  0
LINE
  8
0
 10
290.585
 20
5.91644
 11
290.315
 21
5.51788
  0
LINE
  8
0
 10
290.315
 20
5.51788
 11
289.873
 21
5.38399
  0
LINE
  8
0
 10
289.873
 20
5.38399
 11
289.452
 21
5.4828
  0
LINE
  8
0
 10
289.452
 20
5.4828
 11
289.167
 21
5.76251
  0
LINE
  8
0
 10
289.167
 20
5.76251
 11
289.044
 21
6.198
  0
LINE
  8
0
 10
289.044
 20
6.198
 11
288.564
 21
6.198
  0
LINE
  8
0
 10
288.564
 20
6.198
 11
288.748
 21
5.52058
  0
LINE
  8
0
 10
288.748
 20
5.52058
 11
289.199
 21
5.08807
  0
LINE
  8
0
 10
289.199
 20
5.08807
 11
289.879
 21
4.936
  0
LINE
  8
0
 10
289.879
 20
4.936
 11
290.353
 21
5.00922
  0
LINE
  8
0
 10
305.5
 20
1
 11
305.5
 21
14.5
  0
LINE
  8
0
 10
305.5
 20
14.5
 11
333.5
 21
14.5
  0
LINE
  8
0
 10
333.5
 20
14.5
 11
333.5
 21
1
  0
LINE
  8
0
 10
333.5
 20
1
 11
305.5
 21
1
  0
LINE
  8
0
 10
318.524
 20
6.36499
 11
319.156
 21
7.16199
  0
LINE
  8
0
 10
319.156
 20
7.16199
 11
320.774
 21
5
  0
LINE
  8
0
 10
320.774
 20
5
 11
321.386
 21
5
  0
LINE
  8
0
 10
321.386
 20
5
 11
319.465
 21
7.56
  0
LINE
  8
0
 10
319.465
 20
7.56
 11
321.386
 21
9.99199
  0
LINE
  8
0
 10
321.386
 20
9.99199
 11
320.774
 21
9.99199
  0
LINE
  8
0
 10
320.774
 20
9.99199
 11
318.524
 21
7.12099
  0
LINE
  8
0
 10
318.524
 20
7.12099
 11
318.524
 21
9.99199
  0
LINE
  8
0
 10
318.524
 20
9.99199
 11
318.012
 21
9.99199
  0
LINE
  8
0
 10
318.012
 20
9.99199
 11
318.012
 21
5
  0
LINE
  8
0
 10
318.012
 20
5
 11
318.524
 21
5
  0
LINE
  8
0
 10
318.524
 20
5
 11
318.524
 21
6.36499
  0
LINE
  8
0
 10
334.5
 20
1
 11
334.5
 21
14.5
  0
LINE
  8
0
 10
334.5
 20
14.5
 11
362.5
 21
14.5
  0
LINE
  8
0
 10
362.5
 20
14.5
 11
362.5
 21
1
  0
LINE
  8
0
 10
362.5
 20
1
 11
334.5
 21
1
  0
LINE
  8
0
 10
349.537
 20
5.45
 11
347.524
 21
5.45
  0
LINE
  8
0
 10
347.524
 20
5.45
 11
347.524
 21
9.99199
  0
LINE
  8
0
 10
347.524
 20
9.99199
 11
347.012
 21
9.99199
  0
LINE
  8
0
 10
347.012
 20
9.99199
 11
347.012
 21
5
  0
LINE
  8
0
 10
347.012
 20
5
 11
349.537
 21
5
  0
LINE
  8
0
 10
349.537
 20
5
 11
349.537
 21
5.45
  0
LINE
  8
0
 10
363.5
 20
1
 11
363.5
 21
14.5
  0
LINE
  8
0
 10
363.5
 20
14.5
 11
377
 21
14.5
  0
LINE
  8
0
 10
377
 20
14.5
 11
377
 21
1
  0
LINE
  8
0
 10
377
 20
1
 11
363.5
 21
1
  0
LINE
  8
0
 10
362.5
 20
247.5
 11
334.5
 21
247.5
  0
LINE
  8
0
 10
334.5
 20
247.5
 11
334.5
 21
261
  0
LINE
  8
0
 10
334.5
 20
261
 11
333.5
 21
261
  0
LINE
  8
0
 10
333.5
 20
261
 11
333.5
 21
247.5
  0
LINE
  8
0
 10
333.5
 20
247.5
 11
305.5
 21
247.5
  0
LINE
  8
0
 10
305.5
 20
247.5
 11
305.5
 21
261
  0
LINE
  8
0
 10
305.5
 20
261
 11
304.5
 21
261
  0
LINE
  8
0
 10
304.5
 20
261
 11
304.5
 21
247.5
  0
LINE
  8
0
 10
304.5
 20
247.5
 11
276.5
 21
247.5
  0
LINE
  8
0
 10
276.5
 20
247.5
 11
276.5
 21
261
  0
LINE
  8
0
 10
276.5
 20
261
 11
362.5
 21
261
  0
LINE
  8
0
 10
362.5
 20
261
 11
362.5
 21
247.5
  0
LINE
  8
0
 10
204.908
 20
253.287
 11
205.832
 21
254.196
  0
LINE
  8
0
 10
205.832
 20
254.196
 11
206.18
 21
255.494
  0
LINE
  8
0
 10
206.18
 20
255.494
 11
205.823
 21
256.803
  0
LINE
  8
0
 10
205.823
 20
256.803
 11
204.877
 21
257.719
  0
LINE
  8
0
 10
204.877
 20
257.719
 11
203.526
 21
258.064
  0
LINE
  8
0
 10
203.526
 20
258.064
 11
202.794
 21
257.968
  0
LINE
  8
0
 10
202.794
 20
257.968
 11
202.154
 21
257.686
  0
LINE
  8
0
 10
202.154
 20
257.686
 11
201.624
 21
257.228
  0
LINE
  8
0
 10
201.624
 20
257.228
 11
201.289
 21
256.749
  0
LINE
  8
0
 10
201.289
 20
256.749
 11
201.077
 21
256.237
  0
LINE
  8
0
 10
201.077
 20
256.237
 11
200.984
 21
255.696
  0
LINE
  8
0
 10
200.984
 20
255.696
 11
204.286
 21
255.696
  0
LINE
  8
0
 10
204.286
 20
255.696
 11
204.286
 21
256.144
  0
LINE
  8
0
 10
204.286
 20
256.144
 11
201.569
 21
256.144
  0
LINE
  8
0
 10
201.569
 20
256.144
 11
201.673
 21
256.453
  0
LINE
  8
0
 10
201.673
 20
256.453
 11
201.842
 21
256.743
  0
LINE
  8
0
 10
201.842
 20
256.743
 11
202.082
 21
257.025
  0
LINE
  8
0
 10
202.082
 20
257.025
 11
202.5
 21
257.348
  0
LINE
  8
0
 10
202.5
 20
257.348
 11
202.991
 21
257.548
  0
LINE
  8
0
 10
202.991
 20
257.548
 11
203.536
 21
257.616
  0
LINE
  8
0
 10
203.536
 20
257.616
 11
204.618
 21
257.332
  0
LINE
  8
0
 10
204.618
 20
257.332
 11
205.38
 21
256.579
  0
LINE
  8
0
 10
205.38
 20
256.579
 11
205.668
 21
255.507
  0
LINE
  8
0
 10
205.668
 20
255.507
 11
205.383
 21
254.428
  0
LINE
  8
0
 10
205.383
 20
254.428
 11
204.626
 21
253.675
  0
LINE
  8
0
 10
204.626
 20
253.675
 11
203.543
 21
253.392
  0
LINE
  8
0
 10
203.543
 20
253.392
 11
202.839
 21
253.505
  0
LINE
  8
0
 10
202.839
 20
253.505
 11
202.254
 21
253.83
  0
LINE
  8
0
 10
202.254
 20
253.83
 11
201.826
 21
254.346
  0
LINE
  8
0
 10
201.826
 20
254.346
 11
201.28
 21
254.346
  0
LINE
  8
0
 10
201.28
 20
254.346
 11
201.787
 21
253.609
  0
LINE
  8
0
 10
201.787
 20
253.609
 11
202.591
 21
253.121
  0
LINE
  8
0
 10
202.591
 20
253.121
 11
203.591
 21
252.944
  0
LINE
  8
0
 10
203.591
 20
252.944
 11
204.908
 21
253.287
  0
LINE
  8
0
 10
88.952
 20
253.283
 11
89.847
 21
254.196
  0
LINE
  8
0
 10
89.847
 20
254.196
 11
90.18
 21
255.521
  0
LINE
  8
0
 10
90.18
 20
255.521
 11
89.84
 21
256.823
  0
LINE
  8
0
 10
89.84
 20
256.823
 11
88.9304
 21
257.726
  0
LINE
  8
0
 10
88.9304
 20
257.726
 11
87.617
 21
258.064
  0
LINE
  8
0
 10
87.617
 20
258.064
 11
86.707
 21
257.91
  0
LINE
  8
0
 10
86.707
 20
257.91
 11
85.961
 21
257.45
  0
LINE
  8
0
 10
85.961
 20
257.45
 11
85.385
 21
256.689
  0
LINE
  8
0
 10
85.385
 20
256.689
 11
85.925
 21
256.689
  0
LINE
  8
0
 10
85.925
 20
256.689
 11
86.1053
 21
256.911
  0
LINE
  8
0
 10
86.1053
 20
256.911
 11
86.2578
 21
257.076
  0
LINE
  8
0
 10
86.2578
 20
257.076
 11
86.412
 21
257.209
  0
LINE
  8
0
 10
86.412
 20
257.209
 11
86.7693
 21
257.43
  0
LINE
  8
0
 10
86.7693
 20
257.43
 11
87.1794
 21
257.568
  0
LINE
  8
0
 10
87.1794
 20
257.568
 11
87.616
 21
257.616
  0
LINE
  8
0
 10
87.616
 20
257.616
 11
88.6476
 21
257.326
  0
LINE
  8
0
 10
88.6476
 20
257.326
 11
89.3858
 21
256.565
  0
LINE
  8
0
 10
89.3858
 20
256.565
 11
89.668
 21
255.501
  0
LINE
  8
0
 10
89.668
 20
255.501
 11
89.3949
 21
254.423
  0
LINE
  8
0
 10
89.3949
 20
254.423
 11
88.6671
 21
253.673
  0
LINE
  8
0
 10
88.6671
 20
253.673
 11
87.622
 21
253.392
  0
LINE
  8
0
 10
87.622
 20
253.392
 11
87.2114
 21
253.431
  0
LINE
  8
0
 10
87.2114
 20
253.431
 11
86.8286
 21
253.546
  0
LINE
  8
0
 10
86.8286
 20
253.546
 11
86.484
 21
253.736
  0
LINE
  8
0
 10
86.484
 20
253.736
 11
86.2903
 21
253.888
  0
LINE
  8
0
 10
86.2903
 20
253.888
 11
86.1227
 21
254.077
  0
LINE
  8
0
 10
86.1227
 20
254.077
 11
85.951
 21
254.335
  0
LINE
  8
0
 10
85.951
 20
254.335
 11
85.405
 21
254.335
  0
LINE
  8
0
 10
85.405
 20
254.335
 11
85.9297
 21
253.591
  0
LINE
  8
0
 10
85.9297
 20
253.591
 11
86.7029
 21
253.113
  0
LINE
  8
0
 10
86.7029
 20
253.113
 11
87.651
 21
252.944
  0
LINE
  8
0
 10
87.651
 20
252.944
 11
88.952
 21
253.283
  0
LINE
  8
0
 10
291.324
 20
256.425
 11
291.415
 21
257.084
  0
LINE
  8
0
 10
291.415
 20
257.084
 11
291.685
 21
257.482
  0
LINE
  8
0
 10
291.685
 20
257.482
 11
292.127
 21
257.616
  0
LINE
  8
0
 10
292.127
 20
257.616
 11
292.548
 21
257.517
  0
LINE
  8
0
 10
292.548
 20
257.517
 11
292.833
 21
257.237
  0
LINE
  8
0
 10
292.833
 20
257.237
 11
292.956
 21
256.802
  0
LINE
  8
0
 10
292.956
 20
256.802
 11
293.436
 21
256.802
  0
LINE
  8
0
 10
293.436
 20
256.802
 11
293.252
 21
257.479
  0
LINE
  8
0
 10
293.252
 20
257.479
 11
292.801
 21
257.912
  0
LINE
  8
0
 10
292.801
 20
257.912
 11
292.121
 21
258.064
  0
LINE
  8
0
 10
292.121
 20
258.064
 11
291.647
 21
257.991
  0
LINE
  8
0
 10
291.647
 20
257.991
 11
291.271
 21
257.774
  0
LINE
  8
0
 10
291.271
 20
257.774
 11
291.005
 21
257.419
  0
LINE
  8
0
 10
291.005
 20
257.419
 11
290.905
 21
257.145
  0
LINE
  8
0
 10
290.905
 20
257.145
 11
290.837
 21
256.792
  0
LINE
  8
0
 10
290.837
 20
256.792
 11
290.812
 21
256.419
  0
LINE
  8
0
 10
290.812
 20
256.419
 11
290.812
 21
253.008
  0
LINE
  8
0
 10
290.812
 20
253.008
 11
291.324
 21
253.008
  0
LINE
  8
0
 10
291.324
 20
253.008
 11
291.324
 21
256.425
  0
LINE
  8
0
 10
32.428
 20
258
 11
31.914
 21
258
  0
LINE
  8
0
 10
31.914
 20
258
 11
31.204
 21
256.336
  0
LINE
  8
0
 10
31.204
 20
256.336
 11
28.941
 21
256.336
  0
LINE
  8
0
 10
28.941
 20
256.336
 11
28.237
 21
258
  0
LINE
  8
0
 10
28.237
 20
258
 11
27.704
 21
258
  0
LINE
  8
0
 10
27.704
 20
258
 11
29.796
 21
253.008
  0
LINE
  8
0
 10
29.796
 20
253.008
 11
30.342
 21
253.008
  0
LINE
  8
0
 10
30.342
 20
253.008
 11
32.428
 21
258
  0
LINE
  8
0
 10
29.132
 20
255.888
 11
31.02
 21
255.888
  0
LINE
  8
0
 10
31.02
 20
255.888
 11
30.066
 21
253.58
  0
LINE
  8
0
 10
30.066
 20
253.58
 11
29.132
 21
255.888
  0
LINE
  8
0
 10
60.988
 20
258
 11
59.771
 21
258
  0
LINE
  8
0
 10
59.771
 20
258
 11
59.2119
 21
257.974
  0
LINE
  8
0
 10
59.2119
 20
257.974
 11
58.7898
 21
257.89
  0
LINE
  8
0
 10
58.7898
 20
257.89
 11
58.456
 21
257.739
  0
LINE
  8
0
 10
58.456
 20
257.739
 11
58.1658
 21
257.457
  0
LINE
  8
0
 10
58.1658
 20
257.457
 11
57.9809
 21
257.06
  0
LINE
  8
0
 10
57.9809
 20
257.06
 11
57.916
 21
256.582
  0
LINE
  8
0
 10
57.916
 20
256.582
 11
58.0014
 21
256.051
  0
LINE
  8
0
 10
58.0014
 20
256.051
 11
58.2676
 21
255.651
  0
LINE
  8
0
 10
58.2676
 20
255.651
 11
58.729
 21
255.365
  0
LINE
  8
0
 10
58.729
 20
255.365
 11
58.4126
 21
255.107
  0
LINE
  8
0
 10
58.4126
 20
255.107
 11
58.2304
 21
254.764
  0
LINE
  8
0
 10
58.2304
 20
254.764
 11
58.172
 21
254.32
  0
LINE
  8
0
 10
58.172
 20
254.32
 11
58.2235
 21
253.909
  0
LINE
  8
0
 10
58.2235
 20
253.909
 11
58.3719
 21
253.563
  0
LINE
  8
0
 10
58.3719
 20
253.563
 11
58.608
 21
253.302
  0
LINE
  8
0
 10
58.608
 20
253.302
 11
58.9198
 21
253.135
  0
LINE
  8
0
 10
58.9198
 20
253.135
 11
59.3209
 21
253.039
  0
LINE
  8
0
 10
59.3209
 20
253.039
 11
59.844
 21
253.008
  0
LINE
  8
0
 10
59.844
 20
253.008
 11
60.988
 21
253.008
  0
LINE
  8
0
 10
60.988
 20
253.008
 11
60.988
 21
258
  0
LINE
  8
0
 10
59.911
 20
255.632
 11
59.4371
 21
255.646
  0
LINE
  8
0
 10
59.4371
 20
255.646
 11
59.1049
 21
255.691
  0
LINE
  8
0
 10
59.1049
 20
255.691
 11
58.871
 21
255.772
  0
LINE
  8
0
 10
58.871
 20
255.772
 11
58.6308
 21
255.966
  0
LINE
  8
0
 10
58.6308
 20
255.966
 11
58.4802
 21
256.248
  0
LINE
  8
0
 10
58.4802
 20
256.248
 11
58.428
 21
256.608
  0
LINE
  8
0
 10
58.428
 20
256.608
 11
58.4747
 21
256.93
  0
LINE
  8
0
 10
58.4747
 20
256.93
 11
58.604
 21
257.194
  0
LINE
  8
0
 10
58.604
 20
257.194
 11
58.8
 21
257.37
  0
LINE
  8
0
 10
58.8
 20
257.37
 11
59.0594
 21
257.473
  0
LINE
  8
0
 10
59.0594
 20
257.473
 11
59.3973
 21
257.532
  0
LINE
  8
0
 10
59.3973
 20
257.532
 11
59.828
 21
257.55
  0
LINE
  8
0
 10
59.828
 20
257.55
 11
60.476
 21
257.55
  0
LINE
  8
0
 10
60.476
 20
257.55
 11
60.476
 21
255.632
  0
LINE
  8
0
 10
60.476
 20
255.632
 11
59.911
 21
255.632
  0
LINE
  8
0
 10
59.9
 20
253.458
 11
59.4788
 21
253.475
  0
LINE
  8
0
 10
59.4788
 20
253.475
 11
59.1765
 21
253.532
  0
LINE
  8
0
 10
59.1765
 20
253.532
 11
58.962
 21
253.637
  0
LINE
  8
0
 10
58.962
 20
253.637
 11
58.8153
 21
253.802
  0
LINE
  8
0
 10
58.8153
 20
253.802
 11
58.7188
 21
254.041
  0
LINE
  8
0
 10
58.7188
 20
254.041
 11
58.684
 21
254.324
  0
LINE
  8
0
 10
58.684
 20
254.324
 11
58.7263
 21
254.643
  0
LINE
  8
0
 10
58.7263
 20
254.643
 11
58.8507
 21
254.89
  0
LINE
  8
0
 10
58.8507
 20
254.89
 11
59.053
 21
255.053
  0
LINE
  8
0
 10
59.053
 20
255.053
 11
59.2635
 21
255.13
  0
LINE
  8
0
 10
59.2635
 20
255.13
 11
59.5275
 21
255.172
  0
LINE
  8
0
 10
59.5275
 20
255.172
 11
59.894
 21
255.184
  0
LINE
  8
0
 10
59.894
 20
255.184
 11
60.476
 21
255.184
  0
LINE
  8
0
 10
60.476
 20
255.184
 11
60.476
 21
253.458
  0
LINE
  8
0
 10
60.476
 20
253.458
 11
59.9
 21
253.458
  0
LINE
  8
0
 10
118.988
 20
258
 11
117.668
 21
258
  0
LINE
  8
0
 10
117.668
 20
258
 11
117.01
 21
257.961
  0
LINE
  8
0
 10
117.01
 20
257.961
 11
116.466
 21
257.839
  0
LINE
  8
0
 10
116.466
 20
257.839
 11
116.009
 21
257.628
  0
LINE
  8
0
 10
116.009
 20
257.628
 11
115.394
 21
257.091
  0
LINE
  8
0
 10
115.394
 20
257.091
 11
115.019
 21
256.383
  0
LINE
  8
0
 10
115.019
 20
256.383
 11
114.892
 21
255.521
  0
LINE
  8
0
 10
114.892
 20
255.521
 11
115.018
 21
254.651
  0
LINE
  8
0
 10
115.018
 20
254.651
 11
115.388
 21
253.936
  0
LINE
  8
0
 10
115.388
 20
253.936
 11
115.995
 21
253.4
  0
LINE
  8
0
 10
115.995
 20
253.4
 11
116.483
 21
253.172
  0
LINE
  8
0
 10
116.483
 20
253.172
 11
117.077
 21
253.047
  0
LINE
  8
0
 10
117.077
 20
253.047
 11
117.846
 21
253.008
  0
LINE
  8
0
 10
117.846
 20
253.008
 11
118.988
 21
253.008
  0
LINE
  8
0
 10
118.988
 20
253.008
 11
118.988
 21
258
  0
LINE
  8
0
 10
117.81
 20
253.458
 11
117.17
 21
253.491
  0
LINE
  8
0
 10
117.17
 20
253.491
 11
116.67
 21
253.597
  0
LINE
  8
0
 10
116.67
 20
253.597
 11
116.271
 21
253.783
  0
LINE
  8
0
 10
116.271
 20
253.783
 11
115.802
 21
254.216
  0
LINE
  8
0
 10
115.802
 20
254.216
 11
115.507
 21
254.802
  0
LINE
  8
0
 10
115.507
 20
254.802
 11
115.404
 21
255.501
  0
LINE
  8
0
 10
115.404
 20
255.501
 11
115.484
 21
256.125
  0
LINE
  8
0
 10
115.484
 20
256.125
 11
115.717
 21
256.669
  0
LINE
  8
0
 10
115.717
 20
256.669
 11
116.09
 21
257.104
  0
LINE
  8
0
 10
116.09
 20
257.104
 11
116.517
 21
257.361
  0
LINE
  8
0
 10
116.517
 20
257.361
 11
117.072
 21
257.505
  0
LINE
  8
0
 10
117.072
 20
257.505
 11
117.81
 21
257.55
  0
LINE
  8
0
 10
117.81
 20
257.55
 11
118.476
 21
257.55
  0
LINE
  8
0
 10
118.476
 20
257.55
 11
118.476
 21
253.458
  0
LINE
  8
0
 10
118.476
 20
253.458
 11
117.81
 21
253.458
  0
LINE
  8
0
 10
147.988
 20
258
 11
145.305
 21
258
  0
LINE
  8
0
 10
145.305
 20
258
 11
145.305
 21
257.55
  0
LINE
  8
0
 10
145.305
 20
257.55
 11
147.476
 21
257.55
  0
LINE
  8
0
 10
147.476
 20
257.55
 11
147.476
 21
255.696
  0
LINE
  8
0
 10
147.476
 20
255.696
 11
145.377
 21
255.696
  0
LINE
  8
0
 10
145.377
 20
255.696
 11
145.377
 21
255.248
  0
LINE
  8
0
 10
145.377
 20
255.248
 11
147.476
 21
255.248
  0
LINE
  8
0
 10
147.476
 20
255.248
 11
147.476
 21
253.458
  0
LINE
  8
0
 10
147.476
 20
253.458
 11
145.305
 21
253.458
  0
LINE
  8
0
 10
145.305
 20
253.458
 11
145.305
 21
253.008
  0
LINE
  8
0
 10
145.305
 20
253.008
 11
147.988
 21
253.008
  0
LINE
  8
0
 10
147.988
 20
253.008
 11
147.988
 21
258
  0
LINE
  8
0
 10
263.988
 20
258
 11
263.476
 21
258
  0
LINE
  8
0
 10
263.476
 20
258
 11
263.476
 21
253.008
  0
LINE
  8
0
 10
263.476
 20
253.008
 11
263.988
 21
253.008
  0
LINE
  8
0
 10
263.988
 20
253.008
 11
263.988
 21
258
  0
LINE
  8
0
 10
176.988
 20
258
 11
176.476
 21
258
  0
LINE
  8
0
 10
176.476
 20
258
 11
176.476
 21
255.76
  0
LINE
  8
0
 10
176.476
 20
255.76
 11
174.568
 21
255.76
  0
LINE
  8
0
 10
174.568
 20
255.76
 11
174.568
 21
255.312
  0
LINE
  8
0
 10
174.568
 20
255.312
 11
176.476
 21
255.312
  0
LINE
  8
0
 10
176.476
 20
255.312
 11
176.476
 21
253.458
  0
LINE
  8
0
 10
176.476
 20
253.458
 11
174.496
 21
253.458
  0
LINE
  8
0
 10
174.496
 20
253.458
 11
174.496
 21
253.008
  0
LINE
  8
0
 10
174.496
 20
253.008
 11
176.988
 21
253.008
  0
LINE
  8
0
 10
176.988
 20
253.008
 11
176.988
 21
258
  0
LINE
  8
0
 10
231.98
 20
255.248
 11
234.476
 21
255.248
  0
LINE
  8
0
 10
234.476
 20
255.248
 11
234.476
 21
253.008
  0
LINE
  8
0
 10
234.476
 20
253.008
 11
234.988
 21
253.008
  0
LINE
  8
0
 10
234.988
 20
253.008
 11
234.988
 21
258
  0
LINE
  8
0
 10
234.988
 20
258
 11
234.476
 21
258
  0
LINE
  8
0
 10
234.476
 20
258
 11
234.476
 21
255.696
  0
LINE
  8
0
 10
234.476
 20
255.696
 11
231.98
 21
255.696
  0
LINE
  8
0
 10
231.98
 20
255.696
 11
231.98
 21
258
  0
LINE
  8
0
 10
231.98
 20
258
 11
231.468
 21
258
  0
LINE
  8
0
 10
231.468
 20
258
 11
231.468
 21
253.008
  0
LINE
  8
0
 10
231.468
 20
253.008
 11
231.98
 21
253.008
  0
LINE
  8
0
 10
231.98
 20
253.008
 11
231.98
 21
255.248
  0
LINE
  8
0
 10
321.476
 20
255.879
 11
321.476
 21
253.008
  0
LINE
  8
0
 10
321.476
 20
253.008
 11
321.988
 21
253.008
  0
LINE
  8
0
 10
321.988
 20
253.008
 11
321.988
 21
258
  0
LINE
  8
0
 10
321.988
 20
258
 11
321.476
 21
258
  0
LINE
  8
0
 10
321.476
 20
258
 11
321.476
 21
256.635
  0
LINE
  8
0
 10
321.476
 20
256.635
 11
320.844
 21
255.838
  0
LINE
  8
0
 10
320.844
 20
255.838
 11
319.226
 21
258
  0
LINE
  8
0
 10
319.226
 20
258
 11
318.614
 21
258
  0
LINE
  8
0
 10
318.614
 20
258
 11
320.535
 21
255.44
  0
LINE
  8
0
 10
320.535
 20
255.44
 11
318.614
 21
253.008
  0
LINE
  8
0
 10
318.614
 20
253.008
 11
319.226
 21
253.008
  0
LINE
  8
0
 10
319.226
 20
253.008
 11
321.476
 21
255.879
  0
LINE
  8
0
 10
350.988
 20
258
 11
348.463
 21
258
  0
LINE
  8
0
 10
348.463
 20
258
 11
348.463
 21
257.55
  0
LINE
  8
0
 10
348.463
 20
257.55
 11
350.476
 21
257.55
  0
LINE
  8
0
 10
350.476
 20
257.55
 11
350.476
 21
253.008
  0
LINE
  8
0
 10
350.476
 20
253.008
 11
350.988
 21
253.008
  0
LINE
  8
0
 10
350.988
 20
253.008
 11
350.988
 21
258
  0
ENDSEC
  0
SECTION
  2
OBJECTS
  0
DICTIONARY
  0
ENDSEC
  0
EOF
