<?xml version="1.0" encoding="UTF-8" standalone="no"?>
<!-- Created with Inkscape (http://www.inkscape.org/) -->

<svg
   xmlns:dc="http://purl.org/dc/elements/1.1/"
   xmlns:cc="http://creativecommons.org/ns#"
   xmlns:rdf="http://www.w3.org/1999/02/22-rdf-syntax-ns#"
   xmlns:svg="http://www.w3.org/2000/svg"
   xmlns="http://www.w3.org/2000/svg"
   xmlns:sodipodi="http://sodipodi.sourceforge.net/DTD/sodipodi-0.dtd"
   xmlns:inkscape="http://www.inkscape.org/namespaces/inkscape"
   width="106.82111mm"
   height="74.083328mm"
   viewBox="0 0 378.50001 262.49998"
   id="svg2"
   version="1.1"
   inkscape:version="0.91 r13725"
   sodipodi:docname="courier_12x8_checkered.svg">
  <defs
     id="defs4" />
  <sodipodi:namedview
     id="base"
     pagecolor="#ffffff"
     bordercolor="#666666"
     borderopacity="1.0"
     inkscape:pageopacity="0.0"
     inkscape:pageshadow="2"
     inkscape:zoom="1.979899"
     inkscape:cx="137.10886"
     inkscape:cy="134.74512"
     inkscape:document-units="px"
     inkscape:current-layer="layer1"
     showgrid="false"
     fit-margin-top="0"
     fit-margin-left="0"
     fit-margin-right="0"
     fit-margin-bottom="0"
     inkscape:window-width="1920"
     inkscape:window-height="1054"
     inkscape:window-x="0"
     inkscape:window-y="0"
     inkscape:window-maximized="1" />
  <metadata
     id="metadata7">
    <rdf:RDF>
      <cc:Work
         rdf:about="">
        <dc:format>image/svg+xml</dc:format>
        <dc:type
           rdf:resource="http://purl.org/dc/dcmitype/StillImage" />
        <dc:title></dc:title>
      </cc:Work>
    </rdf:RDF>
  </metadata>
  <g
     inkscape:label="Layer 1"
     inkscape:groupmode="layer"
     id="layer1"
     transform="translate(360.67857,-929.68363)">
    <path
       id="path4190"
       d="m -112.92857,944.43363 0,-13.5 -1,0 0,13.5 -28,0 0,-13.5 -1,0 0,13.5 -28,0 0,-13.5 -1,0 0,13.5 -28,0 0,-13.5 -1,0 0,13.5 -28,0 0,-13.5 -1,0 0,13.5 -28,0 0,-13.5 -1,0 0,13.5 -28,0 0,-13.5 -1,0 0,13.5 -28,0 0,-13.5 -1,0 0,13.5 -28,0 0,-13.5 -1,0 0,13.5 -13.5,0 0,-13.5 -1,0 0,260.99997 377.999999,0 0,-260.99997 -1,0 0,13.5 -13.5000004,0 0,-13.5 13.5000004,0 0,-1 -376.999999,0 0,1 275.499999,0 0,13.5 z m -246.5,29 0,-28 13.5,0 0,28 z m 6.14577,-8.634 0.54512,-0.537 0.20111,-0.787 -0.0996,-0.547 -0.29074,-0.433 -0.46962,-0.305 0.33969,-0.236 0.19926,-0.333 0.065,-0.441 -0.17034,-0.674 -0.46032,-0.459 -0.67434,-0.17 -0.67529,0.172 -0.46841,0.463 -0.1753,0.668 0.031,0.28 0.089,0.255 0.141,0.216 0.0842,0.09 0.10223,0.079 0.14356,0.09 -0.4636,0.322 -0.28581,0.441 -0.0976,0.542 0.21014,0.77 0.56303,0.533 0.81482,0.199 z m -1.22237,-2.921 -0.29149,-0.3 -0.10792,-0.438 0.10385,-0.423 0.28163,-0.287 0.41452,-0.105 0.41452,0.107 0.28163,0.292 0.10385,0.43 -0.10289,0.428 -0.27488,0.296 -0.39623,0.111 z m -0.14355,2.534 -0.37471,-0.375 -0.13715,-0.554 0.13715,-0.543 0.37336,-0.368 0.55249,-0.135 0.54308,0.135 0.36952,0.368 0.1364,0.543 -0.13484,0.551 -0.36664,0.376 -0.54152,0.139 z m 9.72015,9.021 0,-28 28,0 0,28 z m 29,0 0,-28 28,0 0,28 z m 29,0 0,-28 28,0 0,28 z m 29,0 0,-28 28,0 0,28 z m 29,0 0,-28 28,0 0,28 z m 29,0 0,-28 28,0 0,28 z m 29,0 0,-28 28,0 0,28 z m 29,0 0,-28 28,0 0,28 z m 29,0 0,-28 27.999999,0 0,28 z m 28.999999,0 0,-28 28,0 0,28 z m 29,0 0,-28 28,0 0,28 z m 29,0 0,-28 27.9999996,0 0,28 z m 28.9999996,0 0,-28 13.5000004,0 0,28 z m 9.8440004,-13.616 0.469,-0.463 0.175,-0.668 -0.031,-0.28 -0.089,-0.255 -0.141,-0.216 -0.084,-0.09 -0.102,-0.079 -0.144,-0.09 0.464,-0.322 0.285,-0.441 0.098,-0.542 -0.21,-0.77 -0.563,-0.533 -0.815,-0.199 -0.802,0.198 -0.545,0.537 -0.201,0.787 0.1,0.547 0.29,0.433 0.47,0.305 -0.34,0.236 -0.199,0.333 -0.065,0.441 0.17,0.674 0.461,0.459 0.674,0.17 z m -1.218,-2.523 -0.37,-0.368 -0.136,-0.543 0.135,-0.551 0.366,-0.376 0.542,-0.139 0.557,0.137 0.375,0.375 0.137,0.554 -0.137,0.543 -0.374,0.368 -0.552,0.135 z m 0.135,2.14 -0.281,-0.292 -0.104,-0.43 0.103,-0.428 0.275,-0.296 0.396,-0.111 0.427,0.111 0.291,0.3 0.108,0.438 -0.104,0.423 -0.281,0.287 -0.415,0.105 z m -371.260999,42.99897 0,-27.99997 13.5,0 0,27.99997 z m 6.724,-13.04197 0,-0.45 -2.80301,0 0,0.45 2.30301,0 -2,4.542 0.513,0 z m 7.776,13.04197 0,-27.99997 28,0 0,27.99997 z m 29,0 0,-27.99997 28,0 0,27.99997 z m 29,0 0,-27.99997 28,0 0,27.99997 z m 29,0 0,-27.99997 28,0 0,27.99997 z m 29,0 0,-27.99997 28,0 0,27.99997 z m 29,0 0,-27.99997 28,0 0,27.99997 z m 29,0 0,-27.99997 28,0 0,27.99997 z m 29,0 0,-27.99997 28,0 0,27.99997 z m 29,0 0,-27.99997 27.999999,0 0,27.99997 z m 28.999999,0 0,-27.99997 28,0 0,27.99997 z m 29,0 0,-27.99997 28,0 0,27.99997 z m 29,0 0,-27.99997 27.9999996,0 0,27.99997 z m 28.9999996,0 0,-27.99997 13.5000004,0 0,27.99997 z m 10.5790004,-13.95797 -2.303,0 2,-4.542 -0.513,0 -1.987,4.542 0,0.45 2.803,0 z m -373.078999,42.95797 0,-28 13.5,0 0,28 z m 6.22488,-8.666 0.58022,-0.62 0.21489,-0.905 -0.20921,-0.864 -0.55257,-0.607 -0.78322,-0.23 -0.19073,0.014 -0.18186,0.045 -0.1994,0.081 1.12599,-1.74 -0.55,0 -1.207,1.829 -0.35526,0.593 -0.17682,0.456 -0.0479,0.45 0.22238,0.887 0.59659,0.613 0.86503,0.228 z m -1.45259,-0.388 -0.41426,-0.46 -0.15404,-0.67 0.15511,-0.642 0.41245,-0.449 0.59045,-0.169 0.59355,0.166 0.40355,0.449 0.1489,0.658 -0.14841,0.664 -0.40019,0.455 -0.5844,0.168 z m 9.72771,9.054 0,-28 28,0 0,28 z m 29,0 0,-28 28,0 0,28 z m 29,0 0,-28 28,0 0,28 z m 29,0 0,-28 28,0 0,28 z m 29,0 0,-28 28,0 0,28 z m 29,0 0,-28 28,0 0,28 z m 29,0 0,-28 28,0 0,28 z m 29,0 0,-28 28,0 0,28 z m 29,0 0,-28 27.999999,0 0,28 z m 28.999999,0 0,-28 28,0 0,28 z m 29,0 0,-28 28,0 0,28 z m 29,0 0,-28 27.9999996,0 0,28 z m 28.9999996,0 0,-28 13.5000004,0 0,28 z m 10.2280004,-15.337 0.355,-0.593 0.177,-0.456 0.048,-0.45 -0.222,-0.887 -0.597,-0.613 -0.865,-0.228 -0.849,0.23 -0.58,0.62 -0.215,0.905 0.209,0.864 0.553,0.607 0.783,0.23 0.191,-0.014 0.182,-0.045 0.199,-0.081 -1.126,1.74 0.55,0 z m -1.684,-0.385 -0.403,-0.449 -0.149,-0.658 0.148,-0.664 0.401,-0.455 0.584,-0.168 0.603,0.17 0.414,0.46 0.154,0.67 -0.155,0.642 -0.413,0.449 -0.59,0.169 z m -371.043999,44.722 0,-28 13.5,0 0,28 z m 6.21155,-8.67 0.58688,-0.62 0.22156,-0.881 -0.21829,-0.875 -0.58008,-0.614 -0.82962,-0.232 -0.28215,0.024 -0.27504,0.075 -0.28682,0.135 0.23601,-1.384 1.80699,0 0,-0.45 -2.19499,0 -0.43401,2.457 0.375,0.147 0.30774,-0.311 0.33418,-0.184 0.36508,-0.061 0.59378,0.169 0.41445,0.453 0.15578,0.651 -0.15712,0.655 -0.41578,0.459 -0.59111,0.173 -0.5583,-0.153 -0.41206,-0.418 -0.20764,-0.622 -0.474,0 0.0444,0.273 0.0506,0.2 0.071,0.183 0.37445,0.526 0.52177,0.339 0.62178,0.12 z m 8.28845,8.67 0,-28 28,0 0,28 z m 29,0 0,-28 28,0 0,28 z m 29,0 0,-28 28,0 0,28 z m 29,0 0,-28 28,0 0,28 z m 29,0 0,-28 28,0 0,28 z m 29,0 0,-28 28,0 0,28 z m 29,0 0,-28 28,0 0,28 z m 29,0 0,-28 28,0 0,28 z m 29,0 0,-28 27.999999,0 0,28 z m 28.999999,0 0,-28 28,0 0,28 z m 29,0 0,-28 28,0 0,28 z m 29,0 0,-28 27.9999996,0 0,28 z m 28.9999996,0 0,-28 13.5000004,0 0,28 z m 10.5380004,-15.965 -0.375,-0.147 -0.308,0.311 -0.334,0.184 -0.365,0.061 -0.594,-0.169 -0.414,-0.453 -0.156,-0.651 0.157,-0.655 0.416,-0.459 0.591,-0.173 0.558,0.153 0.412,0.418 0.208,0.622 0.474,0 -0.044,-0.273 -0.051,-0.2 -0.071,-0.183 -0.374,-0.526 -0.522,-0.339 -0.622,-0.12 -0.836,0.234 -0.586,0.62 -0.222,0.881 0.218,0.875 0.58,0.614 0.83,0.232 0.282,-0.024 0.275,-0.075 0.287,-0.135 -0.236,1.384 -1.807,0 0,0.45 2.195,0 z m -373.037999,44.965 0,-28 13.5,0 0,28 z m 6.57199,-9.396 0.44701,0 0,-0.448 -0.44701,0 0,-3.648 -0.604,0 -2.368,3.648 0,0.448 2.46001,0 0,0.896 0.51199,0 z m -2.41299,-0.448 1.901,-2.955 0,2.955 z m 10.341,9.844 0,-28 28,0 0,28 z m 29,0 0,-28 28,0 0,28 z m 29,0 0,-28 28,0 0,28 z m 29,0 0,-28 28,0 0,28 z m 29,0 0,-28 28,0 0,28 z m 29,0 0,-28 28,0 0,28 z m 29,0 0,-28 28,0 0,28 z m 29,0 0,-28 28,0 0,28 z m 29,0 0,-28 27.999999,0 0,28 z m 28.999999,0 0,-28 28,0 0,28 z m 29,0 0,-28 28,0 0,28 z m 29,0 0,-28 27.9999996,0 0,28 z m 28.9999996,0 0,-28 13.5000004,0 0,28 z m 10.9000004,-17.156 0,-0.448 -2.46,0 0,-0.896 -0.512,0 0,0.896 -0.447,0 0,0.448 0.447,0 0,3.648 0.604,0 z m -2.46,0 1.901,0 -1.901,2.955 z m -370.939999,46.156 0,-28 13.5,0 0,28 z m 6.07214,-8.6494 0.54871,-0.5659 0.20714,-0.8067 -0.0944,-0.5478 -0.28218,-0.4464 -0.46841,-0.3378 0.29567,-0.2627 0.173,-0.3132 0.0563,-0.3741 -0.15957,-0.6521 -0.43421,-0.4391 -0.64223,-0.1608 -0.64426,0.1617 -0.42848,0.4546 -0.17026,0.7017 0.48,0 0.0922,-0.4696 0.25423,-0.2968 0.40355,-0.1036 0.38397,0.1003 0.25841,0.2744 0.0946,0.4083 -0.10225,0.4099 -0.28649,0.2699 -0.44026,0.097 -0.0708,0 -0.0542,0 -0.112,-0.01 0,0.442 0.26119,0.01 0.17163,0.012 0.13318,0.02 0.42814,0.2191 0.28705,0.3795 0.10481,0.4864 -0.14114,0.5676 -0.37471,0.3951 -0.53514,0.148 -0.34842,-0.057 -0.30019,-0.1636 -0.2384,-0.2619 -0.0966,-0.1838 -0.0597,-0.2194 -0.0346,-0.2998 -0.48001,0 0.0299,0.3275 0.0683,0.2773 0.11384,0.2522 0.34705,0.4154 0.47058,0.2665 0.55437,0.094 z m 8.42786,8.6494 0,-28 28,0 0,28 z m 29,0 0,-28 28,0 0,28 z m 29,0 0,-28 28,0 0,28 z m 29,0 0,-28 28,0 0,28 z m 29,0 0,-28 28,0 0,28 z m 29,0 0,-28 28,0 0,28 z m 29,0 0,-28 28,0 0,28 z m 29,0 0,-28 28,0 0,28 z m 29,0 0,-28 27.999999,0 0,28 z m 28.999999,0 0,-28 28,0 0,28 z m 29,0 0,-28 28,0 0,28 z m 29,0 0,-28 27.9999996,0 0,28 z m 28.9999996,0 0,-28 13.5000004,0 0,28 z m 9.8720004,-13.6057 0.429,-0.4546 0.17,-0.7017 -0.48,0 -0.092,0.4696 -0.254,0.2968 -0.404,0.1036 -0.384,-0.1003 -0.258,-0.2744 -0.095,-0.4083 0.102,-0.4099 0.287,-0.2699 0.44,-0.097 0.071,0 0.054,0 0.112,0.01 0,-0.442 -0.261,-0.01 -0.172,-0.012 -0.133,-0.02 -0.428,-0.2191 -0.287,-0.3795 -0.105,-0.4864 0.141,-0.5676 0.375,-0.3951 0.535,-0.1483 0.348,0.057 0.301,0.1636 0.238,0.2619 0.097,0.1838 0.059,0.2194 0.035,0.2998 0.48,0 -0.03,-0.3275 -0.068,-0.2773 -0.114,-0.2522 -0.347,-0.4154 -0.471,-0.2665 -0.554,-0.094 -0.781,0.2134 -0.549,0.5659 -0.207,0.8067 0.094,0.5478 0.283,0.4464 0.468,0.3378 -0.296,0.2627 -0.173,0.3132 -0.056,0.3741 0.16,0.6521 0.434,0.4391 0.642,0.1608 z m -372.371999,42.6057 0,-28 13.5,0 0,28 z m 6.82799,-8.95 -2.47899,0 1.575,-1.526 0.54147,-0.5843 0.28171,-0.4884 0.0808,-0.4943 -0.20166,-0.7807 -0.545,-0.5343 -0.79834,-0.198 -0.62978,0.1165 -0.49577,0.3314 -0.32045,0.5191 -0.0657,0.2156 -0.0319,0.2195 -0.008,0.2909 0.48001,0 0.0133,-0.2754 0.0411,-0.2212 0.0706,-0.1894 0.22436,-0.3005 0.31659,-0.1913 0.38704,-0.067 0.5443,0.1355 0.37074,0.3657 0.13696,0.5348 -0.036,0.2851 -0.112,0.2731 -0.194,0.2758 -0.11812,0.1438 -0.15012,0.1571 -2.01477,1.9871 0,0.45 3.137,0 z m 7.67201,8.95 0,-28 28,0 0,28 z m 29,0 0,-28 28,0 0,28 z m 29,0 0,-28 28,0 0,28 z m 29,0 0,-28 28,0 0,28 z m 29,0 0,-28 28,0 0,28 z m 29,0 0,-28 28,0 0,28 z m 29,0 0,-28 28,0 0,28 z m 29,0 0,-28 28,0 0,28 z m 29,0 0,-28 27.999999,0 0,28 z m 28.999999,0 0,-28 28,0 0,28 z m 29,0 0,-28 28,0 0,28 z m 29,0 0,-28 27.9999996,0 0,28 z m 28.9999996,0 0,-28 13.5000004,0 0,28 z m 9.8470004,-13.5605 0.496,-0.3314 0.32,-0.5191 0.066,-0.2156 0.032,-0.2195 0.008,-0.2909 -0.48,0 -0.013,0.2754 -0.041,0.2212 -0.071,0.1894 -0.224,0.3005 -0.317,0.1913 -0.387,0.067 -0.544,-0.1355 -0.371,-0.3657 -0.137,-0.5348 0.036,-0.2851 0.112,-0.2731 0.194,-0.2758 0.118,-0.1438 0.15,-0.1571 2.015,-1.9871 0,-0.45 -3.137,0 0,0.45 2.479,0 -1.575,1.526 -0.541,0.5843 -0.282,0.4884 -0.081,0.4943 0.202,0.7807 0.545,0.5343 0.798,0.198 z m -372.346999,42.5605 0,-28 13.5,0 0,28 z m 5.868,-13.492 -1.34101,0 0,0.45 0.829,0 0,4.542 0.51201,0 z m 8.632,13.492 0,-28 28,0 0,28 z m 29,0 0,-28 28,0 0,28 z m 29,0 0,-28 28,0 0,28 z m 29,0 0,-28 28,0 0,28 z m 29,0 0,-28 28,0 0,28 z m 29,0 0,-28 28,0 0,28 z m 29,0 0,-28 28,0 0,28 z m 29,0 0,-28 28,0 0,28 z m 29,0 0,-28 27.999999,0 0,28 z m 28.999999,0 0,-28 28,0 0,28 z m 29,0 0,-28 28,0 0,28 z m 29,0 0,-28 27.9999996,0 0,28 z m 28.9999996,0 0,-28 13.5000004,0 0,28 z m 9.9730004,-13.958 -0.829,0 0,-4.542 -0.512,0 0,4.992 1.341,0 z m -372.472999,28.458 0,-13.5 13.5,0 0,13.5 z m 14.5,0 0,-13.5 28,0 0,13.5 z m 13.296,-5.664 2.263,0 0.704,1.664 0.533,0 -2.092,-4.992 -0.546,0 -2.086,4.992 0.514,0 z m 0.184,-0.448 0.954,-2.308 0.934,2.308 z m 15.52,6.112 0,-13.5 28,0 0,13.5 z m 14.2881,-4.0261 0.4221,-0.084 0.3338,-0.1508 0.2902,-0.2821 0.1849,-0.3967 0.0649,-0.4782 -0.0854,-0.531 -0.2662,-0.4002 -0.4614,-0.2858 0.3164,-0.2575 0.1822,-0.3439 0.0584,-0.4436 -0.0515,-0.4114 -0.1484,-0.3457 -0.2361,-0.2609 -0.3118,-0.1673 -0.4011,-0.096 -0.5231,-0.031 -1.144,0 0,4.992 1.217,0 z m -1.2641,-2.7899 0,-1.726 0.576,0 0.4212,0.017 0.3023,0.057 0.2145,0.1047 0.1467,0.1645 0.0965,0.2393 0.0348,0.2832 -0.0423,0.319 -0.1244,0.247 -0.2023,0.163 -0.2105,0.077 -0.264,0.042 -0.3665,0.012 z m 0,2.366 0,-1.918 0.565,0 0.4739,0.014 0.3322,0.045 0.2339,0.081 0.2402,0.1943 0.1506,0.2821 0.0522,0.3596 -0.0467,0.3223 -0.1293,0.2642 -0.196,0.1755 -0.2594,0.1031 -0.3379,0.059 -0.4307,0.018 z m 15.976,4.45 0,-13.5 28,0 0,13.5 z m 15.793,-4.0902 0.746,-0.4598 0.576,-0.761 -0.54,0 -0.1803,0.2222 -0.1525,0.1644 -0.1542,0.1334 -0.3573,0.2211 -0.4101,0.1382 -0.4366,0.048 -1.0316,-0.2903 -0.7382,-0.7604 -0.2822,-1.0643 0.2731,-1.0783 0.7278,-0.7497 1.0451,-0.281 0.4106,0.039 0.3828,0.1152 0.3446,0.1901 0.1937,0.1524 0.1676,0.1888 0.1717,0.2578 0.546,0 -0.5247,-0.7438 -0.7732,-0.4782 -0.9481,-0.1691 -1.301,0.3395 -0.895,0.9121 -0.333,1.3255 0.34,1.3015 0.9096,0.9033 1.3134,0.3381 z m 13.207,4.0902 0,-13.5 28,0 0,13.5 z m 14.49,-4.0393 0.544,-0.122 0.457,-0.2107 0.615,-0.5369 0.375,-0.7085 0.127,-0.8616 -0.126,-0.8696 -0.37,-0.715 -0.607,-0.5364 -0.488,-0.2278 -0.594,-0.1256 -0.769,-0.038 -1.142,0 0,4.9919 1.32,0 z m -1.466,-0.4107 0,-4.092 0.666,0 0.64,0.033 0.5,0.1054 0.399,0.1865 0.469,0.4334 0.295,0.5852 0.103,0.6994 -0.08,0.6245 -0.233,0.5433 -0.373,0.4352 -0.427,0.2565 -0.555,0.1443 -0.738,0.045 z m 15.976,4.45 0,-13.5 28,0 0,13.5 z m 15.195,-4.45 -2.171,0 0,-1.854 2.099,0 0,-0.448 -2.099,0 0,-1.79 2.171,0 0,-0.45 -2.683,0 0,4.992 2.683,0 z m 13.805,4.45 0,-13.5 28,0 0,13.5 z m 13.024,-6.24 1.908,0 0,-0.448 -1.908,0 0,-1.854 1.98,0 0,-0.45 -2.492,0 0,4.992 0.512,0 z m 15.976,6.24 0,-13.5 28,0 0,13.5 z m 15.706,-4.0323 0.64,-0.282 0.53,-0.4577 0.335,-0.4791 0.212,-0.5117 0.093,-0.5412 -3.302,0 0,0.448 2.717,0 -0.104,0.3091 -0.169,0.2895 -0.24,0.2824 -0.418,0.3235 -0.491,0.1994 -0.545,0.068 -1.082,-0.2841 -0.762,-0.7528 -0.288,-1.0721 0.285,-1.0794 0.757,-0.7528 1.083,-0.2828 0.704,0.1129 0.585,0.3249 0.428,0.5162 0.546,0 -0.507,-0.7372 -0.804,-0.4882 -1,-0.1766 -1.317,0.3429 -0.924,0.9096 -0.348,1.2975 0.357,1.309 0.946,0.9161 1.351,0.3449 z m 13.294,4.0323 0,-13.5 28,0 0,13.5 z m 13.024,-6.304 2.496,0 0,2.304 0.512,0 0,-4.992 -0.512,0 0,2.24 -2.496,0 0,-2.24 -0.512,0 0,4.992 0.512,0 z m 15.976,6.304 0,-13.5 27.999999,0 0,13.5 z m 13.023999,-8.992 -0.511999,0 0,4.992 0.511999,0 z m 15.976,8.992 0,-13.5 28,0 0,13.5 z m 13.853,-4.0092 0.376,-0.2165 0.266,-0.3553 0.1,-0.2737 0.068,-0.3532 0.025,-0.3731 0,-3.411 -0.512,0 0,3.417 -0.091,0.6586 -0.27,0.3986 -0.442,0.1338 -0.421,-0.099 -0.285,-0.2797 -0.123,-0.4355 -0.48,0 0.184,0.6775 0.451,0.4325 0.68,0.152 z m 15.147,4.0092 0,-13.5 28,0 0,13.5 z m 13.024,-5.365 0.632,-0.797 1.618,2.162 0.612,0 -1.921,-2.56 1.921,-2.432 -0.612,0 -2.25,2.871 0,-2.871 -0.512,0 0,4.992 0.512,0 z m 15.976,5.365 0,-13.5 27.9999996,0 0,13.5 z m 15.037,-4.45 -2.013,0 0,-4.542 -0.512,0 0,4.992 2.525,0 z m 13.9629996,4.45 0,-13.5 13.5000004,0 0,13.5 z m -1,-246.49997 -27.9999996,0 0,-13.5 -1,0 0,13.5 -28,0 0,-13.5 -1,0 0,13.5 -28,0 0,-13.5 85.9999996,0 z m -157.5919986,-5.787 0.924,-0.909 0.348,-1.298 -0.357,-1.309 -0.946,-0.916 -1.351,-0.345 -0.732,0.096 -0.64,0.282 -0.53,0.458 -0.335,0.479 -0.212,0.512 -0.093,0.541 3.302,0 0,-0.448 -2.717,0 0.104,-0.309 0.169,-0.29 0.24,-0.282 0.418,-0.323 0.491,-0.2 0.545,-0.068 1.082,0.284 0.762,0.753 0.288,1.072 -0.285,1.079 -0.757,0.753 -1.083,0.283 -0.704,-0.113 -0.585,-0.325 -0.428,-0.516 -0.546,0 0.507,0.737 0.804,0.488 1,0.177 z m -115.956,0.004 0.895,-0.913 0.333,-1.325 -0.34,-1.302 -0.9096,-0.903 -1.3134,-0.338 -0.91,0.154 -0.746,0.46 -0.576,0.761 0.54,0 0.1803,-0.222 0.1525,-0.165 0.1542,-0.133 0.3573,-0.221 0.4101,-0.138 0.4366,-0.048 1.0316,0.29 0.7382,0.761 0.2822,1.064 -0.2731,1.078 -0.7278,0.75 -1.0451,0.281 -0.4106,-0.039 -0.3828,-0.115 -0.3446,-0.19 -0.1937,-0.152 -0.1676,-0.189 -0.1717,-0.258 -0.546,0 0.5247,0.744 0.7732,0.478 0.9481,0.169 z m 202.371999,-3.142 0.091,-0.659 0.27,-0.398 0.442,-0.134 0.421,0.099 0.285,0.28 0.123,0.435 0.48,0 -0.184,-0.677 -0.451,-0.433 -0.68,-0.152 -0.474,0.073 -0.376,0.217 -0.266,0.355 -0.1,0.274 -0.068,0.353 -0.025,0.373 0,3.411 0.512,0 z m -258.895999,-1.575 -0.514,0 -0.71,1.664 -2.263,0 -0.704,-1.664 -0.533,0 2.092,4.992 0.546,0 z m -3.296,2.112 1.888,0 -0.954,2.308 z m 31.856,-2.112 -1.217,0 -0.5591,0.026 -0.4221,0.084 -0.3338,0.151 -0.2902,0.282 -0.1849,0.397 -0.0649,0.478 0.0854,0.531 0.2662,0.4 0.4614,0.286 -0.3164,0.258 -0.1822,0.343 -0.0584,0.444 0.0515,0.411 0.1484,0.346 0.2361,0.261 0.3118,0.167 0.4011,0.096 0.5231,0.031 1.144,0 z m -1.077,2.368 -0.4739,-0.014 -0.3322,-0.045 -0.2339,-0.081 -0.2402,-0.194 -0.1506,-0.282 -0.0522,-0.36 0.0467,-0.322 0.1293,-0.264 0.196,-0.176 0.2594,-0.103 0.3379,-0.059 0.4307,-0.018 0.648,0 0,1.918 z m -0.011,2.174 -0.4212,-0.017 -0.3023,-0.057 -0.2145,-0.105 -0.1467,-0.165 -0.0965,-0.239 -0.0348,-0.283 0.0423,-0.319 0.1244,-0.247 0.2023,-0.163 0.2105,-0.077 0.264,-0.042 0.3665,-0.012 0.582,0 0,1.726 z m 59.088,-4.542 -1.32,0 -0.658,0.039 -0.544,0.122 -0.457,0.211 -0.615,0.537 -0.375,0.708 -0.127,0.862 0.126,0.87 0.37,0.715 0.607,0.536 0.488,0.228 0.594,0.125 0.769,0.039 1.142,0 z m -1.178,4.542 -0.64,-0.033 -0.5,-0.106 -0.399,-0.186 -0.469,-0.433 -0.295,-0.586 -0.103,-0.699 0.08,-0.624 0.233,-0.544 0.373,-0.435 0.427,-0.257 0.555,-0.144 0.738,-0.045 0.666,0 0,4.092 z m 30.178,-4.542 -2.683,0 0,0.45 2.171,0 0,1.854 -2.099,0 0,0.448 2.099,0 0,1.79 -2.171,0 0,0.45 2.683,0 z m 115.999999,0 -0.512,0 0,4.992 0.512,0 z m -86.999999,0 -0.512,0 0,2.24 -1.908,0 0,0.448 1.908,0 0,1.854 -1.98,0 0,0.45 2.492,0 z m 54.992,2.752 2.496,0 0,2.24 0.512,0 0,-4.992 -0.512,0 0,2.304 -2.496,0 0,-2.304 -0.512,0 0,4.992 0.512,0 z m 89.495999,-0.631 0,2.871 0.512,0 0,-4.992 -0.512,0 0,1.365 -0.632,0.797 -1.618,-2.162 -0.612,0 1.921,2.56 -1.921,2.432 0.612,0 z m 29.5119996,-2.121 -2.5249996,0 0,0.45 2.0129996,0 0,4.542 0.512,0 z"
       inkscape:connector-curvature="0"
       style="fill:#000000;stroke:#000000;stroke-width:0.5" />
    <path
       style="opacity:1;fill:#000000;fill-opacity:1;stroke:#000000;stroke-width:0.50507629;stroke-opacity:1"
       d="m 16.395632,232.81072 0,-13.63706 13.384521,0 13.384522,0 0,13.63706 0,13.63706 -13.384522,0 -13.384521,0 0,-13.63706 z"
       id="path4199"
       inkscape:connector-curvature="0"
       transform="translate(-360.67857,929.68363)" />
    <path
       style="opacity:1;fill:#000000;fill-opacity:1;stroke:#000000;stroke-width:0.50507629;stroke-opacity:1"
       d="m 45.18498,203.76884 0,-13.38452 13.637059,0 13.637059,0 0,13.38452 0,13.38452 -13.637059,0 -13.637059,0 0,-13.38452 z"
       id="path4201"
       inkscape:connector-curvature="0"
       transform="translate(-360.67857,929.68363)" />
    <path
       style="opacity:1;fill:#000000;fill-opacity:1;stroke:#000000;stroke-width:0.50507629;stroke-opacity:1"
       d="m 74.479403,174.72695 0,-13.63706 13.384522,0 13.384525,0 0,13.63706 0,13.63706 -13.384525,0 -13.384522,0 0,-13.63706 z"
       id="path4203"
       inkscape:connector-curvature="0"
       transform="translate(-360.67857,929.68363)" />
    <path
       style="opacity:1;fill:#000000;fill-opacity:1;stroke:#000000;stroke-width:0.50507629;stroke-opacity:1"
       d="m 103.26875,145.68507 0,-13.38452 13.38452,0 13.38452,0 0,13.38452 0,13.38452 -13.38452,0 -13.38452,0 0,-13.38452 z"
       id="path4205"
       inkscape:connector-curvature="0"
       transform="translate(-360.67857,929.68363)" />
    <path
       style="opacity:1;fill:#000000;fill-opacity:1;stroke:#000000;stroke-width:0.50507629;stroke-opacity:1"
       d="m 132.0581,116.64318 0,-13.63706 13.63706,0 13.63706,0 0,13.63706 0,13.63706 -13.63706,0 -13.63706,0 0,-13.63706 z"
       id="path4207"
       inkscape:connector-curvature="0"
       transform="translate(-360.67857,929.68363)" />
    <path
       style="opacity:1;fill:#000000;fill-opacity:1;stroke:#000000;stroke-width:0.50507629;stroke-opacity:1"
       d="m 161.35252,87.853834 0,-13.63706 13.38452,0 13.38452,0 0,13.63706 0,13.637056 -13.38452,0 -13.38452,0 0,-13.637056 z"
       id="path4209"
       inkscape:connector-curvature="0"
       transform="translate(-360.67857,929.68363)" />
    <path
       style="opacity:1;fill:#000000;fill-opacity:1;stroke:#000000;stroke-width:0.50507629;stroke-opacity:1"
       d="m 190.14187,58.811948 0,-13.384521 13.63706,0 13.63706,0 0,13.384521 0,13.384521 -13.63706,0 -13.63706,0 0,-13.384521 z"
       id="path4211"
       inkscape:connector-curvature="0"
       transform="translate(-360.67857,929.68363)" />
    <path
       style="opacity:1;fill:#000000;fill-opacity:1;stroke:#000000;stroke-width:0.50507629;stroke-opacity:1"
       d="m 219.43629,29.770062 0,-13.637059 13.38453,0 13.38452,0 0,13.637059 0,13.63706 -13.38452,0 -13.38453,0 0,-13.63706 z"
       id="path4213"
       inkscape:connector-curvature="0"
       transform="translate(-360.67857,929.68363)" />
    <path
       style="opacity:1;fill:#000000;fill-opacity:1;stroke:#000000;stroke-width:0.50507629;stroke-opacity:1"
       d="m 248.22564,58.811948 0,-13.384521 13.63706,0 13.63706,0 0,13.384521 0,13.384521 -13.63706,0 -13.63706,0 0,-13.384521 z"
       id="path4215"
       inkscape:connector-curvature="0"
       transform="translate(-360.67857,929.68363)" />
    <path
       style="opacity:1;fill:#000000;fill-opacity:1;stroke:#000000;stroke-width:0.50507629;stroke-opacity:1"
       d="m 277.01499,87.853834 0,-13.63706 13.63706,0 13.63706,0 0,13.63706 0,13.637056 -13.63706,0 -13.63706,0 0,-13.637056 z"
       id="path4217"
       inkscape:connector-curvature="0"
       transform="translate(-360.67857,929.68363)" />
    <path
       style="opacity:1;fill:#000000;fill-opacity:1;stroke:#000000;stroke-width:0.50507629;stroke-opacity:1"
       d="m 306.30941,116.64318 0,-13.63706 13.38452,0 13.38453,0 0,13.63706 0,13.63706 -13.38453,0 -13.38452,0 0,-13.63706 z"
       id="path4219"
       inkscape:connector-curvature="0"
       transform="translate(-360.67857,929.68363)" />
    <path
       style="opacity:1;fill:#000000;fill-opacity:1;stroke:#000000;stroke-width:0.50507629;stroke-opacity:1"
       d="m 335.09876,145.68507 0,-13.38452 13.63706,0 13.63706,0 0,13.38452 0,13.38452 -13.63706,0 -13.63706,0 0,-13.38452 z"
       id="path4221"
       inkscape:connector-curvature="0"
       transform="translate(-360.67857,929.68363)" />
    <path
       style="opacity:1;fill:#000000;fill-opacity:1;stroke:#000000;stroke-width:0.50507629;stroke-opacity:1"
       d="m 306.30941,174.72695 0,-13.63706 13.38452,0 13.38453,0 0,13.63706 0,13.63706 -13.38453,0 -13.38452,0 0,-13.63706 z"
       id="path4223"
       inkscape:connector-curvature="0"
       transform="translate(-360.67857,929.68363)" />
    <path
       style="opacity:1;fill:#000000;fill-opacity:1;stroke:#000000;stroke-width:0.50507629;stroke-opacity:1"
       d="m 277.01499,203.76884 0,-13.38452 13.63706,0 13.63706,0 0,13.38452 0,13.38452 -13.63706,0 -13.63706,0 0,-13.38452 z"
       id="path4225"
       inkscape:connector-curvature="0"
       transform="translate(-360.67857,929.68363)" />
    <path
       style="opacity:1;fill:#000000;fill-opacity:1;stroke:#000000;stroke-width:0.50507629;stroke-opacity:1"
       d="m 248.22564,232.81072 0,-13.63706 13.63706,0 13.63706,0 0,13.63706 0,13.63706 -13.63706,0 -13.63706,0 0,-13.63706 z"
       id="path4227"
       inkscape:connector-curvature="0"
       transform="translate(-360.67857,929.68363)" />
    <path
       style="opacity:1;fill:#000000;fill-opacity:1;stroke:#000000;stroke-width:0.50507629;stroke-opacity:1"
       d="m 219.43629,203.76884 0,-13.38452 13.38453,0 13.38452,0 0,13.38452 0,13.38452 -13.38452,0 -13.38453,0 0,-13.38452 z"
       id="path4229"
       inkscape:connector-curvature="0"
       transform="translate(-360.67857,929.68363)" />
    <path
       style="opacity:1;fill:#000000;fill-opacity:1;stroke:#000000;stroke-width:0.50507629;stroke-opacity:1"
       d="m 190.14187,174.72695 0,-13.63706 13.63706,0 13.63706,0 0,13.63706 0,13.63706 -13.63706,0 -13.63706,0 0,-13.63706 z"
       id="path4231"
       inkscape:connector-curvature="0"
       transform="translate(-360.67857,929.68363)" />
    <path
       style="opacity:1;fill:#000000;fill-opacity:1;stroke:#000000;stroke-width:0.50507629;stroke-opacity:1"
       d="m 161.35252,145.68507 0,-13.38452 13.38452,0 13.38452,0 0,13.38452 0,13.38452 -13.38452,0 -13.38452,0 0,-13.38452 z"
       id="path4233"
       inkscape:connector-curvature="0"
       transform="translate(-360.67857,929.68363)" />
    <path
       style="opacity:1;fill:#000000;fill-opacity:1;stroke:#000000;stroke-width:0.50507629;stroke-opacity:1"
       d="m 103.26875,87.853834 0,-13.63706 13.38452,0 13.38452,0 0,13.63706 0,13.637056 -13.38452,0 -13.38452,0 0,-13.637056 z"
       id="path4235"
       inkscape:connector-curvature="0"
       transform="translate(-360.67857,929.68363)" />
    <path
       style="opacity:1;fill:#000000;fill-opacity:1;stroke:#000000;stroke-width:0.50507629;stroke-opacity:1"
       d="m 74.479403,58.811948 0,-13.384521 13.384522,0 13.384525,0 0,13.384521 0,13.384521 -13.384525,0 -13.384522,0 0,-13.384521 z"
       id="path4237"
       inkscape:connector-curvature="0"
       transform="translate(-360.67857,929.68363)" />
    <path
       style="opacity:1;fill:#000000;fill-opacity:1;stroke:#000000;stroke-width:0.50507629;stroke-opacity:1"
       d="m 45.18498,29.770062 0,-13.637059 13.637059,0 13.637059,0 0,13.637059 0,13.63706 -13.637059,0 -13.637059,0 0,-13.63706 z"
       id="path4239"
       inkscape:connector-curvature="0"
       transform="translate(-360.67857,929.68363)" />
    <path
       style="opacity:1;fill:#000000;fill-opacity:1;stroke:#000000;stroke-width:0.50507629;stroke-opacity:1"
       d="m 16.395632,58.811948 0,-13.384521 13.384521,0 13.384522,0 0,13.384521 0,13.384521 -13.384522,0 -13.384521,0 0,-13.384521 z"
       id="path4241"
       inkscape:connector-curvature="0"
       transform="translate(-360.67857,929.68363)" />
    <path
       style="opacity:1;fill:#000000;fill-opacity:1;stroke:#000000;stroke-width:0.50507629;stroke-opacity:1"
       d="m 45.18498,87.853834 0,-13.63706 13.637059,0 13.637059,0 0,13.63706 0,13.637056 -13.637059,0 -13.637059,0 0,-13.637056 z"
       id="path4243"
       inkscape:connector-curvature="0"
       transform="translate(-360.67857,929.68363)" />
    <path
       style="opacity:1;fill:#000000;fill-opacity:1;stroke:#000000;stroke-width:0.50507629;stroke-opacity:1"
       d="m 74.479403,116.64318 0,-13.63706 13.384522,0 13.384525,0 0,13.63706 0,13.63706 -13.384525,0 -13.384522,0 0,-13.63706 z"
       id="path4245"
       inkscape:connector-curvature="0"
       transform="translate(-360.67857,929.68363)" />
    <path
       style="opacity:1;fill:#000000;fill-opacity:1;stroke:#000000;stroke-width:0.50507629;stroke-opacity:1"
       d="m 132.0581,174.72695 0,-13.63706 13.63706,0 13.63706,0 0,13.63706 0,13.63706 -13.63706,0 -13.63706,0 0,-13.63706 z"
       id="path4247"
       inkscape:connector-curvature="0"
       transform="translate(-360.67857,929.68363)" />
    <path
       style="opacity:1;fill:#000000;fill-opacity:1;stroke:#000000;stroke-width:0.50507629;stroke-opacity:1"
       d="m 161.35252,203.76884 0,-13.38452 13.38452,0 13.38452,0 0,13.38452 0,13.38452 -13.38452,0 -13.38452,0 0,-13.38452 z"
       id="path4249"
       inkscape:connector-curvature="0"
       transform="translate(-360.67857,929.68363)" />
    <path
       style="opacity:1;fill:#000000;fill-opacity:1;stroke:#000000;stroke-width:0.50507629;stroke-opacity:1"
       d="m 190.14187,232.81072 0,-13.63706 13.63706,0 13.63706,0 0,13.63706 0,13.63706 -13.63706,0 -13.63706,0 0,-13.63706 z"
       id="path4251"
       inkscape:connector-curvature="0"
       transform="translate(-360.67857,929.68363)" />
    <path
       style="opacity:1;fill:#000000;fill-opacity:1;stroke:#000000;stroke-width:0.50507629;stroke-opacity:1"
       d="m 248.22564,174.72695 0,-13.63706 13.63706,0 13.63706,0 0,13.63706 0,13.63706 -13.63706,0 -13.63706,0 0,-13.63706 z"
       id="path4253"
       inkscape:connector-curvature="0"
       transform="translate(-360.67857,929.68363)" />
    <path
       style="opacity:1;fill:#000000;fill-opacity:1;stroke:#000000;stroke-width:0.50507629;stroke-opacity:1"
       d="m 277.01499,145.68507 0,-13.38452 13.63706,0 13.63706,0 0,13.38452 0,13.38452 -13.63706,0 -13.63706,0 0,-13.38452 z"
       id="path4255"
       inkscape:connector-curvature="0"
       transform="translate(-360.67857,929.68363)" />
    <path
       style="opacity:1;fill:#000000;fill-opacity:1;stroke:#000000;stroke-width:0.50507629;stroke-opacity:1"
       d="m 335.09876,87.853834 0,-13.63706 13.63706,0 13.63706,0 0,13.63706 0,13.637056 -13.63706,0 -13.63706,0 0,-13.637056 z"
       id="path4257"
       inkscape:connector-curvature="0"
       transform="translate(-360.67857,929.68363)" />
    <path
       style="opacity:1;fill:#000000;fill-opacity:1;stroke:#000000;stroke-width:0.50507629;stroke-opacity:1"
       d="m 306.30941,58.811948 0,-13.384521 13.38452,0 13.38453,0 0,13.384521 0,13.384521 -13.38453,0 -13.38452,0 0,-13.384521 z"
       id="path4259"
       inkscape:connector-curvature="0"
       transform="translate(-360.67857,929.68363)" />
    <path
       style="opacity:1;fill:#000000;fill-opacity:1;stroke:#000000;stroke-width:0.50507629;stroke-opacity:1"
       d="m 277.01499,29.770062 0,-13.637059 13.63706,0 13.63706,0 0,13.637059 0,13.63706 -13.63706,0 -13.63706,0 0,-13.63706 z"
       id="path4261"
       inkscape:connector-curvature="0"
       transform="translate(-360.67857,929.68363)" />
    <path
       style="opacity:1;fill:#000000;fill-opacity:1;stroke:#000000;stroke-width:0.50507629;stroke-opacity:1"
       d="m 219.43629,87.853834 0,-13.63706 13.38453,0 13.38452,0 0,13.63706 0,13.637056 -13.38452,0 -13.38453,0 0,-13.637056 z"
       id="path4263"
       inkscape:connector-curvature="0"
       transform="translate(-360.67857,929.68363)" />
    <path
       style="opacity:1;fill:#000000;fill-opacity:1;stroke:#000000;stroke-width:0.50507629;stroke-opacity:1"
       d="m 190.14187,116.64318 0,-13.63706 13.63706,0 13.63706,0 0,13.63706 0,13.63706 -13.63706,0 -13.63706,0 0,-13.63706 z"
       id="path4265"
       inkscape:connector-curvature="0"
       transform="translate(-360.67857,929.68363)" />
    <path
       style="opacity:1;fill:#000000;fill-opacity:1;stroke:#000000;stroke-width:0.50507629;stroke-opacity:1"
       d="m 103.26875,203.76884 0,-13.38452 13.38452,0 13.38452,0 0,13.38452 0,13.38452 -13.38452,0 -13.38452,0 0,-13.38452 z"
       id="path4267"
       inkscape:connector-curvature="0"
       transform="translate(-360.67857,929.68363)" />
    <path
       style="opacity:1;fill:#000000;fill-opacity:1;stroke:#000000;stroke-width:0.50507629;stroke-opacity:1"
       d="m 74.479403,232.81072 0,-13.63706 13.384522,0 13.384525,0 0,13.63706 0,13.63706 -13.384525,0 -13.384522,0 0,-13.63706 z"
       id="path4269"
       inkscape:connector-curvature="0"
       transform="translate(-360.67857,929.68363)" />
    <path
       style="opacity:1;fill:#000000;fill-opacity:1;stroke:#000000;stroke-width:0.50507629;stroke-opacity:1"
       d="m 16.395632,174.72695 0,-13.63706 13.384521,0 13.384522,0 0,13.63706 0,13.63706 -13.384522,0 -13.384521,0 0,-13.63706 z"
       id="path4271"
       inkscape:connector-curvature="0"
       transform="translate(-360.67857,929.68363)" />
    <path
       style="opacity:1;fill:#000000;fill-opacity:1;stroke:#000000;stroke-width:0.50507629;stroke-opacity:1"
       d="m 45.18498,145.68507 0,-13.38452 13.637059,0 13.637059,0 0,13.38452 0,13.38452 -13.637059,0 -13.637059,0 0,-13.38452 z"
       id="path4273"
       inkscape:connector-curvature="0"
       transform="translate(-360.67857,929.68363)" />
    <path
       style="opacity:1;fill:#000000;fill-opacity:1;stroke:#000000;stroke-width:0.50507629;stroke-opacity:1"
       d="m 132.0581,58.811948 0,-13.384521 13.63706,0 13.63706,0 0,13.384521 0,13.384521 -13.63706,0 -13.63706,0 0,-13.384521 z"
       id="path4275"
       inkscape:connector-curvature="0"
       transform="translate(-360.67857,929.68363)" />
    <path
       style="opacity:1;fill:#000000;fill-opacity:1;stroke:#000000;stroke-width:0.50507629;stroke-opacity:1"
       d="m 161.35252,29.770062 0,-13.637059 13.38452,0 13.38452,0 0,13.637059 0,13.63706 -13.38452,0 -13.38452,0 0,-13.63706 z"
       id="path4277"
       inkscape:connector-curvature="0"
       transform="translate(-360.67857,929.68363)" />
    <path
       style="opacity:1;fill:#000000;fill-opacity:1;stroke:#000000;stroke-width:0.50507629;stroke-opacity:1"
       d="m 248.22564,116.64318 0,-13.63706 13.63706,0 13.63706,0 0,13.63706 0,13.63706 -13.63706,0 -13.63706,0 0,-13.63706 z"
       id="path4279"
       inkscape:connector-curvature="0"
       transform="translate(-360.67857,929.68363)" />
    <path
       style="opacity:1;fill:#000000;fill-opacity:1;stroke:#000000;stroke-width:0.50507629;stroke-opacity:1"
       d="m 335.09876,203.76884 0,-13.38452 13.63706,0 13.63706,0 0,13.38452 0,13.38452 -13.63706,0 -13.63706,0 0,-13.38452 z"
       id="path4281"
       inkscape:connector-curvature="0"
       transform="translate(-360.67857,929.68363)" />
    <path
       style="opacity:1;fill:#000000;fill-opacity:1;stroke:#000000;stroke-width:0.50507629;stroke-opacity:1"
       d="m 306.30941,232.81072 0,-13.63706 13.38452,0 13.38453,0 0,13.63706 0,13.63706 -13.38453,0 -13.38452,0 0,-13.63706 z"
       id="path4283"
       inkscape:connector-curvature="0"
       transform="translate(-360.67857,929.68363)" />
    <path
       style="opacity:1;fill:#000000;fill-opacity:1;stroke:#000000;stroke-width:0.50507629;stroke-opacity:1"
       d="m 219.43629,145.68507 0,-13.38452 13.38453,0 13.38452,0 0,13.38452 0,13.38452 -13.38452,0 -13.38453,0 0,-13.38452 z"
       id="path4285"
       inkscape:connector-curvature="0"
       transform="translate(-360.67857,929.68363)" />
    <path
       style="opacity:1;fill:#000000;fill-opacity:1;stroke:#000000;stroke-width:0.50507629;stroke-opacity:1"
       d="m 103.26875,29.770062 0,-13.637059 13.38452,0 13.38452,0 0,13.637059 0,13.63706 -13.38452,0 -13.38452,0 0,-13.63706 z"
       id="path4287"
       inkscape:connector-curvature="0"
       transform="translate(-360.67857,929.68363)" />
    <path
       style="opacity:1;fill:#000000;fill-opacity:1;stroke:#000000;stroke-width:0.50507629;stroke-opacity:1"
       d="m 16.395632,116.64318 0,-13.63706 13.384521,0 13.384522,0 0,13.63706 0,13.63706 -13.384522,0 -13.384521,0 0,-13.63706 z"
       id="path4289"
       inkscape:connector-curvature="0"
       transform="translate(-360.67857,929.68363)" />
    <path
       style="opacity:1;fill:#000000;fill-opacity:1;stroke:#000000;stroke-width:0.50507629;stroke-opacity:1"
       d="m 132.0581,232.81072 0,-13.63706 13.63706,0 13.63706,0 0,13.63706 0,13.63706 -13.63706,0 -13.63706,0 0,-13.63706 z"
       id="path4291"
       inkscape:connector-curvature="0"
       transform="translate(-360.67857,929.68363)" />
    <path
       style="opacity:1;fill:#000000;fill-opacity:1;stroke:#000000;stroke-width:0.50507629;stroke-opacity:1"
       d="m 335.09876,29.770062 0,-13.637059 13.63706,0 13.63706,0 0,13.637059 0,13.63706 -13.63706,0 -13.63706,0 0,-13.63706 z"
       id="path4293"
       inkscape:connector-curvature="0"
       transform="translate(-360.67857,929.68363)" />
  </g>
</svg>
