  0
SECTION
  2
BLOCKS
  0
ENDSEC
  0
SECTION
  2
ENTITIES
  0
LINE
  8
0
 10
230.5
 20
230.5
 11
230.5
 21
243
  0
LINE
  8
0
 10
230.5
 20
243
 11
229.5
 21
243
  0
LINE
  8
0
 10
229.5
 20
243
 11
229.5
 21
230.5
  0
LINE
  8
0
 10
229.5
 20
230.5
 11
203.5
 21
230.5
  0
LINE
  8
0
 10
203.5
 20
230.5
 11
203.5
 21
243
  0
LINE
  8
0
 10
203.5
 20
243
 11
202.5
 21
243
  0
LINE
  8
0
 10
202.5
 20
243
 11
202.5
 21
230.5
  0
LINE
  8
0
 10
202.5
 20
230.5
 11
176.5
 21
230.5
  0
LINE
  8
0
 10
176.5
 20
230.5
 11
176.5
 21
243
  0
LINE
  8
0
 10
176.5
 20
243
 11
175.5
 21
243
  0
LINE
  8
0
 10
175.5
 20
243
 11
175.5
 21
230.5
  0
LINE
  8
0
 10
175.5
 20
230.5
 11
149.5
 21
230.5
  0
LINE
  8
0
 10
149.5
 20
230.5
 11
149.5
 21
243
  0
LINE
  8
0
 10
149.5
 20
243
 11
148.5
 21
243
  0
LINE
  8
0
 10
148.5
 20
243
 11
148.5
 21
230.5
  0
LINE
  8
0
 10
148.5
 20
230.5
 11
122.5
 21
230.5
  0
LINE
  8
0
 10
122.5
 20
230.5
 11
122.5
 21
243
  0
LINE
  8
0
 10
122.5
 20
243
 11
121.5
 21
243
  0
LINE
  8
0
 10
121.5
 20
243
 11
121.5
 21
230.5
  0
LINE
  8
0
 10
121.5
 20
230.5
 11
95.5
 21
230.5
  0
LINE
  8
0
 10
95.5
 20
230.5
 11
95.5
 21
243
  0
LINE
  8
0
 10
95.5
 20
243
 11
94.5
 21
243
  0
LINE
  8
0
 10
94.5
 20
243
 11
94.5
 21
230.5
  0
LINE
  8
0
 10
94.5
 20
230.5
 11
68.5
 21
230.5
  0
LINE
  8
0
 10
68.5
 20
230.5
 11
68.5
 21
243
  0
LINE
  8
0
 10
68.5
 20
243
 11
67.5
 21
243
  0
LINE
  8
0
 10
67.5
 20
243
 11
67.5
 21
230.5
  0
LINE
  8
0
 10
67.5
 20
230.5
 11
41.5
 21
230.5
  0
LINE
  8
0
 10
41.5
 20
230.5
 11
41.5
 21
243
  0
LINE
  8
0
 10
41.5
 20
243
 11
40.5
 21
243
  0
LINE
  8
0
 10
40.5
 20
243
 11
40.5
 21
230.5
  0
LINE
  8
0
 10
40.5
 20
230.5
 11
14.5
 21
230.5
  0
LINE
  8
0
 10
14.5
 20
230.5
 11
14.5
 21
243
  0
LINE
  8
0
 10
14.5
 20
243
 11
13.5
 21
243
  0
LINE
  8
0
 10
13.5
 20
243
 11
13.5
 21
230.5
  0
LINE
  8
0
 10
13.5
 20
230.5
 11
1
 21
230.5
  0
LINE
  8
0
 10
1
 20
230.5
 11
1
 21
243
  0
LINE
  8
0
 10
1
 20
243
 11
0
 21
243
  0
LINE
  8
0
 10
0
 20
243
 11
0
 21
0
  0
LINE
  8
0
 10
0
 20
0
 11
352
 21
0
  0
LINE
  8
0
 10
352
 20
0
 11
352
 21
243
  0
LINE
  8
0
 10
352
 20
243
 11
351
 21
243
  0
LINE
  8
0
 10
351
 20
243
 11
351
 21
230.5
  0
LINE
  8
0
 10
351
 20
230.5
 11
338.5
 21
230.5
  0
LINE
  8
0
 10
338.5
 20
230.5
 11
338.5
 21
243
  0
LINE
  8
0
 10
338.5
 20
243
 11
351
 21
243
  0
LINE
  8
0
 10
351
 20
243
 11
351
 21
244
  0
LINE
  8
0
 10
351
 20
244
 11
0
 21
244
  0
LINE
  8
0
 10
0
 20
244
 11
0
 21
243
  0
LINE
  8
0
 10
0
 20
243
 11
256.5
 21
243
  0
LINE
  8
0
 10
256.5
 20
243
 11
256.5
 21
230.5
  0
LINE
  8
0
 10
256.5
 20
230.5
 11
230.5
 21
230.5
  0
LINE
  8
0
 10
1
 20
203.5
 11
1
 21
229.5
  0
LINE
  8
0
 10
1
 20
229.5
 11
13.5
 21
229.5
  0
LINE
  8
0
 10
13.5
 20
229.5
 11
13.5
 21
203.5
  0
LINE
  8
0
 10
13.5
 20
203.5
 11
1
 21
203.5
  0
LINE
  8
0
 10
7.23549
 20
211.346
 11
7.63599
 21
212.389
  0
LINE
  8
0
 10
7.63599
 20
212.389
 11
7.43286
 21
213.132
  0
LINE
  8
0
 10
7.43286
 20
213.132
 11
6.84799
 21
213.615
  0
LINE
  8
0
 10
6.84799
 20
213.615
 11
7.25012
 21
213.972
  0
LINE
  8
0
 10
7.25012
 20
213.972
 11
7.37999
 21
214.541
  0
LINE
  8
0
 10
7.37999
 20
214.541
 11
7.04712
 21
215.399
  0
LINE
  8
0
 10
7.04712
 20
215.399
 11
6.202
 21
215.736
  0
LINE
  8
0
 10
6.202
 20
215.736
 11
5.35312
 21
215.394
  0
LINE
  8
0
 10
5.35312
 20
215.394
 11
5.01199
 21
214.541
  0
LINE
  8
0
 10
5.01199
 20
214.541
 11
5.07262
 21
214.164
  0
LINE
  8
0
 10
5.07262
 20
214.164
 11
5.24199
 21
213.853
  0
LINE
  8
0
 10
5.24199
 20
213.853
 11
5.35736
 21
213.734
  0
LINE
  8
0
 10
5.35736
 20
213.734
 11
5.532
 21
213.615
  0
LINE
  8
0
 10
5.532
 20
213.615
 11
4.95537
 21
213.111
  0
LINE
  8
0
 10
4.95537
 20
213.111
 11
4.756
 21
212.37
  0
LINE
  8
0
 10
4.756
 20
212.37
 11
5.17262
 21
211.346
  0
LINE
  8
0
 10
5.17262
 20
211.346
 11
6.21399
 21
210.936
  0
LINE
  8
0
 10
6.21399
 20
210.936
 11
7.23549
 21
211.346
  0
LINE
  8
0
 10
5.67499
 20
214.029
 11
5.45999
 21
214.567
  0
LINE
  8
0
 10
5.45999
 20
214.567
 11
5.6675
 21
215.086
  0
LINE
  8
0
 10
5.6675
 20
215.086
 11
6.196
 21
215.288
  0
LINE
  8
0
 10
6.196
 20
215.288
 11
6.72449
 21
215.082
  0
LINE
  8
0
 10
6.72449
 20
215.082
 11
6.93199
 21
214.555
  0
LINE
  8
0
 10
6.93199
 20
214.555
 11
6.72749
 21
214.028
  0
LINE
  8
0
 10
6.72749
 20
214.028
 11
6.21999
 21
213.816
  0
LINE
  8
0
 10
6.21999
 20
213.816
 11
5.67499
 21
214.029
  0
LINE
  8
0
 10
5.48438
 20
211.664
 11
5.20399
 21
212.385
  0
LINE
  8
0
 10
5.20399
 20
212.385
 11
5.48361
 21
213.092
  0
LINE
  8
0
 10
5.48361
 20
213.092
 11
6.202
 21
213.368
  0
LINE
  8
0
 10
6.202
 20
213.368
 11
6.90987
 21
213.092
  0
LINE
  8
0
 10
6.90987
 20
213.092
 11
7.18799
 21
212.385
  0
LINE
  8
0
 10
7.18799
 20
212.385
 11
6.91287
 21
211.667
  0
LINE
  8
0
 10
6.91287
 20
211.667
 11
6.20799
 21
211.384
  0
LINE
  8
0
 10
6.20799
 20
211.384
 11
5.48438
 21
211.664
  0
LINE
  8
0
 10
14.5
 20
203.5
 11
14.5
 21
229.5
  0
LINE
  8
0
 10
14.5
 20
229.5
 11
40.5
 21
229.5
  0
LINE
  8
0
 10
40.5
 20
229.5
 11
40.5
 21
203.5
  0
LINE
  8
0
 10
40.5
 20
203.5
 11
14.5
 21
203.5
  0
LINE
  8
0
 10
41.5
 20
203.5
 11
41.5
 21
229.5
  0
LINE
  8
0
 10
41.5
 20
229.5
 11
67.5
 21
229.5
  0
LINE
  8
0
 10
67.5
 20
229.5
 11
67.5
 21
203.5
  0
LINE
  8
0
 10
67.5
 20
203.5
 11
41.5
 21
203.5
  0
LINE
  8
0
 10
68.5
 20
203.5
 11
68.5
 21
229.5
  0
LINE
  8
0
 10
68.5
 20
229.5
 11
94.5
 21
229.5
  0
LINE
  8
0
 10
94.5
 20
229.5
 11
94.5
 21
203.5
  0
LINE
  8
0
 10
94.5
 20
203.5
 11
68.5
 21
203.5
  0
LINE
  8
0
 10
95.5
 20
203.5
 11
95.5
 21
229.5
  0
LINE
  8
0
 10
95.5
 20
229.5
 11
121.5
 21
229.5
  0
LINE
  8
0
 10
121.5
 20
229.5
 11
121.5
 21
203.5
  0
LINE
  8
0
 10
121.5
 20
203.5
 11
95.5
 21
203.5
  0
LINE
  8
0
 10
122.5
 20
203.5
 11
122.5
 21
229.5
  0
LINE
  8
0
 10
122.5
 20
229.5
 11
148.5
 21
229.5
  0
LINE
  8
0
 10
148.5
 20
229.5
 11
148.5
 21
203.5
  0
LINE
  8
0
 10
148.5
 20
203.5
 11
122.5
 21
203.5
  0
LINE
  8
0
 10
149.5
 20
203.5
 11
149.5
 21
229.5
  0
LINE
  8
0
 10
149.5
 20
229.5
 11
175.5
 21
229.5
  0
LINE
  8
0
 10
175.5
 20
229.5
 11
175.5
 21
203.5
  0
LINE
  8
0
 10
175.5
 20
203.5
 11
149.5
 21
203.5
  0
LINE
  8
0
 10
176.5
 20
203.5
 11
176.5
 21
229.5
  0
LINE
  8
0
 10
176.5
 20
229.5
 11
202.5
 21
229.5
  0
LINE
  8
0
 10
202.5
 20
229.5
 11
202.5
 21
203.5
  0
LINE
  8
0
 10
202.5
 20
203.5
 11
176.5
 21
203.5
  0
LINE
  8
0
 10
203.5
 20
203.5
 11
203.5
 21
229.5
  0
LINE
  8
0
 10
203.5
 20
229.5
 11
229.5
 21
229.5
  0
LINE
  8
0
 10
229.5
 20
229.5
 11
229.5
 21
203.5
  0
LINE
  8
0
 10
229.5
 20
203.5
 11
203.5
 21
203.5
  0
LINE
  8
0
 10
230.5
 20
203.5
 11
230.5
 21
229.5
  0
LINE
  8
0
 10
230.5
 20
229.5
 11
256.5
 21
229.5
  0
LINE
  8
0
 10
256.5
 20
229.5
 11
256.5
 21
203.5
  0
LINE
  8
0
 10
256.5
 20
203.5
 11
230.5
 21
203.5
  0
LINE
  8
0
 10
257.5
 20
203.5
 11
257.5
 21
229.5
  0
LINE
  8
0
 10
257.5
 20
229.5
 11
283.5
 21
229.5
  0
LINE
  8
0
 10
283.5
 20
229.5
 11
283.5
 21
203.5
  0
LINE
  8
0
 10
283.5
 20
203.5
 11
257.5
 21
203.5
  0
LINE
  8
0
 10
284.5
 20
203.5
 11
284.5
 21
229.5
  0
LINE
  8
0
 10
284.5
 20
229.5
 11
310.5
 21
229.5
  0
LINE
  8
0
 10
310.5
 20
229.5
 11
310.5
 21
203.5
  0
LINE
  8
0
 10
310.5
 20
203.5
 11
284.5
 21
203.5
  0
LINE
  8
0
 10
311.5
 20
203.5
 11
311.5
 21
229.5
  0
LINE
  8
0
 10
311.5
 20
229.5
 11
337.5
 21
229.5
  0
LINE
  8
0
 10
337.5
 20
229.5
 11
337.5
 21
203.5
  0
LINE
  8
0
 10
337.5
 20
203.5
 11
311.5
 21
203.5
  0
LINE
  8
0
 10
338.5
 20
203.5
 11
338.5
 21
229.5
  0
LINE
  8
0
 10
338.5
 20
229.5
 11
351
 21
229.5
  0
LINE
  8
0
 10
351
 20
229.5
 11
351
 21
203.5
  0
LINE
  8
0
 10
351
 20
203.5
 11
338.5
 21
203.5
  0
LINE
  8
0
 10
347.647
 20
216.606
 11
347.988
 21
217.459
  0
LINE
  8
0
 10
347.988
 20
217.459
 11
347.927
 21
217.836
  0
LINE
  8
0
 10
347.927
 20
217.836
 11
347.758
 21
218.147
  0
LINE
  8
0
 10
347.758
 20
218.147
 11
347.643
 21
218.266
  0
LINE
  8
0
 10
347.643
 20
218.266
 11
347.468
 21
218.385
  0
LINE
  8
0
 10
347.468
 20
218.385
 11
348.045
 21
218.889
  0
LINE
  8
0
 10
348.045
 20
218.889
 11
348.244
 21
219.63
  0
LINE
  8
0
 10
348.244
 20
219.63
 11
347.827
 21
220.654
  0
LINE
  8
0
 10
347.827
 20
220.654
 11
346.786
 21
221.064
  0
LINE
  8
0
 10
346.786
 20
221.064
 11
345.765
 21
220.654
  0
LINE
  8
0
 10
345.765
 20
220.654
 11
345.364
 21
219.611
  0
LINE
  8
0
 10
345.364
 20
219.611
 11
345.567
 21
218.868
  0
LINE
  8
0
 10
345.567
 20
218.868
 11
346.152
 21
218.385
  0
LINE
  8
0
 10
346.152
 20
218.385
 11
345.75
 21
218.028
  0
LINE
  8
0
 10
345.75
 20
218.028
 11
345.62
 21
217.459
  0
LINE
  8
0
 10
345.62
 20
217.459
 11
345.953
 21
216.601
  0
LINE
  8
0
 10
345.953
 20
216.601
 11
346.798
 21
216.264
  0
LINE
  8
0
 10
346.798
 20
216.264
 11
347.647
 21
216.606
  0
LINE
  8
0
 10
346.09
 20
218.908
 11
345.812
 21
219.615
  0
LINE
  8
0
 10
345.812
 20
219.615
 11
346.087
 21
220.333
  0
LINE
  8
0
 10
346.087
 20
220.333
 11
346.792
 21
220.616
  0
LINE
  8
0
 10
346.792
 20
220.616
 11
347.516
 21
220.336
  0
LINE
  8
0
 10
347.516
 20
220.336
 11
347.796
 21
219.615
  0
LINE
  8
0
 10
347.796
 20
219.615
 11
347.516
 21
218.908
  0
LINE
  8
0
 10
347.516
 20
218.908
 11
346.798
 21
218.632
  0
LINE
  8
0
 10
346.798
 20
218.632
 11
346.09
 21
218.908
  0
LINE
  8
0
 10
346.276
 20
216.918
 11
346.068
 21
217.445
  0
LINE
  8
0
 10
346.068
 20
217.445
 11
346.273
 21
217.972
  0
LINE
  8
0
 10
346.273
 20
217.972
 11
346.78
 21
218.184
  0
LINE
  8
0
 10
346.78
 20
218.184
 11
347.325
 21
217.971
  0
LINE
  8
0
 10
347.325
 20
217.971
 11
347.54
 21
217.433
  0
LINE
  8
0
 10
347.54
 20
217.433
 11
347.333
 21
216.914
  0
LINE
  8
0
 10
347.333
 20
216.914
 11
346.804
 21
216.712
  0
LINE
  8
0
 10
346.804
 20
216.712
 11
346.276
 21
216.918
  0
LINE
  8
0
 10
1
 20
176.5
 11
1
 21
202.5
  0
LINE
  8
0
 10
1
 20
202.5
 11
13.5
 21
202.5
  0
LINE
  8
0
 10
13.5
 20
202.5
 11
13.5
 21
176.5
  0
LINE
  8
0
 10
13.5
 20
176.5
 11
1
 21
176.5
  0
LINE
  8
0
 10
7.50099
 20
188.189
 11
7.50099
 21
188.608
  0
LINE
  8
0
 10
7.50099
 20
188.608
 11
4.892
 21
188.608
  0
LINE
  8
0
 10
4.892
 20
188.608
 11
4.892
 21
188.189
  0
LINE
  8
0
 10
4.892
 20
188.189
 11
7.036
 21
188.189
  0
LINE
  8
0
 10
7.036
 20
188.189
 11
5.174
 21
184
  0
LINE
  8
0
 10
5.174
 20
184
 11
5.65199
 21
184
  0
LINE
  8
0
 10
5.65199
 20
184
 11
7.50099
 21
188.189
  0
LINE
  8
0
 10
14.5
 20
176.5
 11
14.5
 21
202.5
  0
LINE
  8
0
 10
14.5
 20
202.5
 11
40.5
 21
202.5
  0
LINE
  8
0
 10
40.5
 20
202.5
 11
40.5
 21
176.5
  0
LINE
  8
0
 10
40.5
 20
176.5
 11
14.5
 21
176.5
  0
LINE
  8
0
 10
41.5
 20
176.5
 11
41.5
 21
202.5
  0
LINE
  8
0
 10
41.5
 20
202.5
 11
67.5
 21
202.5
  0
LINE
  8
0
 10
67.5
 20
202.5
 11
67.5
 21
176.5
  0
LINE
  8
0
 10
67.5
 20
176.5
 11
41.5
 21
176.5
  0
LINE
  8
0
 10
68.5
 20
176.5
 11
68.5
 21
202.5
  0
LINE
  8
0
 10
68.5
 20
202.5
 11
94.5
 21
202.5
  0
LINE
  8
0
 10
94.5
 20
202.5
 11
94.5
 21
176.5
  0
LINE
  8
0
 10
94.5
 20
176.5
 11
68.5
 21
176.5
  0
LINE
  8
0
 10
95.5
 20
176.5
 11
95.5
 21
202.5
  0
LINE
  8
0
 10
95.5
 20
202.5
 11
121.5
 21
202.5
  0
LINE
  8
0
 10
121.5
 20
202.5
 11
121.5
 21
176.5
  0
LINE
  8
0
 10
121.5
 20
176.5
 11
95.5
 21
176.5
  0
LINE
  8
0
 10
122.5
 20
176.5
 11
122.5
 21
202.5
  0
LINE
  8
0
 10
122.5
 20
202.5
 11
148.5
 21
202.5
  0
LINE
  8
0
 10
148.5
 20
202.5
 11
148.5
 21
176.5
  0
LINE
  8
0
 10
148.5
 20
176.5
 11
122.5
 21
176.5
  0
LINE
  8
0
 10
149.5
 20
176.5
 11
149.5
 21
202.5
  0
LINE
  8
0
 10
149.5
 20
202.5
 11
175.5
 21
202.5
  0
LINE
  8
0
 10
175.5
 20
202.5
 11
175.5
 21
176.5
  0
LINE
  8
0
 10
175.5
 20
176.5
 11
149.5
 21
176.5
  0
LINE
  8
0
 10
176.5
 20
176.5
 11
176.5
 21
202.5
  0
LINE
  8
0
 10
176.5
 20
202.5
 11
202.5
 21
202.5
  0
LINE
  8
0
 10
202.5
 20
202.5
 11
202.5
 21
176.5
  0
LINE
  8
0
 10
202.5
 20
176.5
 11
176.5
 21
176.5
  0
LINE
  8
0
 10
203.5
 20
176.5
 11
203.5
 21
202.5
  0
LINE
  8
0
 10
203.5
 20
202.5
 11
229.5
 21
202.5
  0
LINE
  8
0
 10
229.5
 20
202.5
 11
229.5
 21
176.5
  0
LINE
  8
0
 10
229.5
 20
176.5
 11
203.5
 21
176.5
  0
LINE
  8
0
 10
230.5
 20
176.5
 11
230.5
 21
202.5
  0
LINE
  8
0
 10
230.5
 20
202.5
 11
256.5
 21
202.5
  0
LINE
  8
0
 10
256.5
 20
202.5
 11
256.5
 21
176.5
  0
LINE
  8
0
 10
256.5
 20
176.5
 11
230.5
 21
176.5
  0
LINE
  8
0
 10
257.5
 20
176.5
 11
257.5
 21
202.5
  0
LINE
  8
0
 10
257.5
 20
202.5
 11
283.5
 21
202.5
  0
LINE
  8
0
 10
283.5
 20
202.5
 11
283.5
 21
176.5
  0
LINE
  8
0
 10
283.5
 20
176.5
 11
257.5
 21
176.5
  0
LINE
  8
0
 10
284.5
 20
176.5
 11
284.5
 21
202.5
  0
LINE
  8
0
 10
284.5
 20
202.5
 11
310.5
 21
202.5
  0
LINE
  8
0
 10
310.5
 20
202.5
 11
310.5
 21
176.5
  0
LINE
  8
0
 10
310.5
 20
176.5
 11
284.5
 21
176.5
  0
LINE
  8
0
 10
311.5
 20
176.5
 11
311.5
 21
202.5
  0
LINE
  8
0
 10
311.5
 20
202.5
 11
337.5
 21
202.5
  0
LINE
  8
0
 10
337.5
 20
202.5
 11
337.5
 21
176.5
  0
LINE
  8
0
 10
337.5
 20
176.5
 11
311.5
 21
176.5
  0
LINE
  8
0
 10
338.5
 20
176.5
 11
338.5
 21
202.5
  0
LINE
  8
0
 10
338.5
 20
202.5
 11
351
 21
202.5
  0
LINE
  8
0
 10
351
 20
202.5
 11
351
 21
176.5
  0
LINE
  8
0
 10
351
 20
176.5
 11
338.5
 21
176.5
  0
LINE
  8
0
 10
348.108
 20
189.811
 11
345.964
 21
189.811
  0
LINE
  8
0
 10
345.964
 20
189.811
 11
347.826
 21
194
  0
LINE
  8
0
 10
347.826
 20
194
 11
347.348
 21
194
  0
LINE
  8
0
 10
347.348
 20
194
 11
345.499
 21
189.811
  0
LINE
  8
0
 10
345.499
 20
189.811
 11
345.499
 21
189.392
  0
LINE
  8
0
 10
345.499
 20
189.392
 11
348.108
 21
189.392
  0
LINE
  8
0
 10
348.108
 20
189.392
 11
348.108
 21
189.811
  0
LINE
  8
0
 10
1
 20
149.5
 11
1
 21
175.5
  0
LINE
  8
0
 10
1
 20
175.5
 11
13.5
 21
175.5
  0
LINE
  8
0
 10
13.5
 20
175.5
 11
13.5
 21
149.5
  0
LINE
  8
0
 10
13.5
 20
149.5
 11
1
 21
149.5
  0
LINE
  8
0
 10
7.32549
 20
157.406
 11
7.76399
 21
158.593
  0
LINE
  8
0
 10
7.76399
 20
158.593
 11
7.33749
 21
159.734
  0
LINE
  8
0
 10
7.33749
 20
159.734
 11
6.299
 21
160.2
  0
LINE
  8
0
 10
6.299
 20
160.2
 11
6.032
 21
160.167
  0
LINE
  8
0
 10
6.032
 20
160.167
 11
5.756
 21
160.06
  0
LINE
  8
0
 10
5.756
 20
160.06
 11
6.84999
 21
161.608
  0
LINE
  8
0
 10
6.84999
 20
161.608
 11
6.31599
 21
161.608
  0
LINE
  8
0
 10
6.31599
 20
161.608
 11
5.17599
 21
159.918
  0
LINE
  8
0
 10
5.17599
 20
159.918
 11
4.73849
 21
159.151
  0
LINE
  8
0
 10
4.73849
 20
159.151
 11
4.62799
 21
158.533
  0
LINE
  8
0
 10
4.62799
 20
158.533
 11
5.08061
 21
157.392
  0
LINE
  8
0
 10
5.08061
 20
157.392
 11
6.215
 21
156.936
  0
LINE
  8
0
 10
6.215
 20
156.936
 11
7.32549
 21
157.406
  0
LINE
  8
0
 10
5.39987
 20
157.725
 11
5.07599
 21
158.587
  0
LINE
  8
0
 10
5.07599
 20
158.587
 11
5.40086
 21
159.416
  0
LINE
  8
0
 10
5.40086
 20
159.416
 11
6.202
 21
159.752
  0
LINE
  8
0
 10
6.202
 20
159.752
 11
7.002
 21
159.419
  0
LINE
  8
0
 10
7.002
 20
159.419
 11
7.31599
 21
158.574
  0
LINE
  8
0
 10
7.31599
 20
158.574
 11
7.00362
 21
157.721
  0
LINE
  8
0
 10
7.00362
 20
157.721
 11
6.215
 21
157.384
  0
LINE
  8
0
 10
6.215
 20
157.384
 11
5.39987
 21
157.725
  0
LINE
  8
0
 10
14.5
 20
149.5
 11
14.5
 21
175.5
  0
LINE
  8
0
 10
14.5
 20
175.5
 11
40.5
 21
175.5
  0
LINE
  8
0
 10
40.5
 20
175.5
 11
40.5
 21
149.5
  0
LINE
  8
0
 10
40.5
 20
149.5
 11
14.5
 21
149.5
  0
LINE
  8
0
 10
41.5
 20
149.5
 11
41.5
 21
175.5
  0
LINE
  8
0
 10
41.5
 20
175.5
 11
67.5
 21
175.5
  0
LINE
  8
0
 10
67.5
 20
175.5
 11
67.5
 21
149.5
  0
LINE
  8
0
 10
67.5
 20
149.5
 11
41.5
 21
149.5
  0
LINE
  8
0
 10
68.5
 20
149.5
 11
68.5
 21
175.5
  0
LINE
  8
0
 10
68.5
 20
175.5
 11
94.5
 21
175.5
  0
LINE
  8
0
 10
94.5
 20
175.5
 11
94.5
 21
149.5
  0
LINE
  8
0
 10
94.5
 20
149.5
 11
68.5
 21
149.5
  0
LINE
  8
0
 10
95.5
 20
149.5
 11
95.5
 21
175.5
  0
LINE
  8
0
 10
95.5
 20
175.5
 11
121.5
 21
175.5
  0
LINE
  8
0
 10
121.5
 20
175.5
 11
121.5
 21
149.5
  0
LINE
  8
0
 10
121.5
 20
149.5
 11
95.5
 21
149.5
  0
LINE
  8
0
 10
122.5
 20
149.5
 11
122.5
 21
175.5
  0
LINE
  8
0
 10
122.5
 20
175.5
 11
148.5
 21
175.5
  0
LINE
  8
0
 10
148.5
 20
175.5
 11
148.5
 21
149.5
  0
LINE
  8
0
 10
148.5
 20
149.5
 11
122.5
 21
149.5
  0
LINE
  8
0
 10
149.5
 20
149.5
 11
149.5
 21
175.5
  0
LINE
  8
0
 10
149.5
 20
175.5
 11
175.5
 21
175.5
  0
LINE
  8
0
 10
175.5
 20
175.5
 11
175.5
 21
149.5
  0
LINE
  8
0
 10
175.5
 20
149.5
 11
149.5
 21
149.5
  0
LINE
  8
0
 10
176.5
 20
149.5
 11
176.5
 21
175.5
  0
LINE
  8
0
 10
176.5
 20
175.5
 11
202.5
 21
175.5
  0
LINE
  8
0
 10
202.5
 20
175.5
 11
202.5
 21
149.5
  0
LINE
  8
0
 10
202.5
 20
149.5
 11
176.5
 21
149.5
  0
LINE
  8
0
 10
203.5
 20
149.5
 11
203.5
 21
175.5
  0
LINE
  8
0
 10
203.5
 20
175.5
 11
229.5
 21
175.5
  0
LINE
  8
0
 10
229.5
 20
175.5
 11
229.5
 21
149.5
  0
LINE
  8
0
 10
229.5
 20
149.5
 11
203.5
 21
149.5
  0
LINE
  8
0
 10
230.5
 20
149.5
 11
230.5
 21
175.5
  0
LINE
  8
0
 10
230.5
 20
175.5
 11
256.5
 21
175.5
  0
LINE
  8
0
 10
256.5
 20
175.5
 11
256.5
 21
149.5
  0
LINE
  8
0
 10
256.5
 20
149.5
 11
230.5
 21
149.5
  0
LINE
  8
0
 10
257.5
 20
149.5
 11
257.5
 21
175.5
  0
LINE
  8
0
 10
257.5
 20
175.5
 11
283.5
 21
175.5
  0
LINE
  8
0
 10
283.5
 20
175.5
 11
283.5
 21
149.5
  0
LINE
  8
0
 10
283.5
 20
149.5
 11
257.5
 21
149.5
  0
LINE
  8
0
 10
284.5
 20
149.5
 11
284.5
 21
175.5
  0
LINE
  8
0
 10
284.5
 20
175.5
 11
310.5
 21
175.5
  0
LINE
  8
0
 10
310.5
 20
175.5
 11
310.5
 21
149.5
  0
LINE
  8
0
 10
310.5
 20
149.5
 11
284.5
 21
149.5
  0
LINE
  8
0
 10
311.5
 20
149.5
 11
311.5
 21
175.5
  0
LINE
  8
0
 10
311.5
 20
175.5
 11
337.5
 21
175.5
  0
LINE
  8
0
 10
337.5
 20
175.5
 11
337.5
 21
149.5
  0
LINE
  8
0
 10
337.5
 20
149.5
 11
311.5
 21
149.5
  0
LINE
  8
0
 10
338.5
 20
149.5
 11
338.5
 21
175.5
  0
LINE
  8
0
 10
338.5
 20
175.5
 11
351
 21
175.5
  0
LINE
  8
0
 10
351
 20
175.5
 11
351
 21
149.5
  0
LINE
  8
0
 10
351
 20
149.5
 11
338.5
 21
149.5
  0
LINE
  8
0
 10
347.824
 20
164.082
 11
348.262
 21
164.849
  0
LINE
  8
0
 10
348.262
 20
164.849
 11
348.372
 21
165.467
  0
LINE
  8
0
 10
348.372
 20
165.467
 11
347.919
 21
166.608
  0
LINE
  8
0
 10
347.919
 20
166.608
 11
346.785
 21
167.064
  0
LINE
  8
0
 10
346.785
 20
167.064
 11
345.675
 21
166.594
  0
LINE
  8
0
 10
345.675
 20
166.594
 11
345.236
 21
165.407
  0
LINE
  8
0
 10
345.236
 20
165.407
 11
345.663
 21
164.266
  0
LINE
  8
0
 10
345.663
 20
164.266
 11
346.701
 21
163.8
  0
LINE
  8
0
 10
346.701
 20
163.8
 11
346.968
 21
163.833
  0
LINE
  8
0
 10
346.968
 20
163.833
 11
347.244
 21
163.94
  0
LINE
  8
0
 10
347.244
 20
163.94
 11
346.15
 21
162.392
  0
LINE
  8
0
 10
346.15
 20
162.392
 11
346.684
 21
162.392
  0
LINE
  8
0
 10
346.684
 20
162.392
 11
347.824
 21
164.082
  0
LINE
  8
0
 10
345.998
 20
164.581
 11
345.684
 21
165.426
  0
LINE
  8
0
 10
345.684
 20
165.426
 11
345.996
 21
166.279
  0
LINE
  8
0
 10
345.996
 20
166.279
 11
346.785
 21
166.616
  0
LINE
  8
0
 10
346.785
 20
166.616
 11
347.6
 21
166.275
  0
LINE
  8
0
 10
347.6
 20
166.275
 11
347.924
 21
165.413
  0
LINE
  8
0
 10
347.924
 20
165.413
 11
347.599
 21
164.584
  0
LINE
  8
0
 10
347.599
 20
164.584
 11
346.798
 21
164.248
  0
LINE
  8
0
 10
346.798
 20
164.248
 11
345.998
 21
164.581
  0
LINE
  8
0
 10
1
 20
122.5
 11
1
 21
148.5
  0
LINE
  8
0
 10
1
 20
148.5
 11
13.5
 21
148.5
  0
LINE
  8
0
 10
13.5
 20
148.5
 11
13.5
 21
122.5
  0
LINE
  8
0
 10
13.5
 20
122.5
 11
1
 21
122.5
  0
LINE
  8
0
 10
7.26024
 20
130.411
 11
7.7
 21
131.574
  0
LINE
  8
0
 10
7.7
 20
131.574
 11
7.26762
 21
132.729
  0
LINE
  8
0
 10
7.26762
 20
132.729
 11
6.20299
 21
133.2
  0
LINE
  8
0
 10
6.20299
 20
133.2
 11
5.81725
 21
133.146
  0
LINE
  8
0
 10
5.81725
 20
133.146
 11
5.42699
 21
132.966
  0
LINE
  8
0
 10
5.42699
 20
132.966
 11
5.64699
 21
134.189
  0
LINE
  8
0
 10
5.64699
 20
134.189
 11
7.325
 21
134.189
  0
LINE
  8
0
 10
7.325
 20
134.189
 11
7.325
 21
134.608
  0
LINE
  8
0
 10
7.325
 20
134.608
 11
5.286
 21
134.608
  0
LINE
  8
0
 10
5.286
 20
134.608
 11
4.88199
 21
132.374
  0
LINE
  8
0
 10
4.88199
 20
132.374
 11
5.23099
 21
132.237
  0
LINE
  8
0
 10
5.23099
 20
132.237
 11
5.66986
 21
132.625
  0
LINE
  8
0
 10
5.66986
 20
132.625
 11
6.168
 21
132.752
  0
LINE
  8
0
 10
6.168
 20
132.752
 11
6.9395
 21
132.414
  0
LINE
  8
0
 10
6.9395
 20
132.414
 11
7.252
 21
131.574
  0
LINE
  8
0
 10
7.252
 20
131.574
 11
6.93724
 21
130.728
  0
LINE
  8
0
 10
6.93724
 20
130.728
 11
6.168
 21
130.384
  0
LINE
  8
0
 10
6.168
 20
130.384
 11
5.43575
 21
130.691
  0
LINE
  8
0
 10
5.43575
 20
130.691
 11
5.071
 21
131.487
  0
LINE
  8
0
 10
5.071
 20
131.487
 11
4.62999
 21
131.487
  0
LINE
  8
0
 10
4.62999
 20
131.487
 11
4.69261
 21
131.129
  0
LINE
  8
0
 10
4.69261
 20
131.129
 11
4.78299
 21
130.867
  0
LINE
  8
0
 10
4.78299
 20
130.867
 11
5.35474
 21
130.185
  0
LINE
  8
0
 10
5.35474
 20
130.185
 11
6.183
 21
129.936
  0
LINE
  8
0
 10
6.183
 20
129.936
 11
7.26024
 21
130.411
  0
LINE
  8
0
 10
14.5
 20
122.5
 11
14.5
 21
148.5
  0
LINE
  8
0
 10
14.5
 20
148.5
 11
40.5
 21
148.5
  0
LINE
  8
0
 10
40.5
 20
148.5
 11
40.5
 21
122.5
  0
LINE
  8
0
 10
40.5
 20
122.5
 11
14.5
 21
122.5
  0
LINE
  8
0
 10
41.5
 20
122.5
 11
41.5
 21
148.5
  0
LINE
  8
0
 10
41.5
 20
148.5
 11
67.5
 21
148.5
  0
LINE
  8
0
 10
67.5
 20
148.5
 11
67.5
 21
122.5
  0
LINE
  8
0
 10
67.5
 20
122.5
 11
41.5
 21
122.5
  0
LINE
  8
0
 10
68.5
 20
122.5
 11
68.5
 21
148.5
  0
LINE
  8
0
 10
68.5
 20
148.5
 11
94.5
 21
148.5
  0
LINE
  8
0
 10
94.5
 20
148.5
 11
94.5
 21
122.5
  0
LINE
  8
0
 10
94.5
 20
122.5
 11
68.5
 21
122.5
  0
LINE
  8
0
 10
95.5
 20
122.5
 11
95.5
 21
148.5
  0
LINE
  8
0
 10
95.5
 20
148.5
 11
121.5
 21
148.5
  0
LINE
  8
0
 10
121.5
 20
148.5
 11
121.5
 21
122.5
  0
LINE
  8
0
 10
121.5
 20
122.5
 11
95.5
 21
122.5
  0
LINE
  8
0
 10
122.5
 20
122.5
 11
122.5
 21
148.5
  0
LINE
  8
0
 10
122.5
 20
148.5
 11
148.5
 21
148.5
  0
LINE
  8
0
 10
148.5
 20
148.5
 11
148.5
 21
122.5
  0
LINE
  8
0
 10
148.5
 20
122.5
 11
122.5
 21
122.5
  0
LINE
  8
0
 10
149.5
 20
122.5
 11
149.5
 21
148.5
  0
LINE
  8
0
 10
149.5
 20
148.5
 11
175.5
 21
148.5
  0
LINE
  8
0
 10
175.5
 20
148.5
 11
175.5
 21
122.5
  0
LINE
  8
0
 10
175.5
 20
122.5
 11
149.5
 21
122.5
  0
LINE
  8
0
 10
176.5
 20
122.5
 11
176.5
 21
148.5
  0
LINE
  8
0
 10
176.5
 20
148.5
 11
202.5
 21
148.5
  0
LINE
  8
0
 10
202.5
 20
148.5
 11
202.5
 21
122.5
  0
LINE
  8
0
 10
202.5
 20
122.5
 11
176.5
 21
122.5
  0
LINE
  8
0
 10
203.5
 20
122.5
 11
203.5
 21
148.5
  0
LINE
  8
0
 10
203.5
 20
148.5
 11
229.5
 21
148.5
  0
LINE
  8
0
 10
229.5
 20
148.5
 11
229.5
 21
122.5
  0
LINE
  8
0
 10
229.5
 20
122.5
 11
203.5
 21
122.5
  0
LINE
  8
0
 10
230.5
 20
122.5
 11
230.5
 21
148.5
  0
LINE
  8
0
 10
230.5
 20
148.5
 11
256.5
 21
148.5
  0
LINE
  8
0
 10
256.5
 20
148.5
 11
256.5
 21
122.5
  0
LINE
  8
0
 10
256.5
 20
122.5
 11
230.5
 21
122.5
  0
LINE
  8
0
 10
257.5
 20
122.5
 11
257.5
 21
148.5
  0
LINE
  8
0
 10
257.5
 20
148.5
 11
283.5
 21
148.5
  0
LINE
  8
0
 10
283.5
 20
148.5
 11
283.5
 21
122.5
  0
LINE
  8
0
 10
283.5
 20
122.5
 11
257.5
 21
122.5
  0
LINE
  8
0
 10
284.5
 20
122.5
 11
284.5
 21
148.5
  0
LINE
  8
0
 10
284.5
 20
148.5
 11
310.5
 21
148.5
  0
LINE
  8
0
 10
310.5
 20
148.5
 11
310.5
 21
122.5
  0
LINE
  8
0
 10
310.5
 20
122.5
 11
284.5
 21
122.5
  0
LINE
  8
0
 10
311.5
 20
122.5
 11
311.5
 21
148.5
  0
LINE
  8
0
 10
311.5
 20
148.5
 11
337.5
 21
148.5
  0
LINE
  8
0
 10
337.5
 20
148.5
 11
337.5
 21
122.5
  0
LINE
  8
0
 10
337.5
 20
122.5
 11
311.5
 21
122.5
  0
LINE
  8
0
 10
338.5
 20
122.5
 11
338.5
 21
148.5
  0
LINE
  8
0
 10
338.5
 20
148.5
 11
351
 21
148.5
  0
LINE
  8
0
 10
351
 20
148.5
 11
351
 21
122.5
  0
LINE
  8
0
 10
351
 20
122.5
 11
338.5
 21
122.5
  0
LINE
  8
0
 10
348.118
 20
137.626
 11
347.769
 21
137.763
  0
LINE
  8
0
 10
347.769
 20
137.763
 11
347.33
 21
137.375
  0
LINE
  8
0
 10
347.33
 20
137.375
 11
346.832
 21
137.248
  0
LINE
  8
0
 10
346.832
 20
137.248
 11
346.061
 21
137.586
  0
LINE
  8
0
 10
346.061
 20
137.586
 11
345.748
 21
138.426
  0
LINE
  8
0
 10
345.748
 20
138.426
 11
346.063
 21
139.272
  0
LINE
  8
0
 10
346.063
 20
139.272
 11
346.832
 21
139.616
  0
LINE
  8
0
 10
346.832
 20
139.616
 11
347.564
 21
139.309
  0
LINE
  8
0
 10
347.564
 20
139.309
 11
347.929
 21
138.513
  0
LINE
  8
0
 10
347.929
 20
138.513
 11
348.37
 21
138.513
  0
LINE
  8
0
 10
348.37
 20
138.513
 11
348.307
 21
138.871
  0
LINE
  8
0
 10
348.307
 20
138.871
 11
348.217
 21
139.133
  0
LINE
  8
0
 10
348.217
 20
139.133
 11
347.645
 21
139.815
  0
LINE
  8
0
 10
347.645
 20
139.815
 11
346.817
 21
140.064
  0
LINE
  8
0
 10
346.817
 20
140.064
 11
345.74
 21
139.589
  0
LINE
  8
0
 10
345.74
 20
139.589
 11
345.3
 21
138.426
  0
LINE
  8
0
 10
345.3
 20
138.426
 11
345.732
 21
137.271
  0
LINE
  8
0
 10
345.732
 20
137.271
 11
346.797
 21
136.8
  0
LINE
  8
0
 10
346.797
 20
136.8
 11
347.183
 21
136.854
  0
LINE
  8
0
 10
347.183
 20
136.854
 11
347.573
 21
137.034
  0
LINE
  8
0
 10
347.573
 20
137.034
 11
347.353
 21
135.811
  0
LINE
  8
0
 10
347.353
 20
135.811
 11
345.675
 21
135.811
  0
LINE
  8
0
 10
345.675
 20
135.811
 11
345.675
 21
135.392
  0
LINE
  8
0
 10
345.675
 20
135.392
 11
347.714
 21
135.392
  0
LINE
  8
0
 10
347.714
 20
135.392
 11
348.118
 21
137.626
  0
LINE
  8
0
 10
1
 20
95.5
 11
1
 21
121.5
  0
LINE
  8
0
 10
1
 20
121.5
 11
13.5
 21
121.5
  0
LINE
  8
0
 10
13.5
 20
121.5
 11
13.5
 21
95.5
  0
LINE
  8
0
 10
13.5
 20
95.5
 11
1
 21
95.5
  0
LINE
  8
0
 10
7.31599
 20
103.832
 11
7.73299
 21
103.832
  0
LINE
  8
0
 10
7.73299
 20
103.832
 11
7.73299
 21
104.28
  0
LINE
  8
0
 10
7.73299
 20
104.28
 11
7.31599
 21
104.28
  0
LINE
  8
0
 10
7.31599
 20
104.28
 11
7.31599
 21
107.608
  0
LINE
  8
0
 10
7.31599
 20
107.608
 11
6.782
 21
107.608
  0
LINE
  8
0
 10
6.782
 20
107.608
 11
4.577
 21
104.28
  0
LINE
  8
0
 10
4.577
 20
104.28
 11
4.577
 21
103.832
  0
LINE
  8
0
 10
4.577
 20
103.832
 11
6.868
 21
103.832
  0
LINE
  8
0
 10
6.868
 20
103.832
 11
6.868
 21
103
  0
LINE
  8
0
 10
6.868
 20
103
 11
7.31599
 21
103
  0
LINE
  8
0
 10
7.31599
 20
103
 11
7.31599
 21
103.832
  0
LINE
  8
0
 10
5.09799
 20
104.28
 11
6.868
 21
106.976
  0
LINE
  8
0
 10
6.868
 20
106.976
 11
6.868
 21
104.28
  0
LINE
  8
0
 10
6.868
 20
104.28
 11
5.09799
 21
104.28
  0
LINE
  8
0
 10
14.5
 20
95.5
 11
14.5
 21
121.5
  0
LINE
  8
0
 10
14.5
 20
121.5
 11
40.5
 21
121.5
  0
LINE
  8
0
 10
40.5
 20
121.5
 11
40.5
 21
95.5
  0
LINE
  8
0
 10
40.5
 20
95.5
 11
14.5
 21
95.5
  0
LINE
  8
0
 10
41.5
 20
95.5
 11
41.5
 21
121.5
  0
LINE
  8
0
 10
41.5
 20
121.5
 11
67.5
 21
121.5
  0
LINE
  8
0
 10
67.5
 20
121.5
 11
67.5
 21
95.5
  0
LINE
  8
0
 10
67.5
 20
95.5
 11
41.5
 21
95.5
  0
LINE
  8
0
 10
68.5
 20
95.5
 11
68.5
 21
121.5
  0
LINE
  8
0
 10
68.5
 20
121.5
 11
94.5
 21
121.5
  0
LINE
  8
0
 10
94.5
 20
121.5
 11
94.5
 21
95.5
  0
LINE
  8
0
 10
94.5
 20
95.5
 11
68.5
 21
95.5
  0
LINE
  8
0
 10
95.5
 20
95.5
 11
95.5
 21
121.5
  0
LINE
  8
0
 10
95.5
 20
121.5
 11
121.5
 21
121.5
  0
LINE
  8
0
 10
121.5
 20
121.5
 11
121.5
 21
95.5
  0
LINE
  8
0
 10
121.5
 20
95.5
 11
95.5
 21
95.5
  0
LINE
  8
0
 10
122.5
 20
95.5
 11
122.5
 21
121.5
  0
LINE
  8
0
 10
122.5
 20
121.5
 11
148.5
 21
121.5
  0
LINE
  8
0
 10
148.5
 20
121.5
 11
148.5
 21
95.5
  0
LINE
  8
0
 10
148.5
 20
95.5
 11
122.5
 21
95.5
  0
LINE
  8
0
 10
149.5
 20
95.5
 11
149.5
 21
121.5
  0
LINE
  8
0
 10
149.5
 20
121.5
 11
175.5
 21
121.5
  0
LINE
  8
0
 10
175.5
 20
121.5
 11
175.5
 21
95.5
  0
LINE
  8
0
 10
175.5
 20
95.5
 11
149.5
 21
95.5
  0
LINE
  8
0
 10
176.5
 20
95.5
 11
176.5
 21
121.5
  0
LINE
  8
0
 10
176.5
 20
121.5
 11
202.5
 21
121.5
  0
LINE
  8
0
 10
202.5
 20
121.5
 11
202.5
 21
95.5
  0
LINE
  8
0
 10
202.5
 20
95.5
 11
176.5
 21
95.5
  0
LINE
  8
0
 10
203.5
 20
95.5
 11
203.5
 21
121.5
  0
LINE
  8
0
 10
203.5
 20
121.5
 11
229.5
 21
121.5
  0
LINE
  8
0
 10
229.5
 20
121.5
 11
229.5
 21
95.5
  0
LINE
  8
0
 10
229.5
 20
95.5
 11
203.5
 21
95.5
  0
LINE
  8
0
 10
230.5
 20
95.5
 11
230.5
 21
121.5
  0
LINE
  8
0
 10
230.5
 20
121.5
 11
256.5
 21
121.5
  0
LINE
  8
0
 10
256.5
 20
121.5
 11
256.5
 21
95.5
  0
LINE
  8
0
 10
256.5
 20
95.5
 11
230.5
 21
95.5
  0
LINE
  8
0
 10
257.5
 20
95.5
 11
257.5
 21
121.5
  0
LINE
  8
0
 10
257.5
 20
121.5
 11
283.5
 21
121.5
  0
LINE
  8
0
 10
283.5
 20
121.5
 11
283.5
 21
95.5
  0
LINE
  8
0
 10
283.5
 20
95.5
 11
257.5
 21
95.5
  0
LINE
  8
0
 10
284.5
 20
95.5
 11
284.5
 21
121.5
  0
LINE
  8
0
 10
284.5
 20
121.5
 11
310.5
 21
121.5
  0
LINE
  8
0
 10
310.5
 20
121.5
 11
310.5
 21
95.5
  0
LINE
  8
0
 10
310.5
 20
95.5
 11
284.5
 21
95.5
  0
LINE
  8
0
 10
311.5
 20
95.5
 11
311.5
 21
121.5
  0
LINE
  8
0
 10
311.5
 20
121.5
 11
337.5
 21
121.5
  0
LINE
  8
0
 10
337.5
 20
121.5
 11
337.5
 21
95.5
  0
LINE
  8
0
 10
337.5
 20
95.5
 11
311.5
 21
95.5
  0
LINE
  8
0
 10
338.5
 20
95.5
 11
338.5
 21
121.5
  0
LINE
  8
0
 10
338.5
 20
121.5
 11
351
 21
121.5
  0
LINE
  8
0
 10
351
 20
121.5
 11
351
 21
95.5
  0
LINE
  8
0
 10
351
 20
95.5
 11
338.5
 21
95.5
  0
LINE
  8
0
 10
348.423
 20
111.72
 11
348.423
 21
112.168
  0
LINE
  8
0
 10
348.423
 20
112.168
 11
346.132
 21
112.168
  0
LINE
  8
0
 10
346.132
 20
112.168
 11
346.132
 21
113
  0
LINE
  8
0
 10
346.132
 20
113
 11
345.684
 21
113
  0
LINE
  8
0
 10
345.684
 20
113
 11
345.684
 21
112.168
  0
LINE
  8
0
 10
345.684
 20
112.168
 11
345.267
 21
112.168
  0
LINE
  8
0
 10
345.267
 20
112.168
 11
345.267
 21
111.72
  0
LINE
  8
0
 10
345.267
 20
111.72
 11
345.684
 21
111.72
  0
LINE
  8
0
 10
345.684
 20
111.72
 11
345.684
 21
108.392
  0
LINE
  8
0
 10
345.684
 20
108.392
 11
346.218
 21
108.392
  0
LINE
  8
0
 10
346.218
 20
108.392
 11
348.423
 21
111.72
  0
LINE
  8
0
 10
346.132
 20
111.72
 11
347.902
 21
111.72
  0
LINE
  8
0
 10
347.902
 20
111.72
 11
346.132
 21
109.024
  0
LINE
  8
0
 10
346.132
 20
109.024
 11
346.132
 21
111.72
  0
LINE
  8
0
 10
1
 20
68.5
 11
1
 21
94.5
  0
LINE
  8
0
 10
1
 20
94.5
 11
13.5
 21
94.5
  0
LINE
  8
0
 10
13.5
 20
94.5
 11
13.5
 21
68.5
  0
LINE
  8
0
 10
13.5
 20
68.5
 11
1
 21
68.5
  0
LINE
  8
0
 10
7.15799
 20
76.3657
 11
7.57199
 21
77.421
  0
LINE
  8
0
 10
7.57199
 20
77.421
 11
7.37624
 21
78.1542
  0
LINE
  8
0
 10
7.37624
 20
78.1542
 11
6.79199
 21
78.667
  0
LINE
  8
0
 10
6.79199
 20
78.667
 11
7.14012
 21
79.0542
  0
LINE
  8
0
 10
7.14012
 20
79.0542
 11
7.252
 21
79.56
  0
LINE
  8
0
 10
7.252
 20
79.56
 11
6.93375
 21
80.4075
  0
LINE
  8
0
 10
6.93375
 20
80.4075
 11
6.116
 21
80.736
  0
LINE
  8
0
 10
6.116
 20
80.736
 11
5.29887
 21
80.3984
  0
LINE
  8
0
 10
5.29887
 20
80.3984
 11
4.97299
 21
79.484
  0
LINE
  8
0
 10
4.97299
 20
79.484
 11
5.42
 21
79.484
  0
LINE
  8
0
 10
5.42
 20
79.484
 11
5.60587
 21
80.0761
  0
LINE
  8
0
 10
5.60587
 20
80.0761
 11
6.118
 21
80.288
  0
LINE
  8
0
 10
6.118
 20
80.288
 11
6.61249
 21
80.0861
  0
LINE
  8
0
 10
6.61249
 20
80.0861
 11
6.80399
 21
79.564
  0
LINE
  8
0
 10
6.80399
 20
79.564
 11
6.59499
 21
79.0426
  0
LINE
  8
0
 10
6.59499
 20
79.0426
 11
6.032
 21
78.846
  0
LINE
  8
0
 10
6.032
 20
78.846
 11
5.98787
 21
78.8469
  0
LINE
  8
0
 10
5.98787
 20
78.8469
 11
5.91599
 21
78.853
  0
LINE
  8
0
 10
5.91599
 20
78.853
 11
5.812
 21
78.859
  0
LINE
  8
0
 10
5.812
 20
78.859
 11
5.812
 21
78.45
  0
LINE
  8
0
 10
5.812
 20
78.45
 11
6.14311
 21
78.4386
  0
LINE
  8
0
 10
6.14311
 20
78.4386
 11
6.34299
 21
78.413
  0
LINE
  8
0
 10
6.34299
 20
78.413
 11
6.90674
 21
78.0511
  0
LINE
  8
0
 10
6.90674
 20
78.0511
 11
7.12399
 21
77.411
  0
LINE
  8
0
 10
7.12399
 20
77.411
 11
6.83786
 21
76.6792
  0
LINE
  8
0
 10
6.83786
 20
76.6792
 11
6.13399
 21
76.384
  0
LINE
  8
0
 10
6.13399
 20
76.384
 11
5.65874
 21
76.5
  0
LINE
  8
0
 10
5.65874
 20
76.5
 11
5.299
 21
76.829
  0
LINE
  8
0
 10
5.299
 20
76.829
 11
5.17725
 21
77.0936
  0
LINE
  8
0
 10
5.17725
 20
77.0936
 11
5.12
 21
77.479
  0
LINE
  8
0
 10
5.12
 20
77.479
 11
4.672
 21
77.479
  0
LINE
  8
0
 10
4.672
 20
77.479
 11
4.72662
 21
77.0344
  0
LINE
  8
0
 10
4.72662
 20
77.0344
 11
4.86899
 21
76.67
  0
LINE
  8
0
 10
4.86899
 20
76.67
 11
5.39774
 21
76.132
  0
LINE
  8
0
 10
5.39774
 20
76.132
 11
6.144
 21
75.936
  0
LINE
  8
0
 10
6.144
 20
75.936
 11
7.15799
 21
76.3657
  0
LINE
  8
0
 10
14.5
 20
68.5
 11
14.5
 21
94.5
  0
LINE
  8
0
 10
14.5
 20
94.5
 11
40.5
 21
94.5
  0
LINE
  8
0
 10
40.5
 20
94.5
 11
40.5
 21
68.5
  0
LINE
  8
0
 10
40.5
 20
68.5
 11
14.5
 21
68.5
  0
LINE
  8
0
 10
41.5
 20
68.5
 11
41.5
 21
94.5
  0
LINE
  8
0
 10
41.5
 20
94.5
 11
67.5
 21
94.5
  0
LINE
  8
0
 10
67.5
 20
94.5
 11
67.5
 21
68.5
  0
LINE
  8
0
 10
67.5
 20
68.5
 11
41.5
 21
68.5
  0
LINE
  8
0
 10
68.5
 20
68.5
 11
68.5
 21
94.5
  0
LINE
  8
0
 10
68.5
 20
94.5
 11
94.5
 21
94.5
  0
LINE
  8
0
 10
94.5
 20
94.5
 11
94.5
 21
68.5
  0
LINE
  8
0
 10
94.5
 20
68.5
 11
68.5
 21
68.5
  0
LINE
  8
0
 10
95.5
 20
68.5
 11
95.5
 21
94.5
  0
LINE
  8
0
 10
95.5
 20
94.5
 11
121.5
 21
94.5
  0
LINE
  8
0
 10
121.5
 20
94.5
 11
121.5
 21
68.5
  0
LINE
  8
0
 10
121.5
 20
68.5
 11
95.5
 21
68.5
  0
LINE
  8
0
 10
122.5
 20
68.5
 11
122.5
 21
94.5
  0
LINE
  8
0
 10
122.5
 20
94.5
 11
148.5
 21
94.5
  0
LINE
  8
0
 10
148.5
 20
94.5
 11
148.5
 21
68.5
  0
LINE
  8
0
 10
148.5
 20
68.5
 11
122.5
 21
68.5
  0
LINE
  8
0
 10
149.5
 20
68.5
 11
149.5
 21
94.5
  0
LINE
  8
0
 10
149.5
 20
94.5
 11
175.5
 21
94.5
  0
LINE
  8
0
 10
175.5
 20
94.5
 11
175.5
 21
68.5
  0
LINE
  8
0
 10
175.5
 20
68.5
 11
149.5
 21
68.5
  0
LINE
  8
0
 10
176.5
 20
68.5
 11
176.5
 21
94.5
  0
LINE
  8
0
 10
176.5
 20
94.5
 11
202.5
 21
94.5
  0
LINE
  8
0
 10
202.5
 20
94.5
 11
202.5
 21
68.5
  0
LINE
  8
0
 10
202.5
 20
68.5
 11
176.5
 21
68.5
  0
LINE
  8
0
 10
203.5
 20
68.5
 11
203.5
 21
94.5
  0
LINE
  8
0
 10
203.5
 20
94.5
 11
229.5
 21
94.5
  0
LINE
  8
0
 10
229.5
 20
94.5
 11
229.5
 21
68.5
  0
LINE
  8
0
 10
229.5
 20
68.5
 11
203.5
 21
68.5
  0
LINE
  8
0
 10
230.5
 20
68.5
 11
230.5
 21
94.5
  0
LINE
  8
0
 10
230.5
 20
94.5
 11
256.5
 21
94.5
  0
LINE
  8
0
 10
256.5
 20
94.5
 11
256.5
 21
68.5
  0
LINE
  8
0
 10
256.5
 20
68.5
 11
230.5
 21
68.5
  0
LINE
  8
0
 10
257.5
 20
68.5
 11
257.5
 21
94.5
  0
LINE
  8
0
 10
257.5
 20
94.5
 11
283.5
 21
94.5
  0
LINE
  8
0
 10
283.5
 20
94.5
 11
283.5
 21
68.5
  0
LINE
  8
0
 10
283.5
 20
68.5
 11
257.5
 21
68.5
  0
LINE
  8
0
 10
284.5
 20
68.5
 11
284.5
 21
94.5
  0
LINE
  8
0
 10
284.5
 20
94.5
 11
310.5
 21
94.5
  0
LINE
  8
0
 10
310.5
 20
94.5
 11
310.5
 21
68.5
  0
LINE
  8
0
 10
310.5
 20
68.5
 11
284.5
 21
68.5
  0
LINE
  8
0
 10
311.5
 20
68.5
 11
311.5
 21
94.5
  0
LINE
  8
0
 10
311.5
 20
94.5
 11
337.5
 21
94.5
  0
LINE
  8
0
 10
337.5
 20
94.5
 11
337.5
 21
68.5
  0
LINE
  8
0
 10
337.5
 20
68.5
 11
311.5
 21
68.5
  0
LINE
  8
0
 10
338.5
 20
68.5
 11
338.5
 21
94.5
  0
LINE
  8
0
 10
338.5
 20
94.5
 11
351
 21
94.5
  0
LINE
  8
0
 10
351
 20
94.5
 11
351
 21
68.5
  0
LINE
  8
0
 10
351
 20
68.5
 11
338.5
 21
68.5
  0
LINE
  8
0
 10
347.701
 20
81.6016
 11
348.027
 21
82.516
  0
LINE
  8
0
 10
348.027
 20
82.516
 11
347.58
 21
82.516
  0
LINE
  8
0
 10
347.58
 20
82.516
 11
347.394
 21
81.9239
  0
LINE
  8
0
 10
347.394
 20
81.9239
 11
346.882
 21
81.712
  0
LINE
  8
0
 10
346.882
 20
81.712
 11
346.388
 21
81.9139
  0
LINE
  8
0
 10
346.388
 20
81.9139
 11
346.196
 21
82.436
  0
LINE
  8
0
 10
346.196
 20
82.436
 11
346.405
 21
82.9574
  0
LINE
  8
0
 10
346.405
 20
82.9574
 11
346.968
 21
83.154
  0
LINE
  8
0
 10
346.968
 20
83.154
 11
347.012
 21
83.1531
  0
LINE
  8
0
 10
347.012
 20
83.1531
 11
347.084
 21
83.147
  0
LINE
  8
0
 10
347.084
 20
83.147
 11
347.188
 21
83.141
  0
LINE
  8
0
 10
347.188
 20
83.141
 11
347.188
 21
83.55
  0
LINE
  8
0
 10
347.188
 20
83.55
 11
346.857
 21
83.5614
  0
LINE
  8
0
 10
346.857
 20
83.5614
 11
346.657
 21
83.587
  0
LINE
  8
0
 10
346.657
 20
83.587
 11
346.093
 21
83.9489
  0
LINE
  8
0
 10
346.093
 20
83.9489
 11
345.876
 21
84.589
  0
LINE
  8
0
 10
345.876
 20
84.589
 11
346.162
 21
85.3208
  0
LINE
  8
0
 10
346.162
 20
85.3208
 11
346.866
 21
85.616
  0
LINE
  8
0
 10
346.866
 20
85.616
 11
347.341
 21
85.5
  0
LINE
  8
0
 10
347.341
 20
85.5
 11
347.701
 21
85.171
  0
LINE
  8
0
 10
347.701
 20
85.171
 11
347.823
 21
84.9064
  0
LINE
  8
0
 10
347.823
 20
84.9064
 11
347.88
 21
84.521
  0
LINE
  8
0
 10
347.88
 20
84.521
 11
348.328
 21
84.521
  0
LINE
  8
0
 10
348.328
 20
84.521
 11
348.273
 21
84.9656
  0
LINE
  8
0
 10
348.273
 20
84.9656
 11
348.131
 21
85.33
  0
LINE
  8
0
 10
348.131
 20
85.33
 11
347.602
 21
85.868
  0
LINE
  8
0
 10
347.602
 20
85.868
 11
346.856
 21
86.064
  0
LINE
  8
0
 10
346.856
 20
86.064
 11
345.842
 21
85.6343
  0
LINE
  8
0
 10
345.842
 20
85.6343
 11
345.428
 21
84.579
  0
LINE
  8
0
 10
345.428
 20
84.579
 11
345.624
 21
83.8458
  0
LINE
  8
0
 10
345.624
 20
83.8458
 11
346.208
 21
83.333
  0
LINE
  8
0
 10
346.208
 20
83.333
 11
345.86
 21
82.9458
  0
LINE
  8
0
 10
345.86
 20
82.9458
 11
345.748
 21
82.44
  0
LINE
  8
0
 10
345.748
 20
82.44
 11
346.066
 21
81.5925
  0
LINE
  8
0
 10
346.066
 20
81.5925
 11
346.884
 21
81.264
  0
LINE
  8
0
 10
346.884
 20
81.264
 11
347.701
 21
81.6016
  0
LINE
  8
0
 10
1
 20
41.5
 11
1
 21
67.5
  0
LINE
  8
0
 10
1
 20
67.5
 11
13.5
 21
67.5
  0
LINE
  8
0
 10
13.5
 20
67.5
 11
13.5
 21
41.5
  0
LINE
  8
0
 10
13.5
 20
41.5
 11
1
 21
41.5
  0
LINE
  8
0
 10
7.57199
 20
49.419
 11
5.293
 21
49.419
  0
LINE
  8
0
 10
5.293
 20
49.419
 11
6.741
 21
50.85
  0
LINE
  8
0
 10
6.741
 20
50.85
 11
7.39462
 21
51.6312
  0
LINE
  8
0
 10
7.39462
 20
51.6312
 11
7.57199
 21
52.318
  0
LINE
  8
0
 10
7.57199
 20
52.318
 11
7.16937
 21
53.3341
  0
LINE
  8
0
 10
7.16937
 20
53.3341
 11
6.14799
 21
53.736
  0
LINE
  8
0
 10
6.14799
 20
53.736
 11
5.321
 21
53.4922
  0
LINE
  8
0
 10
5.321
 20
53.4922
 11
4.81499
 21
52.818
  0
LINE
  8
0
 10
4.81499
 20
52.818
 11
4.73599
 21
52.5145
  0
LINE
  8
0
 10
4.73599
 20
52.5145
 11
4.717
 21
52.13
  0
LINE
  8
0
 10
4.717
 20
52.13
 11
5.16399
 21
52.13
  0
LINE
  8
0
 10
5.16399
 20
52.13
 11
5.19237
 21
52.4936
  0
LINE
  8
0
 10
5.19237
 20
52.4936
 11
5.28
 21
52.768
  0
LINE
  8
0
 10
5.28
 20
52.768
 11
5.62724
 21
53.1502
  0
LINE
  8
0
 10
5.62724
 20
53.1502
 11
6.144
 21
53.288
  0
LINE
  8
0
 10
6.144
 20
53.288
 11
6.84775
 21
53.0149
  0
LINE
  8
0
 10
6.84775
 20
53.0149
 11
7.12399
 21
52.324
  0
LINE
  8
0
 10
7.12399
 20
52.324
 11
7.04736
 21
51.9311
  0
LINE
  8
0
 10
7.04736
 20
51.9311
 11
6.80499
 21
51.548
  0
LINE
  8
0
 10
6.80499
 20
51.548
 11
6.63712
 21
51.3507
  0
LINE
  8
0
 10
6.63712
 20
51.3507
 11
4.67999
 21
49.419
  0
LINE
  8
0
 10
4.67999
 20
49.419
 11
4.67999
 21
49
  0
LINE
  8
0
 10
4.67999
 20
49
 11
7.57199
 21
49
  0
LINE
  8
0
 10
7.57199
 20
49
 11
7.57199
 21
49.419
  0
LINE
  8
0
 10
14.5
 20
41.5
 11
14.5
 21
67.5
  0
LINE
  8
0
 10
14.5
 20
67.5
 11
40.5
 21
67.5
  0
LINE
  8
0
 10
40.5
 20
67.5
 11
40.5
 21
41.5
  0
LINE
  8
0
 10
40.5
 20
41.5
 11
14.5
 21
41.5
  0
LINE
  8
0
 10
41.5
 20
41.5
 11
41.5
 21
67.5
  0
LINE
  8
0
 10
41.5
 20
67.5
 11
67.5
 21
67.5
  0
LINE
  8
0
 10
67.5
 20
67.5
 11
67.5
 21
41.5
  0
LINE
  8
0
 10
67.5
 20
41.5
 11
41.5
 21
41.5
  0
LINE
  8
0
 10
68.5
 20
41.5
 11
68.5
 21
67.5
  0
LINE
  8
0
 10
68.5
 20
67.5
 11
94.5
 21
67.5
  0
LINE
  8
0
 10
94.5
 20
67.5
 11
94.5
 21
41.5
  0
LINE
  8
0
 10
94.5
 20
41.5
 11
68.5
 21
41.5
  0
LINE
  8
0
 10
95.5
 20
41.5
 11
95.5
 21
67.5
  0
LINE
  8
0
 10
95.5
 20
67.5
 11
121.5
 21
67.5
  0
LINE
  8
0
 10
121.5
 20
67.5
 11
121.5
 21
41.5
  0
LINE
  8
0
 10
121.5
 20
41.5
 11
95.5
 21
41.5
  0
LINE
  8
0
 10
122.5
 20
41.5
 11
122.5
 21
67.5
  0
LINE
  8
0
 10
122.5
 20
67.5
 11
148.5
 21
67.5
  0
LINE
  8
0
 10
148.5
 20
67.5
 11
148.5
 21
41.5
  0
LINE
  8
0
 10
148.5
 20
41.5
 11
122.5
 21
41.5
  0
LINE
  8
0
 10
149.5
 20
41.5
 11
149.5
 21
67.5
  0
LINE
  8
0
 10
149.5
 20
67.5
 11
175.5
 21
67.5
  0
LINE
  8
0
 10
175.5
 20
67.5
 11
175.5
 21
41.5
  0
LINE
  8
0
 10
175.5
 20
41.5
 11
149.5
 21
41.5
  0
LINE
  8
0
 10
176.5
 20
41.5
 11
176.5
 21
67.5
  0
LINE
  8
0
 10
176.5
 20
67.5
 11
202.5
 21
67.5
  0
LINE
  8
0
 10
202.5
 20
67.5
 11
202.5
 21
41.5
  0
LINE
  8
0
 10
202.5
 20
41.5
 11
176.5
 21
41.5
  0
LINE
  8
0
 10
203.5
 20
41.5
 11
203.5
 21
67.5
  0
LINE
  8
0
 10
203.5
 20
67.5
 11
229.5
 21
67.5
  0
LINE
  8
0
 10
229.5
 20
67.5
 11
229.5
 21
41.5
  0
LINE
  8
0
 10
229.5
 20
41.5
 11
203.5
 21
41.5
  0
LINE
  8
0
 10
230.5
 20
41.5
 11
230.5
 21
67.5
  0
LINE
  8
0
 10
230.5
 20
67.5
 11
256.5
 21
67.5
  0
LINE
  8
0
 10
256.5
 20
67.5
 11
256.5
 21
41.5
  0
LINE
  8
0
 10
256.5
 20
41.5
 11
230.5
 21
41.5
  0
LINE
  8
0
 10
257.5
 20
41.5
 11
257.5
 21
67.5
  0
LINE
  8
0
 10
257.5
 20
67.5
 11
283.5
 21
67.5
  0
LINE
  8
0
 10
283.5
 20
67.5
 11
283.5
 21
41.5
  0
LINE
  8
0
 10
283.5
 20
41.5
 11
257.5
 21
41.5
  0
LINE
  8
0
 10
284.5
 20
41.5
 11
284.5
 21
67.5
  0
LINE
  8
0
 10
284.5
 20
67.5
 11
310.5
 21
67.5
  0
LINE
  8
0
 10
310.5
 20
67.5
 11
310.5
 21
41.5
  0
LINE
  8
0
 10
310.5
 20
41.5
 11
284.5
 21
41.5
  0
LINE
  8
0
 10
311.5
 20
41.5
 11
311.5
 21
67.5
  0
LINE
  8
0
 10
311.5
 20
67.5
 11
337.5
 21
67.5
  0
LINE
  8
0
 10
337.5
 20
67.5
 11
337.5
 21
41.5
  0
LINE
  8
0
 10
337.5
 20
41.5
 11
311.5
 21
41.5
  0
LINE
  8
0
 10
338.5
 20
41.5
 11
338.5
 21
67.5
  0
LINE
  8
0
 10
338.5
 20
67.5
 11
351
 21
67.5
  0
LINE
  8
0
 10
351
 20
67.5
 11
351
 21
41.5
  0
LINE
  8
0
 10
351
 20
41.5
 11
338.5
 21
41.5
  0
LINE
  8
0
 10
347.679
 20
54.5078
 11
348.185
 21
55.182
  0
LINE
  8
0
 10
348.185
 20
55.182
 11
348.264
 21
55.4855
  0
LINE
  8
0
 10
348.264
 20
55.4855
 11
348.283
 21
55.87
  0
LINE
  8
0
 10
348.283
 20
55.87
 11
347.836
 21
55.87
  0
LINE
  8
0
 10
347.836
 20
55.87
 11
347.808
 21
55.5064
  0
LINE
  8
0
 10
347.808
 20
55.5064
 11
347.72
 21
55.232
  0
LINE
  8
0
 10
347.72
 20
55.232
 11
347.373
 21
54.8498
  0
LINE
  8
0
 10
347.373
 20
54.8498
 11
346.856
 21
54.712
  0
LINE
  8
0
 10
346.856
 20
54.712
 11
346.152
 21
54.9851
  0
LINE
  8
0
 10
346.152
 20
54.9851
 11
345.876
 21
55.676
  0
LINE
  8
0
 10
345.876
 20
55.676
 11
345.953
 21
56.0689
  0
LINE
  8
0
 10
345.953
 20
56.0689
 11
346.195
 21
56.452
  0
LINE
  8
0
 10
346.195
 20
56.452
 11
346.363
 21
56.6493
  0
LINE
  8
0
 10
346.363
 20
56.6493
 11
348.32
 21
58.581
  0
LINE
  8
0
 10
348.32
 20
58.581
 11
348.32
 21
59
  0
LINE
  8
0
 10
348.32
 20
59
 11
345.428
 21
59
  0
LINE
  8
0
 10
345.428
 20
59
 11
345.428
 21
58.581
  0
LINE
  8
0
 10
345.428
 20
58.581
 11
347.707
 21
58.581
  0
LINE
  8
0
 10
347.707
 20
58.581
 11
346.259
 21
57.15
  0
LINE
  8
0
 10
346.259
 20
57.15
 11
345.605
 21
56.3688
  0
LINE
  8
0
 10
345.605
 20
56.3688
 11
345.428
 21
55.682
  0
LINE
  8
0
 10
345.428
 20
55.682
 11
345.831
 21
54.6659
  0
LINE
  8
0
 10
345.831
 20
54.6659
 11
346.852
 21
54.264
  0
LINE
  8
0
 10
346.852
 20
54.264
 11
347.679
 21
54.5078
  0
LINE
  8
0
 10
1
 20
14.5
 11
1
 21
40.5
  0
LINE
  8
0
 10
1
 20
40.5
 11
13.5
 21
40.5
  0
LINE
  8
0
 10
13.5
 20
40.5
 11
13.5
 21
14.5
  0
LINE
  8
0
 10
13.5
 20
14.5
 11
1
 21
14.5
  0
LINE
  8
0
 10
6.67599
 20
26.608
 11
5.45599
 21
26.608
  0
LINE
  8
0
 10
5.45599
 20
26.608
 11
5.45599
 21
26.189
  0
LINE
  8
0
 10
5.45599
 20
26.189
 11
6.228
 21
26.189
  0
LINE
  8
0
 10
6.228
 20
26.189
 11
6.228
 21
22
  0
LINE
  8
0
 10
6.228
 20
22
 11
6.67599
 21
22
  0
LINE
  8
0
 10
6.67599
 20
22
 11
6.67599
 21
26.608
  0
LINE
  8
0
 10
14.5
 20
14.5
 11
14.5
 21
40.5
  0
LINE
  8
0
 10
14.5
 20
40.5
 11
40.5
 21
40.5
  0
LINE
  8
0
 10
40.5
 20
40.5
 11
40.5
 21
14.5
  0
LINE
  8
0
 10
40.5
 20
14.5
 11
14.5
 21
14.5
  0
LINE
  8
0
 10
41.5
 20
14.5
 11
41.5
 21
40.5
  0
LINE
  8
0
 10
41.5
 20
40.5
 11
67.5
 21
40.5
  0
LINE
  8
0
 10
67.5
 20
40.5
 11
67.5
 21
14.5
  0
LINE
  8
0
 10
67.5
 20
14.5
 11
41.5
 21
14.5
  0
LINE
  8
0
 10
68.5
 20
14.5
 11
68.5
 21
40.5
  0
LINE
  8
0
 10
68.5
 20
40.5
 11
94.5
 21
40.5
  0
LINE
  8
0
 10
94.5
 20
40.5
 11
94.5
 21
14.5
  0
LINE
  8
0
 10
94.5
 20
14.5
 11
68.5
 21
14.5
  0
LINE
  8
0
 10
95.5
 20
14.5
 11
95.5
 21
40.5
  0
LINE
  8
0
 10
95.5
 20
40.5
 11
121.5
 21
40.5
  0
LINE
  8
0
 10
121.5
 20
40.5
 11
121.5
 21
14.5
  0
LINE
  8
0
 10
121.5
 20
14.5
 11
95.5
 21
14.5
  0
LINE
  8
0
 10
122.5
 20
14.5
 11
122.5
 21
40.5
  0
LINE
  8
0
 10
122.5
 20
40.5
 11
148.5
 21
40.5
  0
LINE
  8
0
 10
148.5
 20
40.5
 11
148.5
 21
14.5
  0
LINE
  8
0
 10
148.5
 20
14.5
 11
122.5
 21
14.5
  0
LINE
  8
0
 10
149.5
 20
14.5
 11
149.5
 21
40.5
  0
LINE
  8
0
 10
149.5
 20
40.5
 11
175.5
 21
40.5
  0
LINE
  8
0
 10
175.5
 20
40.5
 11
175.5
 21
14.5
  0
LINE
  8
0
 10
175.5
 20
14.5
 11
149.5
 21
14.5
  0
LINE
  8
0
 10
176.5
 20
14.5
 11
176.5
 21
40.5
  0
LINE
  8
0
 10
176.5
 20
40.5
 11
202.5
 21
40.5
  0
LINE
  8
0
 10
202.5
 20
40.5
 11
202.5
 21
14.5
  0
LINE
  8
0
 10
202.5
 20
14.5
 11
176.5
 21
14.5
  0
LINE
  8
0
 10
203.5
 20
14.5
 11
203.5
 21
40.5
  0
LINE
  8
0
 10
203.5
 20
40.5
 11
229.5
 21
40.5
  0
LINE
  8
0
 10
229.5
 20
40.5
 11
229.5
 21
14.5
  0
LINE
  8
0
 10
229.5
 20
14.5
 11
203.5
 21
14.5
  0
LINE
  8
0
 10
230.5
 20
14.5
 11
230.5
 21
40.5
  0
LINE
  8
0
 10
230.5
 20
40.5
 11
256.5
 21
40.5
  0
LINE
  8
0
 10
256.5
 20
40.5
 11
256.5
 21
14.5
  0
LINE
  8
0
 10
256.5
 20
14.5
 11
230.5
 21
14.5
  0
LINE
  8
0
 10
257.5
 20
14.5
 11
257.5
 21
40.5
  0
LINE
  8
0
 10
257.5
 20
40.5
 11
283.5
 21
40.5
  0
LINE
  8
0
 10
283.5
 20
40.5
 11
283.5
 21
14.5
  0
LINE
  8
0
 10
283.5
 20
14.5
 11
257.5
 21
14.5
  0
LINE
  8
0
 10
284.5
 20
14.5
 11
284.5
 21
40.5
  0
LINE
  8
0
 10
284.5
 20
40.5
 11
310.5
 21
40.5
  0
LINE
  8
0
 10
310.5
 20
40.5
 11
310.5
 21
14.5
  0
LINE
  8
0
 10
310.5
 20
14.5
 11
284.5
 21
14.5
  0
LINE
  8
0
 10
311.5
 20
14.5
 11
311.5
 21
40.5
  0
LINE
  8
0
 10
311.5
 20
40.5
 11
337.5
 21
40.5
  0
LINE
  8
0
 10
337.5
 20
40.5
 11
337.5
 21
14.5
  0
LINE
  8
0
 10
337.5
 20
14.5
 11
311.5
 21
14.5
  0
LINE
  8
0
 10
338.5
 20
14.5
 11
338.5
 21
40.5
  0
LINE
  8
0
 10
338.5
 20
40.5
 11
351
 21
40.5
  0
LINE
  8
0
 10
351
 20
40.5
 11
351
 21
14.5
  0
LINE
  8
0
 10
351
 20
14.5
 11
338.5
 21
14.5
  0
LINE
  8
0
 10
347.544
 20
27.811
 11
346.772
 21
27.811
  0
LINE
  8
0
 10
346.772
 20
27.811
 11
346.772
 21
32
  0
LINE
  8
0
 10
346.772
 20
32
 11
346.324
 21
32
  0
LINE
  8
0
 10
346.324
 20
32
 11
346.324
 21
27.392
  0
LINE
  8
0
 10
346.324
 20
27.392
 11
347.544
 21
27.392
  0
LINE
  8
0
 10
347.544
 20
27.392
 11
347.544
 21
27.811
  0
LINE
  8
0
 10
1
 20
1
 11
1
 21
13.5
  0
LINE
  8
0
 10
1
 20
13.5
 11
13.5
 21
13.5
  0
LINE
  8
0
 10
13.5
 20
13.5
 11
13.5
 21
1
  0
LINE
  8
0
 10
13.5
 20
1
 11
1
 21
1
  0
LINE
  8
0
 10
14.5
 20
1
 11
14.5
 21
13.5
  0
LINE
  8
0
 10
14.5
 20
13.5
 11
40.5
 21
13.5
  0
LINE
  8
0
 10
40.5
 20
13.5
 11
40.5
 21
1
  0
LINE
  8
0
 10
40.5
 20
1
 11
14.5
 21
1
  0
LINE
  8
0
 10
26.707
 20
6.536
 11
28.814
 21
6.536
  0
LINE
  8
0
 10
28.814
 20
6.536
 11
29.469
 21
5
  0
LINE
  8
0
 10
29.469
 20
5
 11
29.965
 21
5
  0
LINE
  8
0
 10
29.965
 20
5
 11
28.017
 21
9.60799
  0
LINE
  8
0
 10
28.017
 20
9.60799
 11
27.509
 21
9.60799
  0
LINE
  8
0
 10
27.509
 20
9.60799
 11
25.567
 21
5
  0
LINE
  8
0
 10
25.567
 20
5
 11
26.045
 21
5
  0
LINE
  8
0
 10
26.045
 20
5
 11
26.707
 21
6.536
  0
LINE
  8
0
 10
26.878
 20
6.98399
 11
27.766
 21
9.08699
  0
LINE
  8
0
 10
27.766
 20
9.08699
 11
28.636
 21
6.98399
  0
LINE
  8
0
 10
28.636
 20
6.98399
 11
26.878
 21
6.98399
  0
LINE
  8
0
 10
41.5
 20
1
 11
41.5
 21
13.5
  0
LINE
  8
0
 10
41.5
 20
13.5
 11
67.5
 21
13.5
  0
LINE
  8
0
 10
67.5
 20
13.5
 11
67.5
 21
1
  0
LINE
  8
0
 10
67.5
 20
1
 11
41.5
 21
1
  0
LINE
  8
0
 10
54.817
 20
5.05724
 11
55.318
 21
5.24799
  0
LINE
  8
0
 10
55.318
 20
5.24799
 11
55.6926
 21
5.6935
  0
LINE
  8
0
 10
55.6926
 20
5.6935
 11
55.828
 21
6.349
  0
LINE
  8
0
 10
55.828
 20
6.349
 11
55.6486
 21
7.05925
  0
LINE
  8
0
 10
55.6486
 20
7.05925
 11
55.08
 21
7.50699
  0
LINE
  8
0
 10
55.08
 20
7.50699
 11
55.4542
 21
7.87924
  0
LINE
  8
0
 10
55.4542
 20
7.87924
 11
55.572
 21
8.439
  0
LINE
  8
0
 10
55.572
 20
8.439
 11
55.4656
 21
8.9675
  0
LINE
  8
0
 10
55.4656
 20
8.9675
 11
55.165
 21
9.34599
  0
LINE
  8
0
 10
55.165
 20
9.34599
 11
54.7005
 21
9.54562
  0
LINE
  8
0
 10
54.7005
 20
9.54562
 11
54.014
 21
9.60799
  0
LINE
  8
0
 10
54.014
 20
9.60799
 11
52.948
 21
9.60799
  0
LINE
  8
0
 10
52.948
 20
9.60799
 11
52.948
 21
5
  0
LINE
  8
0
 10
52.948
 20
5
 11
54.076
 21
5
  0
LINE
  8
0
 10
54.076
 20
5
 11
54.817
 21
5.05724
  0
LINE
  8
0
 10
53.396
 20
7.68799
 11
53.396
 21
9.189
  0
LINE
  8
0
 10
53.396
 20
9.189
 11
53.951
 21
9.189
  0
LINE
  8
0
 10
53.951
 20
9.189
 11
54.5156
 21
9.15387
  0
LINE
  8
0
 10
54.5156
 20
9.15387
 11
54.856
 21
9.034
  0
LINE
  8
0
 10
54.856
 20
9.034
 11
55.0507
 21
8.79312
  0
LINE
  8
0
 10
55.0507
 20
8.79312
 11
55.124
 21
8.43599
  0
LINE
  8
0
 10
55.124
 20
8.43599
 11
55.0326
 21
8.0425
  0
LINE
  8
0
 10
55.0326
 20
8.0425
 11
54.768
 21
7.80199
  0
LINE
  8
0
 10
54.768
 20
7.80199
 11
54.4469
 21
7.71349
  0
LINE
  8
0
 10
54.4469
 20
7.71349
 11
53.957
 21
7.68799
  0
LINE
  8
0
 10
53.957
 20
7.68799
 11
53.396
 21
7.68799
  0
LINE
  8
0
 10
53.396
 20
5.41899
 11
53.396
 21
7.23999
  0
LINE
  8
0
 10
53.396
 20
7.23999
 11
53.943
 21
7.23999
  0
LINE
  8
0
 10
53.943
 20
7.23999
 11
54.5775
 21
7.20912
  0
LINE
  8
0
 10
54.5775
 20
7.20912
 11
54.951
 21
7.10699
  0
LINE
  8
0
 10
54.951
 20
7.10699
 11
55.2682
 21
6.79825
  0
LINE
  8
0
 10
55.2682
 20
6.79825
 11
55.38
 21
6.314
  0
LINE
  8
0
 10
55.38
 20
6.314
 11
55.2812
 21
5.87361
  0
LINE
  8
0
 10
55.2812
 20
5.87361
 11
55.019
 21
5.59
  0
LINE
  8
0
 10
55.019
 20
5.59
 11
54.6152
 21
5.45949
  0
LINE
  8
0
 10
54.6152
 20
5.45949
 11
54.024
 21
5.41899
  0
LINE
  8
0
 10
54.024
 20
5.41899
 11
53.396
 21
5.41899
  0
LINE
  8
0
 10
68.5
 20
1
 11
68.5
 21
13.5
  0
LINE
  8
0
 10
68.5
 20
13.5
 11
94.5
 21
13.5
  0
LINE
  8
0
 10
94.5
 20
13.5
 11
94.5
 21
1
  0
LINE
  8
0
 10
94.5
 20
1
 11
68.5
 21
1
  0
LINE
  8
0
 10
83.3329
 20
5.26437
 11
84.191
 21
6.23999
  0
LINE
  8
0
 10
84.191
 20
6.23999
 11
83.689
 21
6.23999
  0
LINE
  8
0
 10
83.689
 20
6.23999
 11
83.4486
 21
5.95387
  0
LINE
  8
0
 10
83.4486
 20
5.95387
 11
83.236
 21
5.75999
  0
LINE
  8
0
 10
83.236
 20
5.75999
 11
82.7167
 21
5.48161
  0
LINE
  8
0
 10
82.7167
 20
5.48161
 11
82.115
 21
5.38399
  0
LINE
  8
0
 10
82.115
 20
5.38399
 11
80.7669
 21
5.95874
  0
LINE
  8
0
 10
80.7669
 20
5.95874
 11
80.204
 21
7.33899
  0
LINE
  8
0
 10
80.204
 20
7.33899
 11
80.7522
 21
8.72787
  0
LINE
  8
0
 10
80.7522
 20
8.72787
 11
82.109
 21
9.28799
  0
LINE
  8
0
 10
82.109
 20
9.28799
 11
82.6735
 21
9.20724
  0
LINE
  8
0
 10
82.6735
 20
9.20724
 11
83.169
 21
8.96899
  0
LINE
  8
0
 10
83.169
 20
8.96899
 11
83.4282
 21
8.74612
  0
LINE
  8
0
 10
83.4282
 20
8.74612
 11
83.665
 21
8.41299
  0
LINE
  8
0
 10
83.665
 20
8.41299
 11
84.173
 21
8.41299
  0
LINE
  8
0
 10
84.173
 20
8.41299
 11
83.3546
 21
9.38199
  0
LINE
  8
0
 10
83.3546
 20
9.38199
 11
82.096
 21
9.73599
  0
LINE
  8
0
 10
82.096
 20
9.73599
 11
80.422
 21
9.04811
  0
LINE
  8
0
 10
80.422
 20
9.04811
 11
79.756
 21
7.31999
  0
LINE
  8
0
 10
79.756
 20
7.31999
 11
80.4347
 21
5.61987
  0
LINE
  8
0
 10
80.4347
 20
5.61987
 11
82.126
 21
4.936
  0
LINE
  8
0
 10
82.126
 20
4.936
 11
83.3329
 21
5.26437
  0
LINE
  8
0
 10
95.5
 20
1
 11
95.5
 21
13.5
  0
LINE
  8
0
 10
95.5
 20
13.5
 11
121.5
 21
13.5
  0
LINE
  8
0
 10
121.5
 20
13.5
 11
121.5
 21
1
  0
LINE
  8
0
 10
121.5
 20
1
 11
95.5
 21
1
  0
LINE
  8
0
 10
109.059
 20
5.08261
 11
109.735
 21
5.34299
  0
LINE
  8
0
 10
109.735
 20
5.34299
 11
110.52
 21
6.14711
  0
LINE
  8
0
 10
110.52
 20
6.14711
 11
110.788
 21
7.28799
  0
LINE
  8
0
 10
110.788
 20
7.28799
 11
110.525
 21
8.44025
  0
LINE
  8
0
 10
110.525
 20
8.44025
 11
109.754
 21
9.24599
  0
LINE
  8
0
 10
109.754
 20
9.24599
 11
109.034
 21
9.52524
  0
LINE
  8
0
 10
109.034
 20
9.52524
 11
108.019
 21
9.60799
  0
LINE
  8
0
 10
108.019
 20
9.60799
 11
106.948
 21
9.60799
  0
LINE
  8
0
 10
106.948
 20
9.60799
 11
106.948
 21
5
  0
LINE
  8
0
 10
106.948
 20
5
 11
108.171
 21
5
  0
LINE
  8
0
 10
108.171
 20
5
 11
109.059
 21
5.08261
  0
LINE
  8
0
 10
107.396
 20
5.41899
 11
107.396
 21
9.189
  0
LINE
  8
0
 10
107.396
 20
9.189
 11
108.034
 21
9.189
  0
LINE
  8
0
 10
108.034
 20
9.189
 11
108.902
 21
9.11899
  0
LINE
  8
0
 10
108.902
 20
9.11899
 11
109.509
 21
8.89
  0
LINE
  8
0
 10
109.509
 20
8.89
 11
110.122
 21
8.2365
  0
LINE
  8
0
 10
110.122
 20
8.2365
 11
110.34
 21
7.30699
  0
LINE
  8
0
 10
110.34
 20
7.30699
 11
110.169
 21
6.47061
  0
LINE
  8
0
 10
110.169
 20
6.47061
 11
109.683
 21
5.82999
  0
LINE
  8
0
 10
109.683
 20
5.82999
 11
109.026
 21
5.51462
  0
LINE
  8
0
 10
109.026
 20
5.51462
 11
108.034
 21
5.41899
  0
LINE
  8
0
 10
108.034
 20
5.41899
 11
107.396
 21
5.41899
  0
LINE
  8
0
 10
122.5
 20
1
 11
122.5
 21
13.5
  0
LINE
  8
0
 10
122.5
 20
13.5
 11
148.5
 21
13.5
  0
LINE
  8
0
 10
148.5
 20
13.5
 11
148.5
 21
1
  0
LINE
  8
0
 10
148.5
 20
1
 11
122.5
 21
1
  0
LINE
  8
0
 10
136.417
 20
5.41899
 11
134.396
 21
5.41899
  0
LINE
  8
0
 10
134.396
 20
5.41899
 11
134.396
 21
7.112
  0
LINE
  8
0
 10
134.396
 20
7.112
 11
136.35
 21
7.112
  0
LINE
  8
0
 10
136.35
 20
7.112
 11
136.35
 21
7.56
  0
LINE
  8
0
 10
136.35
 20
7.56
 11
134.396
 21
7.56
  0
LINE
  8
0
 10
134.396
 20
7.56
 11
134.396
 21
9.189
  0
LINE
  8
0
 10
134.396
 20
9.189
 11
136.417
 21
9.189
  0
LINE
  8
0
 10
136.417
 20
9.189
 11
136.417
 21
9.60799
  0
LINE
  8
0
 10
136.417
 20
9.60799
 11
133.948
 21
9.60799
  0
LINE
  8
0
 10
133.948
 20
9.60799
 11
133.948
 21
5
  0
LINE
  8
0
 10
133.948
 20
5
 11
136.417
 21
5
  0
LINE
  8
0
 10
136.417
 20
5
 11
136.417
 21
5.41899
  0
LINE
  8
0
 10
149.5
 20
1
 11
149.5
 21
13.5
  0
LINE
  8
0
 10
149.5
 20
13.5
 11
175.5
 21
13.5
  0
LINE
  8
0
 10
175.5
 20
13.5
 11
175.5
 21
1
  0
LINE
  8
0
 10
175.5
 20
1
 11
149.5
 21
1
  0
LINE
  8
0
 10
161.396
 20
7.112
 11
163.172
 21
7.112
  0
LINE
  8
0
 10
163.172
 20
7.112
 11
163.172
 21
7.56
  0
LINE
  8
0
 10
163.172
 20
7.56
 11
161.396
 21
7.56
  0
LINE
  8
0
 10
161.396
 20
7.56
 11
161.396
 21
9.189
  0
LINE
  8
0
 10
161.396
 20
9.189
 11
163.24
 21
9.189
  0
LINE
  8
0
 10
163.24
 20
9.189
 11
163.24
 21
9.60799
  0
LINE
  8
0
 10
163.24
 20
9.60799
 11
160.948
 21
9.60799
  0
LINE
  8
0
 10
160.948
 20
9.60799
 11
160.948
 21
5
  0
LINE
  8
0
 10
160.948
 20
5
 11
161.396
 21
5
  0
LINE
  8
0
 10
161.396
 20
5
 11
161.396
 21
7.112
  0
LINE
  8
0
 10
176.5
 20
1
 11
176.5
 21
13.5
  0
LINE
  8
0
 10
176.5
 20
13.5
 11
202.5
 21
13.5
  0
LINE
  8
0
 10
202.5
 20
13.5
 11
202.5
 21
1
  0
LINE
  8
0
 10
202.5
 20
1
 11
176.5
 21
1
  0
LINE
  8
0
 10
191.197
 20
5.13911
 11
191.972
 21
5.72699
  0
LINE
  8
0
 10
191.972
 20
5.72699
 11
192.394
 21
6.41849
  0
LINE
  8
0
 10
192.394
 20
6.41849
 11
192.565
 21
7.17599
  0
LINE
  8
0
 10
192.565
 20
7.17599
 11
189.49
 21
7.17599
  0
LINE
  8
0
 10
189.49
 20
7.17599
 11
189.49
 21
6.728
  0
LINE
  8
0
 10
189.49
 20
6.728
 11
192.02
 21
6.728
  0
LINE
  8
0
 10
192.02
 20
6.728
 11
191.852
 21
6.31212
  0
LINE
  8
0
 10
191.852
 20
6.31212
 11
191.542
 21
5.924
  0
LINE
  8
0
 10
191.542
 20
5.924
 11
190.932
 21
5.52274
  0
LINE
  8
0
 10
190.932
 20
5.52274
 11
190.189
 21
5.38399
  0
LINE
  8
0
 10
190.189
 20
5.38399
 11
188.781
 21
5.94899
  0
LINE
  8
0
 10
188.781
 20
5.94899
 11
188.204
 21
7.33299
  0
LINE
  8
0
 10
188.204
 20
7.33299
 11
188.775
 21
8.72487
  0
LINE
  8
0
 10
188.775
 20
8.72487
 11
190.182
 21
9.28799
  0
LINE
  8
0
 10
190.182
 20
9.28799
 11
191.127
 21
9.05875
  0
LINE
  8
0
 10
191.127
 20
9.05875
 11
191.781
 21
8.41399
  0
LINE
  8
0
 10
191.781
 20
8.41399
 11
192.289
 21
8.41399
  0
LINE
  8
0
 10
192.289
 20
8.41399
 11
191.476
 21
9.37236
  0
LINE
  8
0
 10
191.476
 20
9.37236
 11
190.151
 21
9.73599
  0
LINE
  8
0
 10
190.151
 20
9.73599
 11
188.449
 21
9.04411
  0
LINE
  8
0
 10
188.449
 20
9.04411
 11
187.756
 21
7.34499
  0
LINE
  8
0
 10
187.756
 20
7.34499
 11
188.466
 21
5.63237
  0
LINE
  8
0
 10
188.466
 20
5.63237
 11
190.212
 21
4.936
  0
LINE
  8
0
 10
190.212
 20
4.936
 11
191.197
 21
5.13911
  0
LINE
  8
0
 10
203.5
 20
1
 11
203.5
 21
13.5
  0
LINE
  8
0
 10
203.5
 20
13.5
 11
229.5
 21
13.5
  0
LINE
  8
0
 10
229.5
 20
13.5
 11
229.5
 21
1
  0
LINE
  8
0
 10
229.5
 20
1
 11
203.5
 21
1
  0
LINE
  8
0
 10
215.396
 20
7.17599
 11
217.764
 21
7.17599
  0
LINE
  8
0
 10
217.764
 20
7.17599
 11
217.764
 21
5
  0
LINE
  8
0
 10
217.764
 20
5
 11
218.212
 21
5
  0
LINE
  8
0
 10
218.212
 20
5
 11
218.212
 21
9.60799
  0
LINE
  8
0
 10
218.212
 20
9.60799
 11
217.764
 21
9.60799
  0
LINE
  8
0
 10
217.764
 20
9.60799
 11
217.764
 21
7.62399
  0
LINE
  8
0
 10
217.764
 20
7.62399
 11
215.396
 21
7.62399
  0
LINE
  8
0
 10
215.396
 20
7.62399
 11
215.396
 21
9.60799
  0
LINE
  8
0
 10
215.396
 20
9.60799
 11
214.948
 21
9.60799
  0
LINE
  8
0
 10
214.948
 20
9.60799
 11
214.948
 21
5
  0
LINE
  8
0
 10
214.948
 20
5
 11
215.396
 21
5
  0
LINE
  8
0
 10
215.396
 20
5
 11
215.396
 21
7.17599
  0
LINE
  8
0
 10
230.5
 20
1
 11
230.5
 21
13.5
  0
LINE
  8
0
 10
230.5
 20
13.5
 11
256.5
 21
13.5
  0
LINE
  8
0
 10
256.5
 20
13.5
 11
256.5
 21
1
  0
LINE
  8
0
 10
256.5
 20
1
 11
230.5
 21
1
  0
LINE
  8
0
 10
242.396
 20
9.60799
 11
241.948
 21
9.60799
  0
LINE
  8
0
 10
241.948
 20
9.60799
 11
241.948
 21
5
  0
LINE
  8
0
 10
241.948
 20
5
 11
242.396
 21
5
  0
LINE
  8
0
 10
242.396
 20
5
 11
242.396
 21
9.60799
  0
LINE
  8
0
 10
257.5
 20
1
 11
257.5
 21
13.5
  0
LINE
  8
0
 10
257.5
 20
13.5
 11
283.5
 21
13.5
  0
LINE
  8
0
 10
283.5
 20
13.5
 11
283.5
 21
1
  0
LINE
  8
0
 10
283.5
 20
1
 11
257.5
 21
1
  0
LINE
  8
0
 10
270.413
 20
5.08737
 11
270.819
 21
5.532
  0
LINE
  8
0
 10
270.819
 20
5.532
 11
270.946
 21
5.94261
  0
LINE
  8
0
 10
270.946
 20
5.94261
 11
270.996
 21
6.45599
  0
LINE
  8
0
 10
270.996
 20
6.45599
 11
270.996
 21
9.60799
  0
LINE
  8
0
 10
270.996
 20
9.60799
 11
270.548
 21
9.60799
  0
LINE
  8
0
 10
270.548
 20
9.60799
 11
270.548
 21
6.47499
  0
LINE
  8
0
 10
270.548
 20
6.47499
 11
270.358
 21
5.65912
  0
LINE
  8
0
 10
270.358
 20
5.65912
 11
269.801
 21
5.38399
  0
LINE
  8
0
 10
269.801
 20
5.38399
 11
269.259
 21
5.58374
  0
LINE
  8
0
 10
269.259
 20
5.58374
 11
269.029
 21
6.12999
  0
LINE
  8
0
 10
269.029
 20
6.12999
 11
268.582
 21
6.12999
  0
LINE
  8
0
 10
268.582
 20
6.12999
 11
268.93
 21
5.25362
  0
LINE
  8
0
 10
268.93
 20
5.25362
 11
269.792
 21
4.936
  0
LINE
  8
0
 10
269.792
 20
4.936
 11
270.413
 21
5.08737
  0
LINE
  8
0
 10
284.5
 20
1
 11
284.5
 21
13.5
  0
LINE
  8
0
 10
284.5
 20
13.5
 11
310.5
 21
13.5
  0
LINE
  8
0
 10
310.5
 20
13.5
 11
310.5
 21
1
  0
LINE
  8
0
 10
310.5
 20
1
 11
284.5
 21
1
  0
LINE
  8
0
 10
296.396
 20
6.25999
 11
296.984
 21
6.995
  0
LINE
  8
0
 10
296.984
 20
6.995
 11
298.491
 21
5
  0
LINE
  8
0
 10
298.491
 20
5
 11
299.06
 21
5
  0
LINE
  8
0
 10
299.06
 20
5
 11
297.272
 21
7.36299
  0
LINE
  8
0
 10
297.272
 20
7.36299
 11
299.06
 21
9.60799
  0
LINE
  8
0
 10
299.06
 20
9.60799
 11
298.491
 21
9.60799
  0
LINE
  8
0
 10
298.491
 20
9.60799
 11
296.396
 21
6.95799
  0
LINE
  8
0
 10
296.396
 20
6.95799
 11
296.396
 21
9.60799
  0
LINE
  8
0
 10
296.396
 20
9.60799
 11
295.948
 21
9.60799
  0
LINE
  8
0
 10
295.948
 20
9.60799
 11
295.948
 21
5
  0
LINE
  8
0
 10
295.948
 20
5
 11
296.396
 21
5
  0
LINE
  8
0
 10
296.396
 20
5
 11
296.396
 21
6.25999
  0
LINE
  8
0
 10
311.5
 20
1
 11
311.5
 21
13.5
  0
LINE
  8
0
 10
311.5
 20
13.5
 11
337.5
 21
13.5
  0
LINE
  8
0
 10
337.5
 20
13.5
 11
337.5
 21
1
  0
LINE
  8
0
 10
337.5
 20
1
 11
311.5
 21
1
  0
LINE
  8
0
 10
325.27
 20
5.41899
 11
323.396
 21
5.41899
  0
LINE
  8
0
 10
323.396
 20
5.41899
 11
323.396
 21
9.60799
  0
LINE
  8
0
 10
323.396
 20
9.60799
 11
322.948
 21
9.60799
  0
LINE
  8
0
 10
322.948
 20
9.60799
 11
322.948
 21
5
  0
LINE
  8
0
 10
322.948
 20
5
 11
325.27
 21
5
  0
LINE
  8
0
 10
325.27
 20
5
 11
325.27
 21
5.41899
  0
LINE
  8
0
 10
338.5
 20
1
 11
338.5
 21
13.5
  0
LINE
  8
0
 10
338.5
 20
13.5
 11
351
 21
13.5
  0
LINE
  8
0
 10
351
 20
13.5
 11
351
 21
1
  0
LINE
  8
0
 10
351
 20
1
 11
338.5
 21
1
  0
LINE
  8
0
 10
337.5
 20
230.5
 11
311.5
 21
230.5
  0
LINE
  8
0
 10
311.5
 20
230.5
 11
311.5
 21
243
  0
LINE
  8
0
 10
311.5
 20
243
 11
310.5
 21
243
  0
LINE
  8
0
 10
310.5
 20
243
 11
310.5
 21
230.5
  0
LINE
  8
0
 10
310.5
 20
230.5
 11
284.5
 21
230.5
  0
LINE
  8
0
 10
284.5
 20
230.5
 11
284.5
 21
243
  0
LINE
  8
0
 10
284.5
 20
243
 11
283.5
 21
243
  0
LINE
  8
0
 10
283.5
 20
243
 11
283.5
 21
230.5
  0
LINE
  8
0
 10
283.5
 20
230.5
 11
257.5
 21
230.5
  0
LINE
  8
0
 10
257.5
 20
230.5
 11
257.5
 21
243
  0
LINE
  8
0
 10
257.5
 20
243
 11
337.5
 21
243
  0
LINE
  8
0
 10
337.5
 20
243
 11
337.5
 21
230.5
  0
LINE
  8
0
 10
191.551
 20
235.956
 11
192.244
 21
237.655
  0
LINE
  8
0
 10
192.244
 20
237.655
 11
191.534
 21
239.368
  0
LINE
  8
0
 10
191.534
 20
239.368
 11
189.788
 21
240.064
  0
LINE
  8
0
 10
189.788
 20
240.064
 11
188.803
 21
239.861
  0
LINE
  8
0
 10
188.803
 20
239.861
 11
188.028
 21
239.273
  0
LINE
  8
0
 10
188.028
 20
239.273
 11
187.606
 21
238.582
  0
LINE
  8
0
 10
187.606
 20
238.582
 11
187.435
 21
237.824
  0
LINE
  8
0
 10
187.435
 20
237.824
 11
190.51
 21
237.824
  0
LINE
  8
0
 10
190.51
 20
237.824
 11
190.51
 21
238.272
  0
LINE
  8
0
 10
190.51
 20
238.272
 11
187.98
 21
238.272
  0
LINE
  8
0
 10
187.98
 20
238.272
 11
188.148
 21
238.688
  0
LINE
  8
0
 10
188.148
 20
238.688
 11
188.458
 21
239.076
  0
LINE
  8
0
 10
188.458
 20
239.076
 11
189.068
 21
239.477
  0
LINE
  8
0
 10
189.068
 20
239.477
 11
189.811
 21
239.616
  0
LINE
  8
0
 10
189.811
 20
239.616
 11
191.219
 21
239.051
  0
LINE
  8
0
 10
191.219
 20
239.051
 11
191.796
 21
237.667
  0
LINE
  8
0
 10
191.796
 20
237.667
 11
191.225
 21
236.275
  0
LINE
  8
0
 10
191.225
 20
236.275
 11
189.818
 21
235.712
  0
LINE
  8
0
 10
189.818
 20
235.712
 11
188.873
 21
235.941
  0
LINE
  8
0
 10
188.873
 20
235.941
 11
188.219
 21
236.586
  0
LINE
  8
0
 10
188.219
 20
236.586
 11
187.711
 21
236.586
  0
LINE
  8
0
 10
187.711
 20
236.586
 11
188.524
 21
235.628
  0
LINE
  8
0
 10
188.524
 20
235.628
 11
189.849
 21
235.264
  0
LINE
  8
0
 10
189.849
 20
235.264
 11
191.551
 21
235.956
  0
LINE
  8
0
 10
83.578
 20
235.952
 11
84.244
 21
237.68
  0
LINE
  8
0
 10
84.244
 20
237.68
 11
83.5653
 21
239.38
  0
LINE
  8
0
 10
83.5653
 20
239.38
 11
81.874
 21
240.064
  0
LINE
  8
0
 10
81.874
 20
240.064
 11
80.6671
 21
239.736
  0
LINE
  8
0
 10
80.6671
 20
239.736
 11
79.809
 21
238.76
  0
LINE
  8
0
 10
79.809
 20
238.76
 11
80.311
 21
238.76
  0
LINE
  8
0
 10
80.311
 20
238.76
 11
80.5514
 21
239.046
  0
LINE
  8
0
 10
80.5514
 20
239.046
 11
80.764
 21
239.24
  0
LINE
  8
0
 10
80.764
 20
239.24
 11
81.2833
 21
239.518
  0
LINE
  8
0
 10
81.2833
 20
239.518
 11
81.885
 21
239.616
  0
LINE
  8
0
 10
81.885
 20
239.616
 11
83.2331
 21
239.041
  0
LINE
  8
0
 10
83.2331
 20
239.041
 11
83.796
 21
237.661
  0
LINE
  8
0
 10
83.796
 20
237.661
 11
83.2478
 21
236.272
  0
LINE
  8
0
 10
83.2478
 20
236.272
 11
81.891
 21
235.712
  0
LINE
  8
0
 10
81.891
 20
235.712
 11
81.3265
 21
235.793
  0
LINE
  8
0
 10
81.3265
 20
235.793
 11
80.831
 21
236.031
  0
LINE
  8
0
 10
80.831
 20
236.031
 11
80.5718
 21
236.254
  0
LINE
  8
0
 10
80.5718
 20
236.254
 11
80.335
 21
236.587
  0
LINE
  8
0
 10
80.335
 20
236.587
 11
79.827
 21
236.587
  0
LINE
  8
0
 10
79.827
 20
236.587
 11
80.6454
 21
235.618
  0
LINE
  8
0
 10
80.6454
 20
235.618
 11
81.904
 21
235.264
  0
LINE
  8
0
 10
81.904
 20
235.264
 11
83.578
 21
235.952
  0
LINE
  8
0
 10
271.452
 20
238.525
 11
271.642
 21
239.341
  0
LINE
  8
0
 10
271.642
 20
239.341
 11
272.199
 21
239.616
  0
LINE
  8
0
 10
272.199
 20
239.616
 11
272.741
 21
239.416
  0
LINE
  8
0
 10
272.741
 20
239.416
 11
272.971
 21
238.87
  0
LINE
  8
0
 10
272.971
 20
238.87
 11
273.418
 21
238.87
  0
LINE
  8
0
 10
273.418
 20
238.87
 11
273.07
 21
239.746
  0
LINE
  8
0
 10
273.07
 20
239.746
 11
272.208
 21
240.064
  0
LINE
  8
0
 10
272.208
 20
240.064
 11
271.587
 21
239.913
  0
LINE
  8
0
 10
271.587
 20
239.913
 11
271.181
 21
239.468
  0
LINE
  8
0
 10
271.181
 20
239.468
 11
271.054
 21
239.057
  0
LINE
  8
0
 10
271.054
 20
239.057
 11
271.004
 21
238.544
  0
LINE
  8
0
 10
271.004
 20
238.544
 11
271.004
 21
235.392
  0
LINE
  8
0
 10
271.004
 20
235.392
 11
271.452
 21
235.392
  0
LINE
  8
0
 10
271.452
 20
235.392
 11
271.452
 21
238.525
  0
LINE
  8
0
 10
30.433
 20
240
 11
29.955
 21
240
  0
LINE
  8
0
 10
29.955
 20
240
 11
29.293
 21
238.464
  0
LINE
  8
0
 10
29.293
 20
238.464
 11
27.186
 21
238.464
  0
LINE
  8
0
 10
27.186
 20
238.464
 11
26.531
 21
240
  0
LINE
  8
0
 10
26.531
 20
240
 11
26.035
 21
240
  0
LINE
  8
0
 10
26.035
 20
240
 11
27.983
 21
235.392
  0
LINE
  8
0
 10
27.983
 20
235.392
 11
28.491
 21
235.392
  0
LINE
  8
0
 10
28.491
 20
235.392
 11
30.433
 21
240
  0
LINE
  8
0
 10
27.364
 20
238.016
 11
29.122
 21
238.016
  0
LINE
  8
0
 10
29.122
 20
238.016
 11
28.234
 21
235.913
  0
LINE
  8
0
 10
28.234
 20
235.913
 11
27.364
 21
238.016
  0
LINE
  8
0
 10
57.052
 20
240
 11
55.924
 21
240
  0
LINE
  8
0
 10
55.924
 20
240
 11
55.183
 21
239.943
  0
LINE
  8
0
 10
55.183
 20
239.943
 11
54.682
 21
239.752
  0
LINE
  8
0
 10
54.682
 20
239.752
 11
54.3074
 21
239.307
  0
LINE
  8
0
 10
54.3074
 20
239.307
 11
54.172
 21
238.651
  0
LINE
  8
0
 10
54.172
 20
238.651
 11
54.3514
 21
237.941
  0
LINE
  8
0
 10
54.3514
 20
237.941
 11
54.92
 21
237.493
  0
LINE
  8
0
 10
54.92
 20
237.493
 11
54.5458
 21
237.121
  0
LINE
  8
0
 10
54.5458
 20
237.121
 11
54.428
 21
236.561
  0
LINE
  8
0
 10
54.428
 20
236.561
 11
54.5344
 21
236.033
  0
LINE
  8
0
 10
54.5344
 20
236.033
 11
54.835
 21
235.654
  0
LINE
  8
0
 10
54.835
 20
235.654
 11
55.2995
 21
235.454
  0
LINE
  8
0
 10
55.2995
 20
235.454
 11
55.986
 21
235.392
  0
LINE
  8
0
 10
55.986
 20
235.392
 11
57.052
 21
235.392
  0
LINE
  8
0
 10
57.052
 20
235.392
 11
57.052
 21
240
  0
LINE
  8
0
 10
56.057
 20
237.76
 11
55.4225
 21
237.791
  0
LINE
  8
0
 10
55.4225
 20
237.791
 11
55.049
 21
237.893
  0
LINE
  8
0
 10
55.049
 20
237.893
 11
54.7318
 21
238.202
  0
LINE
  8
0
 10
54.7318
 20
238.202
 11
54.62
 21
238.686
  0
LINE
  8
0
 10
54.62
 20
238.686
 11
54.7188
 21
239.126
  0
LINE
  8
0
 10
54.7188
 20
239.126
 11
54.981
 21
239.41
  0
LINE
  8
0
 10
54.981
 20
239.41
 11
55.3848
 21
239.541
  0
LINE
  8
0
 10
55.3848
 20
239.541
 11
55.976
 21
239.581
  0
LINE
  8
0
 10
55.976
 20
239.581
 11
56.604
 21
239.581
  0
LINE
  8
0
 10
56.604
 20
239.581
 11
56.604
 21
237.76
  0
LINE
  8
0
 10
56.604
 20
237.76
 11
56.057
 21
237.76
  0
LINE
  8
0
 10
56.049
 20
235.811
 11
55.4844
 21
235.846
  0
LINE
  8
0
 10
55.4844
 20
235.846
 11
55.144
 21
235.966
  0
LINE
  8
0
 10
55.144
 20
235.966
 11
54.9493
 21
236.207
  0
LINE
  8
0
 10
54.9493
 20
236.207
 11
54.876
 21
236.564
  0
LINE
  8
0
 10
54.876
 20
236.564
 11
54.9674
 21
236.958
  0
LINE
  8
0
 10
54.9674
 20
236.958
 11
55.232
 21
237.198
  0
LINE
  8
0
 10
55.232
 20
237.198
 11
55.5531
 21
237.287
  0
LINE
  8
0
 10
55.5531
 20
237.287
 11
56.043
 21
237.312
  0
LINE
  8
0
 10
56.043
 20
237.312
 11
56.604
 21
237.312
  0
LINE
  8
0
 10
56.604
 20
237.312
 11
56.604
 21
235.811
  0
LINE
  8
0
 10
56.604
 20
235.811
 11
56.049
 21
235.811
  0
LINE
  8
0
 10
111.052
 20
240
 11
109.829
 21
240
  0
LINE
  8
0
 10
109.829
 20
240
 11
108.941
 21
239.917
  0
LINE
  8
0
 10
108.941
 20
239.917
 11
108.265
 21
239.657
  0
LINE
  8
0
 10
108.265
 20
239.657
 11
107.48
 21
238.853
  0
LINE
  8
0
 10
107.48
 20
238.853
 11
107.212
 21
237.712
  0
LINE
  8
0
 10
107.212
 20
237.712
 11
107.475
 21
236.56
  0
LINE
  8
0
 10
107.475
 20
236.56
 11
108.246
 21
235.754
  0
LINE
  8
0
 10
108.246
 20
235.754
 11
108.966
 21
235.475
  0
LINE
  8
0
 10
108.966
 20
235.475
 11
109.981
 21
235.392
  0
LINE
  8
0
 10
109.981
 20
235.392
 11
111.052
 21
235.392
  0
LINE
  8
0
 10
111.052
 20
235.392
 11
111.052
 21
240
  0
LINE
  8
0
 10
109.966
 20
235.811
 11
109.098
 21
235.881
  0
LINE
  8
0
 10
109.098
 20
235.881
 11
108.491
 21
236.11
  0
LINE
  8
0
 10
108.491
 20
236.11
 11
107.878
 21
236.764
  0
LINE
  8
0
 10
107.878
 20
236.764
 11
107.66
 21
237.693
  0
LINE
  8
0
 10
107.66
 20
237.693
 11
107.831
 21
238.529
  0
LINE
  8
0
 10
107.831
 20
238.529
 11
108.317
 21
239.17
  0
LINE
  8
0
 10
108.317
 20
239.17
 11
108.974
 21
239.485
  0
LINE
  8
0
 10
108.974
 20
239.485
 11
109.966
 21
239.581
  0
LINE
  8
0
 10
109.966
 20
239.581
 11
110.604
 21
239.581
  0
LINE
  8
0
 10
110.604
 20
239.581
 11
110.604
 21
235.811
  0
LINE
  8
0
 10
110.604
 20
235.811
 11
109.966
 21
235.811
  0
LINE
  8
0
 10
138.052
 20
240
 11
135.583
 21
240
  0
LINE
  8
0
 10
135.583
 20
240
 11
135.583
 21
239.581
  0
LINE
  8
0
 10
135.583
 20
239.581
 11
137.604
 21
239.581
  0
LINE
  8
0
 10
137.604
 20
239.581
 11
137.604
 21
237.888
  0
LINE
  8
0
 10
137.604
 20
237.888
 11
135.65
 21
237.888
  0
LINE
  8
0
 10
135.65
 20
237.888
 11
135.65
 21
237.44
  0
LINE
  8
0
 10
135.65
 20
237.44
 11
137.604
 21
237.44
  0
LINE
  8
0
 10
137.604
 20
237.44
 11
137.604
 21
235.811
  0
LINE
  8
0
 10
137.604
 20
235.811
 11
135.583
 21
235.811
  0
LINE
  8
0
 10
135.583
 20
235.811
 11
135.583
 21
235.392
  0
LINE
  8
0
 10
135.583
 20
235.392
 11
138.052
 21
235.392
  0
LINE
  8
0
 10
138.052
 20
235.392
 11
138.052
 21
240
  0
LINE
  8
0
 10
246.052
 20
240
 11
245.604
 21
240
  0
LINE
  8
0
 10
245.604
 20
240
 11
245.604
 21
235.392
  0
LINE
  8
0
 10
245.604
 20
235.392
 11
246.052
 21
235.392
  0
LINE
  8
0
 10
246.052
 20
235.392
 11
246.052
 21
240
  0
LINE
  8
0
 10
165.052
 20
240
 11
164.604
 21
240
  0
LINE
  8
0
 10
164.604
 20
240
 11
164.604
 21
237.888
  0
LINE
  8
0
 10
164.604
 20
237.888
 11
162.828
 21
237.888
  0
LINE
  8
0
 10
162.828
 20
237.888
 11
162.828
 21
237.44
  0
LINE
  8
0
 10
162.828
 20
237.44
 11
164.604
 21
237.44
  0
LINE
  8
0
 10
164.604
 20
237.44
 11
164.604
 21
235.811
  0
LINE
  8
0
 10
164.604
 20
235.811
 11
162.76
 21
235.811
  0
LINE
  8
0
 10
162.76
 20
235.811
 11
162.76
 21
235.392
  0
LINE
  8
0
 10
162.76
 20
235.392
 11
165.052
 21
235.392
  0
LINE
  8
0
 10
165.052
 20
235.392
 11
165.052
 21
240
  0
LINE
  8
0
 10
216.236
 20
237.376
 11
218.604
 21
237.376
  0
LINE
  8
0
 10
218.604
 20
237.376
 11
218.604
 21
235.392
  0
LINE
  8
0
 10
218.604
 20
235.392
 11
219.052
 21
235.392
  0
LINE
  8
0
 10
219.052
 20
235.392
 11
219.052
 21
240
  0
LINE
  8
0
 10
219.052
 20
240
 11
218.604
 21
240
  0
LINE
  8
0
 10
218.604
 20
240
 11
218.604
 21
237.824
  0
LINE
  8
0
 10
218.604
 20
237.824
 11
216.236
 21
237.824
  0
LINE
  8
0
 10
216.236
 20
237.824
 11
216.236
 21
240
  0
LINE
  8
0
 10
216.236
 20
240
 11
215.788
 21
240
  0
LINE
  8
0
 10
215.788
 20
240
 11
215.788
 21
235.392
  0
LINE
  8
0
 10
215.788
 20
235.392
 11
216.236
 21
235.392
  0
LINE
  8
0
 10
216.236
 20
235.392
 11
216.236
 21
237.376
  0
LINE
  8
0
 10
299.604
 20
238.042
 11
299.604
 21
235.392
  0
LINE
  8
0
 10
299.604
 20
235.392
 11
300.052
 21
235.392
  0
LINE
  8
0
 10
300.052
 20
235.392
 11
300.052
 21
240
  0
LINE
  8
0
 10
300.052
 20
240
 11
299.604
 21
240
  0
LINE
  8
0
 10
299.604
 20
240
 11
299.604
 21
238.74
  0
LINE
  8
0
 10
299.604
 20
238.74
 11
299.016
 21
238.005
  0
LINE
  8
0
 10
299.016
 20
238.005
 11
297.509
 21
240
  0
LINE
  8
0
 10
297.509
 20
240
 11
296.94
 21
240
  0
LINE
  8
0
 10
296.94
 20
240
 11
298.728
 21
237.637
  0
LINE
  8
0
 10
298.728
 20
237.637
 11
296.94
 21
235.392
  0
LINE
  8
0
 10
296.94
 20
235.392
 11
297.509
 21
235.392
  0
LINE
  8
0
 10
297.509
 20
235.392
 11
299.604
 21
238.042
  0
LINE
  8
0
 10
327.052
 20
240
 11
324.73
 21
240
  0
LINE
  8
0
 10
324.73
 20
240
 11
324.73
 21
239.581
  0
LINE
  8
0
 10
324.73
 20
239.581
 11
326.604
 21
239.581
  0
LINE
  8
0
 10
326.604
 20
239.581
 11
326.604
 21
235.392
  0
LINE
  8
0
 10
326.604
 20
235.392
 11
327.052
 21
235.392
  0
LINE
  8
0
 10
327.052
 20
235.392
 11
327.052
 21
240
  0
ENDSEC
  0
SECTION
  2
OBJECTS
  0
DICTIONARY
  0
ENDSEC
  0
EOF
