<?xml version="1.0" standalone="no"?>
<!DOCTYPE svg PUBLIC "-//W3C//DTD SVG 1.1//EN" "http://www.w3.org/Graphics/SVG/1.1/DTD/svg11.dtd">
<svg width="378" height="262" viewBox="0 -262 378 262" xmlns="http://www.w3.org/2000/svg" version="1.1">
<title>OpenSCAD Model</title>
<path d="
M 247.5,-247.5 L 247.5,-261 L 246.5,-261 L 246.5,-247.5 L 218.5,-247.5 L 218.5,-261
 L 217.5,-261 L 217.5,-247.5 L 189.5,-247.5 L 189.5,-261 L 188.5,-261 L 188.5,-247.5
 L 160.5,-247.5 L 160.5,-261 L 159.5,-261 L 159.5,-247.5 L 131.5,-247.5 L 131.5,-261
 L 130.5,-261 L 130.5,-247.5 L 102.5,-247.5 L 102.5,-261 L 101.5,-261 L 101.5,-247.5
 L 73.5,-247.5 L 73.5,-261 L 72.5,-261 L 72.5,-247.5 L 44.5,-247.5 L 44.5,-261
 L 43.5,-261 L 43.5,-247.5 L 15.5,-247.5 L 15.5,-261 L 14.5,-261 L 14.5,-247.5
 L 1,-247.5 L 1,-261 L 0,-261 L 0,-0 L 378,-0 L 378,-261
 L 377,-261 L 377,-247.5 L 363.5,-247.5 L 363.5,-261 L 377,-261 L 377,-262
 L 0,-262 L 0,-261 L 275.5,-261 L 275.5,-247.5 z
M 1,-218.5 L 1,-246.5 L 14.5,-246.5 L 14.5,-218.5 z
M 7.14577,-227.134 L 7.69089,-227.671 L 7.892,-228.458 L 7.79236,-229.005 L 7.50162,-229.438 L 7.032,-229.743
 L 7.37169,-229.979 L 7.57095,-230.312 L 7.63599,-230.753 L 7.46565,-231.427 L 7.00533,-231.886 L 6.33099,-232.056
 L 5.6557,-231.884 L 5.18729,-231.421 L 5.01199,-230.753 L 5.043,-230.473 L 5.13199,-230.218 L 5.27299,-230.002
 L 5.35721,-229.912 L 5.45944,-229.833 L 5.603,-229.743 L 5.1394,-229.421 L 4.85359,-228.98 L 4.756,-228.438
 L 4.96614,-227.668 L 5.52917,-227.135 L 6.34399,-226.936 z
M 5.9234,-230.055 L 5.63191,-230.355 L 5.52399,-230.793 L 5.62784,-231.216 L 5.90947,-231.503 L 6.32399,-231.608
 L 6.73851,-231.501 L 7.02014,-231.209 L 7.12399,-230.779 L 7.0211,-230.351 L 6.74622,-230.055 L 6.34999,-229.944
 z
M 5.77985,-227.521 L 5.40514,-227.896 L 5.26799,-228.45 L 5.40514,-228.993 L 5.7785,-229.361 L 6.33099,-229.496
 L 6.87407,-229.361 L 7.24359,-228.993 L 7.37999,-228.45 L 7.24515,-227.899 L 6.87851,-227.523 L 6.33699,-227.384
 z
M 15.5,-218.5 L 15.5,-246.5 L 43.5,-246.5 L 43.5,-218.5 z
M 44.5,-218.5 L 44.5,-246.5 L 72.5,-246.5 L 72.5,-218.5 z
M 73.5,-218.5 L 73.5,-246.5 L 101.5,-246.5 L 101.5,-218.5 z
M 102.5,-218.5 L 102.5,-246.5 L 130.5,-246.5 L 130.5,-218.5 z
M 131.5,-218.5 L 131.5,-246.5 L 159.5,-246.5 L 159.5,-218.5 z
M 160.5,-218.5 L 160.5,-246.5 L 188.5,-246.5 L 188.5,-218.5 z
M 189.5,-218.5 L 189.5,-246.5 L 217.5,-246.5 L 217.5,-218.5 z
M 218.5,-218.5 L 218.5,-246.5 L 246.5,-246.5 L 246.5,-218.5 z
M 247.5,-218.5 L 247.5,-246.5 L 275.5,-246.5 L 275.5,-218.5 z
M 276.5,-218.5 L 276.5,-246.5 L 304.5,-246.5 L 304.5,-218.5 z
M 305.5,-218.5 L 305.5,-246.5 L 333.5,-246.5 L 333.5,-218.5 z
M 334.5,-218.5 L 334.5,-246.5 L 362.5,-246.5 L 362.5,-218.5 z
M 363.5,-218.5 L 363.5,-246.5 L 377,-246.5 L 377,-218.5 z
M 373.344,-232.116 L 373.813,-232.579 L 373.988,-233.247 L 373.957,-233.527 L 373.868,-233.782 L 373.727,-233.998
 L 373.643,-234.088 L 373.541,-234.167 L 373.397,-234.257 L 373.861,-234.579 L 374.146,-235.02 L 374.244,-235.562
 L 374.034,-236.332 L 373.471,-236.865 L 372.656,-237.064 L 371.854,-236.866 L 371.309,-236.329 L 371.108,-235.542
 L 371.208,-234.995 L 371.498,-234.562 L 371.968,-234.257 L 371.628,-234.021 L 371.429,-233.688 L 371.364,-233.247
 L 371.534,-232.573 L 371.995,-232.114 L 372.669,-231.944 z
M 372.126,-234.639 L 371.756,-235.007 L 371.62,-235.55 L 371.755,-236.101 L 372.121,-236.477 L 372.663,-236.616
 L 373.22,-236.479 L 373.595,-236.104 L 373.732,-235.55 L 373.595,-235.007 L 373.221,-234.639 L 372.669,-234.504
 z
M 372.261,-232.499 L 371.98,-232.791 L 371.876,-233.221 L 371.979,-233.649 L 372.254,-233.945 L 372.65,-234.056
 L 373.077,-233.945 L 373.368,-233.645 L 373.476,-233.207 L 373.372,-232.784 L 373.091,-232.497 L 372.676,-232.392
 z
M 1,-189.5 L 1,-217.5 L 14.5,-217.5 L 14.5,-189.5 z
M 7.724,-202.542 L 7.724,-202.992 L 4.92099,-202.992 L 4.92099,-202.542 L 7.224,-202.542 L 5.224,-198
 L 5.737,-198 z
M 15.5,-189.5 L 15.5,-217.5 L 43.5,-217.5 L 43.5,-189.5 z
M 44.5,-189.5 L 44.5,-217.5 L 72.5,-217.5 L 72.5,-189.5 z
M 73.5,-189.5 L 73.5,-217.5 L 101.5,-217.5 L 101.5,-189.5 z
M 102.5,-189.5 L 102.5,-217.5 L 130.5,-217.5 L 130.5,-189.5 z
M 131.5,-189.5 L 131.5,-217.5 L 159.5,-217.5 L 159.5,-189.5 z
M 160.5,-189.5 L 160.5,-217.5 L 188.5,-217.5 L 188.5,-189.5 z
M 189.5,-189.5 L 189.5,-217.5 L 217.5,-217.5 L 217.5,-189.5 z
M 218.5,-189.5 L 218.5,-217.5 L 246.5,-217.5 L 246.5,-189.5 z
M 247.5,-189.5 L 247.5,-217.5 L 275.5,-217.5 L 275.5,-189.5 z
M 276.5,-189.5 L 276.5,-217.5 L 304.5,-217.5 L 304.5,-189.5 z
M 305.5,-189.5 L 305.5,-217.5 L 333.5,-217.5 L 333.5,-189.5 z
M 334.5,-189.5 L 334.5,-217.5 L 362.5,-217.5 L 362.5,-189.5 z
M 363.5,-189.5 L 363.5,-217.5 L 377,-217.5 L 377,-189.5 z
M 374.079,-203.458 L 371.776,-203.458 L 373.776,-208 L 373.263,-208 L 371.276,-203.458 L 371.276,-203.008
 L 374.079,-203.008 z
M 1,-160.5 L 1,-188.5 L 14.5,-188.5 L 14.5,-160.5 z
M 7.22488,-169.166 L 7.8051,-169.786 L 8.01999,-170.691 L 7.81078,-171.555 L 7.25821,-172.162 L 6.47499,-172.392
 L 6.28426,-172.378 L 6.1024,-172.333 L 5.903,-172.252 L 7.02899,-173.992 L 6.47899,-173.992 L 5.27199,-172.163
 L 4.91673,-171.57 L 4.73991,-171.114 L 4.69199,-170.664 L 4.91437,-169.777 L 5.51096,-169.164 L 6.37599,-168.936
 z
M 5.77229,-169.554 L 5.35803,-170.014 L 5.20399,-170.684 L 5.3591,-171.326 L 5.77155,-171.775 L 6.362,-171.944
 L 6.95555,-171.778 L 7.3591,-171.329 L 7.508,-170.671 L 7.35959,-170.007 L 6.9594,-169.552 L 6.375,-169.384
 z
M 15.5,-160.5 L 15.5,-188.5 L 43.5,-188.5 L 43.5,-160.5 z
M 44.5,-160.5 L 44.5,-188.5 L 72.5,-188.5 L 72.5,-160.5 z
M 73.5,-160.5 L 73.5,-188.5 L 101.5,-188.5 L 101.5,-160.5 z
M 102.5,-160.5 L 102.5,-188.5 L 130.5,-188.5 L 130.5,-160.5 z
M 131.5,-160.5 L 131.5,-188.5 L 159.5,-188.5 L 159.5,-160.5 z
M 160.5,-160.5 L 160.5,-188.5 L 188.5,-188.5 L 188.5,-160.5 z
M 189.5,-160.5 L 189.5,-188.5 L 217.5,-188.5 L 217.5,-160.5 z
M 218.5,-160.5 L 218.5,-188.5 L 246.5,-188.5 L 246.5,-160.5 z
M 247.5,-160.5 L 247.5,-188.5 L 275.5,-188.5 L 275.5,-160.5 z
M 276.5,-160.5 L 276.5,-188.5 L 304.5,-188.5 L 304.5,-160.5 z
M 305.5,-160.5 L 305.5,-188.5 L 333.5,-188.5 L 333.5,-160.5 z
M 334.5,-160.5 L 334.5,-188.5 L 362.5,-188.5 L 362.5,-160.5 z
M 363.5,-160.5 L 363.5,-188.5 L 377,-188.5 L 377,-160.5 z
M 373.728,-175.837 L 374.083,-176.43 L 374.26,-176.886 L 374.308,-177.336 L 374.086,-178.223 L 373.489,-178.836
 L 372.624,-179.064 L 371.775,-178.834 L 371.195,-178.214 L 370.98,-177.309 L 371.189,-176.445 L 371.742,-175.838
 L 372.525,-175.608 L 372.716,-175.622 L 372.898,-175.667 L 373.097,-175.748 L 371.971,-174.008 L 372.521,-174.008
 z
M 372.044,-176.222 L 371.641,-176.671 L 371.492,-177.329 L 371.64,-177.993 L 372.041,-178.448 L 372.625,-178.616
 L 373.228,-178.446 L 373.642,-177.986 L 373.796,-177.316 L 373.641,-176.674 L 373.228,-176.225 L 372.638,-176.056
 z
M 1,-131.5 L 1,-159.5 L 14.5,-159.5 L 14.5,-131.5 z
M 7.21155,-140.17 L 7.79843,-140.79 L 8.01999,-141.671 L 7.8017,-142.546 L 7.22162,-143.16 L 6.392,-143.392
 L 6.10985,-143.368 L 5.83481,-143.293 L 5.54799,-143.158 L 5.784,-144.542 L 7.59099,-144.542 L 7.59099,-144.992
 L 5.396,-144.992 L 4.96199,-142.535 L 5.33699,-142.388 L 5.64473,-142.699 L 5.97891,-142.883 L 6.34399,-142.944
 L 6.93777,-142.775 L 7.35222,-142.322 L 7.508,-141.671 L 7.35088,-141.016 L 6.9351,-140.557 L 6.34399,-140.384
 L 5.78569,-140.537 L 5.37363,-140.955 L 5.16599,-141.577 L 4.69199,-141.577 L 4.73636,-141.304 L 4.78696,-141.104
 L 4.85799,-140.921 L 5.23244,-140.395 L 5.75421,-140.056 L 6.37599,-139.936 z
M 15.5,-131.5 L 15.5,-159.5 L 43.5,-159.5 L 43.5,-131.5 z
M 44.5,-131.5 L 44.5,-159.5 L 72.5,-159.5 L 72.5,-131.5 z
M 73.5,-131.5 L 73.5,-159.5 L 101.5,-159.5 L 101.5,-131.5 z
M 102.5,-131.5 L 102.5,-159.5 L 130.5,-159.5 L 130.5,-131.5 z
M 131.5,-131.5 L 131.5,-159.5 L 159.5,-159.5 L 159.5,-131.5 z
M 160.5,-131.5 L 160.5,-159.5 L 188.5,-159.5 L 188.5,-131.5 z
M 189.5,-131.5 L 189.5,-159.5 L 217.5,-159.5 L 217.5,-131.5 z
M 218.5,-131.5 L 218.5,-159.5 L 246.5,-159.5 L 246.5,-131.5 z
M 247.5,-131.5 L 247.5,-159.5 L 275.5,-159.5 L 275.5,-131.5 z
M 276.5,-131.5 L 276.5,-159.5 L 304.5,-159.5 L 304.5,-131.5 z
M 305.5,-131.5 L 305.5,-159.5 L 333.5,-159.5 L 333.5,-131.5 z
M 334.5,-131.5 L 334.5,-159.5 L 362.5,-159.5 L 362.5,-131.5 z
M 363.5,-131.5 L 363.5,-159.5 L 377,-159.5 L 377,-131.5 z
M 374.038,-147.465 L 373.663,-147.612 L 373.355,-147.301 L 373.021,-147.117 L 372.656,-147.056 L 372.062,-147.225
 L 371.648,-147.678 L 371.492,-148.329 L 371.649,-148.984 L 372.065,-149.443 L 372.656,-149.616 L 373.214,-149.463
 L 373.626,-149.045 L 373.834,-148.423 L 374.308,-148.423 L 374.264,-148.696 L 374.213,-148.896 L 374.142,-149.079
 L 373.768,-149.605 L 373.246,-149.944 L 372.624,-150.064 L 371.788,-149.83 L 371.202,-149.21 L 370.98,-148.329
 L 371.198,-147.454 L 371.778,-146.84 L 372.608,-146.608 L 372.89,-146.632 L 373.165,-146.707 L 373.452,-146.842
 L 373.216,-145.458 L 371.409,-145.458 L 371.409,-145.008 L 373.604,-145.008 z
M 1,-102.5 L 1,-130.5 L 14.5,-130.5 L 14.5,-102.5 z
M 7.57199,-111.896 L 8.019,-111.896 L 8.019,-112.344 L 7.57199,-112.344 L 7.57199,-115.992 L 6.96799,-115.992
 L 4.59999,-112.344 L 4.59999,-111.896 L 7.06,-111.896 L 7.06,-111 L 7.57199,-111 z
M 5.159,-112.344 L 7.06,-115.299 L 7.06,-112.344 z
M 15.5,-102.5 L 15.5,-130.5 L 43.5,-130.5 L 43.5,-102.5 z
M 44.5,-102.5 L 44.5,-130.5 L 72.5,-130.5 L 72.5,-102.5 z
M 73.5,-102.5 L 73.5,-130.5 L 101.5,-130.5 L 101.5,-102.5 z
M 102.5,-102.5 L 102.5,-130.5 L 130.5,-130.5 L 130.5,-102.5 z
M 131.5,-102.5 L 131.5,-130.5 L 159.5,-130.5 L 159.5,-102.5 z
M 160.5,-102.5 L 160.5,-130.5 L 188.5,-130.5 L 188.5,-102.5 z
M 189.5,-102.5 L 189.5,-130.5 L 217.5,-130.5 L 217.5,-102.5 z
M 218.5,-102.5 L 218.5,-130.5 L 246.5,-130.5 L 246.5,-102.5 z
M 247.5,-102.5 L 247.5,-130.5 L 275.5,-130.5 L 275.5,-102.5 z
M 276.5,-102.5 L 276.5,-130.5 L 304.5,-130.5 L 304.5,-102.5 z
M 305.5,-102.5 L 305.5,-130.5 L 333.5,-130.5 L 333.5,-102.5 z
M 334.5,-102.5 L 334.5,-130.5 L 362.5,-130.5 L 362.5,-102.5 z
M 363.5,-102.5 L 363.5,-130.5 L 377,-130.5 L 377,-102.5 z
M 374.4,-119.656 L 374.4,-120.104 L 371.94,-120.104 L 371.94,-121 L 371.428,-121 L 371.428,-120.104
 L 370.981,-120.104 L 370.981,-119.656 L 371.428,-119.656 L 371.428,-116.008 L 372.032,-116.008 z
M 371.94,-119.656 L 373.841,-119.656 L 371.94,-116.701 z
M 1,-73.5 L 1,-101.5 L 14.5,-101.5 L 14.5,-73.5 z
M 7.07214,-82.1494 L 7.62085,-82.7153 L 7.82799,-83.522 L 7.73358,-84.0698 L 7.4514,-84.5162 L 6.98299,-84.854
 L 7.27866,-85.1167 L 7.45166,-85.4299 L 7.508,-85.804 L 7.34843,-86.4561 L 6.91422,-86.8952 L 6.27199,-87.056
 L 5.62773,-86.8943 L 5.19925,-86.4397 L 5.02899,-85.738 L 5.50899,-85.738 L 5.60121,-86.2076 L 5.85544,-86.5044
 L 6.25899,-86.608 L 6.64296,-86.5077 L 6.90137,-86.2333 L 6.99599,-85.825 L 6.89374,-85.4151 L 6.60725,-85.1452
 L 6.16699,-85.048 L 6.09618,-85.0501 L 6.04199,-85.055 L 5.92999,-85.062 L 5.92999,-84.62 L 6.19118,-84.6123
 L 6.36281,-84.6004 L 6.49599,-84.58 L 6.92413,-84.3609 L 7.21118,-83.9814 L 7.31599,-83.495 L 7.17485,-82.9274
 L 6.80014,-82.5323 L 6.265,-82.384 L 5.91658,-82.4405 L 5.61639,-82.6041 L 5.37799,-82.866 L 5.28136,-83.0498
 L 5.22162,-83.2692 L 5.187,-83.569 L 4.70699,-83.569 L 4.73685,-83.2415 L 4.80515,-82.9642 L 4.91899,-82.712
 L 5.26604,-82.2966 L 5.73662,-82.0301 L 6.29099,-81.936 z
M 15.5,-73.5 L 15.5,-101.5 L 43.5,-101.5 L 43.5,-73.5 z
M 44.5,-73.5 L 44.5,-101.5 L 72.5,-101.5 L 72.5,-73.5 z
M 73.5,-73.5 L 73.5,-101.5 L 101.5,-101.5 L 101.5,-73.5 z
M 102.5,-73.5 L 102.5,-101.5 L 130.5,-101.5 L 130.5,-73.5 z
M 131.5,-73.5 L 131.5,-101.5 L 159.5,-101.5 L 159.5,-73.5 z
M 160.5,-73.5 L 160.5,-101.5 L 188.5,-101.5 L 188.5,-73.5 z
M 189.5,-73.5 L 189.5,-101.5 L 217.5,-101.5 L 217.5,-73.5 z
M 218.5,-73.5 L 218.5,-101.5 L 246.5,-101.5 L 246.5,-73.5 z
M 247.5,-73.5 L 247.5,-101.5 L 275.5,-101.5 L 275.5,-73.5 z
M 276.5,-73.5 L 276.5,-101.5 L 304.5,-101.5 L 304.5,-73.5 z
M 305.5,-73.5 L 305.5,-101.5 L 333.5,-101.5 L 333.5,-73.5 z
M 334.5,-73.5 L 334.5,-101.5 L 362.5,-101.5 L 362.5,-73.5 z
M 363.5,-73.5 L 363.5,-101.5 L 377,-101.5 L 377,-73.5 z
M 373.372,-87.1057 L 373.801,-87.5603 L 373.971,-88.262 L 373.491,-88.262 L 373.399,-87.7924 L 373.145,-87.4956
 L 372.741,-87.392 L 372.357,-87.4923 L 372.099,-87.7667 L 372.004,-88.175 L 372.106,-88.5849 L 372.393,-88.8548
 L 372.833,-88.952 L 372.904,-88.9499 L 372.958,-88.945 L 373.07,-88.938 L 373.07,-89.38 L 372.809,-89.3877
 L 372.637,-89.3996 L 372.504,-89.42 L 372.076,-89.6391 L 371.789,-90.0186 L 371.684,-90.505 L 371.825,-91.0726
 L 372.2,-91.4677 L 372.735,-91.616 L 373.083,-91.5595 L 373.384,-91.3959 L 373.622,-91.134 L 373.719,-90.9502
 L 373.778,-90.7308 L 373.813,-90.431 L 374.293,-90.431 L 374.263,-90.7585 L 374.195,-91.0358 L 374.081,-91.288
 L 373.734,-91.7034 L 373.263,-91.9699 L 372.709,-92.064 L 371.928,-91.8506 L 371.379,-91.2847 L 371.172,-90.478
 L 371.266,-89.9302 L 371.549,-89.4838 L 372.017,-89.146 L 371.721,-88.8833 L 371.548,-88.5701 L 371.492,-88.196
 L 371.652,-87.5439 L 372.086,-87.1048 L 372.728,-86.944 z
M 1,-44.5 L 1,-72.5 L 14.5,-72.5 L 14.5,-44.5 z
M 7.82799,-53.45 L 5.349,-53.45 L 6.924,-54.976 L 7.46547,-55.5603 L 7.74718,-56.0487 L 7.82799,-56.543
 L 7.62633,-57.3237 L 7.08133,-57.858 L 6.28299,-58.056 L 5.65321,-57.9395 L 5.15744,-57.6081 L 4.83699,-57.089
 L 4.77129,-56.8734 L 4.73936,-56.6539 L 4.73099,-56.363 L 5.211,-56.363 L 5.22429,-56.6384 L 5.26537,-56.8596
 L 5.336,-57.049 L 5.56036,-57.3495 L 5.87695,-57.5408 L 6.26399,-57.608 L 6.80829,-57.4725 L 7.17903,-57.1068
 L 7.31599,-56.572 L 7.28,-56.2869 L 7.168,-56.0138 L 6.974,-55.738 L 6.85588,-55.5942 L 6.70576,-55.4371
 L 4.69099,-53.45 L 4.69099,-53 L 7.82799,-53 z
M 15.5,-44.5 L 15.5,-72.5 L 43.5,-72.5 L 43.5,-44.5 z
M 44.5,-44.5 L 44.5,-72.5 L 72.5,-72.5 L 72.5,-44.5 z
M 73.5,-44.5 L 73.5,-72.5 L 101.5,-72.5 L 101.5,-44.5 z
M 102.5,-44.5 L 102.5,-72.5 L 130.5,-72.5 L 130.5,-44.5 z
M 131.5,-44.5 L 131.5,-72.5 L 159.5,-72.5 L 159.5,-44.5 z
M 160.5,-44.5 L 160.5,-72.5 L 188.5,-72.5 L 188.5,-44.5 z
M 189.5,-44.5 L 189.5,-72.5 L 217.5,-72.5 L 217.5,-44.5 z
M 218.5,-44.5 L 218.5,-72.5 L 246.5,-72.5 L 246.5,-44.5 z
M 247.5,-44.5 L 247.5,-72.5 L 275.5,-72.5 L 275.5,-44.5 z
M 276.5,-44.5 L 276.5,-72.5 L 304.5,-72.5 L 304.5,-44.5 z
M 305.5,-44.5 L 305.5,-72.5 L 333.5,-72.5 L 333.5,-44.5 z
M 334.5,-44.5 L 334.5,-72.5 L 362.5,-72.5 L 362.5,-44.5 z
M 363.5,-44.5 L 363.5,-72.5 L 377,-72.5 L 377,-44.5 z
M 373.347,-58.0605 L 373.843,-58.3919 L 374.163,-58.911 L 374.229,-59.1266 L 374.261,-59.3461 L 374.269,-59.637
 L 373.789,-59.637 L 373.776,-59.3616 L 373.735,-59.1404 L 373.664,-58.951 L 373.44,-58.6505 L 373.123,-58.4592
 L 372.736,-58.392 L 372.192,-58.5275 L 371.821,-58.8932 L 371.684,-59.428 L 371.72,-59.7131 L 371.832,-59.9862
 L 372.026,-60.262 L 372.144,-60.4058 L 372.294,-60.5629 L 374.309,-62.55 L 374.309,-63 L 371.172,-63
 L 371.172,-62.55 L 373.651,-62.55 L 372.076,-61.024 L 371.535,-60.4397 L 371.253,-59.9513 L 371.172,-59.457
 L 371.374,-58.6763 L 371.919,-58.142 L 372.717,-57.944 z
M 1,-15.5 L 1,-43.5 L 14.5,-43.5 L 14.5,-15.5 z
M 6.868,-28.992 L 5.52699,-28.992 L 5.52699,-28.542 L 6.35599,-28.542 L 6.35599,-24 L 6.868,-24
 z
M 15.5,-15.5 L 15.5,-43.5 L 43.5,-43.5 L 43.5,-15.5 z
M 44.5,-15.5 L 44.5,-43.5 L 72.5,-43.5 L 72.5,-15.5 z
M 73.5,-15.5 L 73.5,-43.5 L 101.5,-43.5 L 101.5,-15.5 z
M 102.5,-15.5 L 102.5,-43.5 L 130.5,-43.5 L 130.5,-15.5 z
M 131.5,-15.5 L 131.5,-43.5 L 159.5,-43.5 L 159.5,-15.5 z
M 160.5,-15.5 L 160.5,-43.5 L 188.5,-43.5 L 188.5,-15.5 z
M 189.5,-15.5 L 189.5,-43.5 L 217.5,-43.5 L 217.5,-15.5 z
M 218.5,-15.5 L 218.5,-43.5 L 246.5,-43.5 L 246.5,-15.5 z
M 247.5,-15.5 L 247.5,-43.5 L 275.5,-43.5 L 275.5,-15.5 z
M 276.5,-15.5 L 276.5,-43.5 L 304.5,-43.5 L 304.5,-15.5 z
M 305.5,-15.5 L 305.5,-43.5 L 333.5,-43.5 L 333.5,-15.5 z
M 334.5,-15.5 L 334.5,-43.5 L 362.5,-43.5 L 362.5,-15.5 z
M 363.5,-15.5 L 363.5,-43.5 L 377,-43.5 L 377,-15.5 z
M 373.473,-29.458 L 372.644,-29.458 L 372.644,-34 L 372.132,-34 L 372.132,-29.008 L 373.473,-29.008
 z
M 1,-1 L 1,-14.5 L 14.5,-14.5 L 14.5,-1 z
M 15.5,-1 L 15.5,-14.5 L 43.5,-14.5 L 43.5,-1 z
M 28.796,-6.66399 L 31.059,-6.66399 L 31.763,-5 L 32.296,-5 L 30.204,-9.99199 L 29.658,-9.99199
 L 27.572,-5 L 28.086,-5 z
M 28.98,-7.112 L 29.934,-9.42 L 30.868,-7.112 z
M 44.5,-1 L 44.5,-14.5 L 72.5,-14.5 L 72.5,-1 z
M 58.7881,-5.02611 L 59.2102,-5.11021 L 59.544,-5.26099 L 59.8342,-5.54318 L 60.0191,-5.9398 L 60.084,-6.418
 L 59.9986,-6.94907 L 59.7324,-7.34926 L 59.271,-7.63499 L 59.5874,-7.89258 L 59.7696,-8.2364 L 59.828,-8.67999
 L 59.7765,-9.09148 L 59.6281,-9.43718 L 59.392,-9.698 L 59.0802,-9.86533 L 58.6791,-9.96132 L 58.156,-9.99199
 L 57.012,-9.99199 L 57.012,-5 L 58.229,-5 z
M 57.524,-7.81599 L 57.524,-9.54199 L 58.1,-9.54199 L 58.5212,-9.52469 L 58.8235,-9.46762 L 59.038,-9.36299
 L 59.1847,-9.19844 L 59.2812,-8.95921 L 59.316,-8.67599 L 59.2737,-8.35699 L 59.1493,-8.10999 L 58.947,-7.94699
 L 58.7365,-7.86992 L 58.4725,-7.8284 L 58.106,-7.81599 z
M 57.524,-5.45 L 57.524,-7.368 L 58.089,-7.368 L 58.5629,-7.35391 L 58.8951,-7.30873 L 59.129,-7.228
 L 59.3692,-7.03369 L 59.5198,-6.75162 L 59.572,-6.392 L 59.5253,-6.06976 L 59.396,-5.80554 L 59.2,-5.62999
 L 58.9406,-5.52689 L 58.6027,-5.46843 L 58.172,-5.45 z
M 73.5,-1 L 73.5,-14.5 L 101.5,-14.5 L 101.5,-1 z
M 89.293,-5.09026 L 90.039,-5.55006 L 90.615,-6.31099 L 90.075,-6.31099 L 89.8947,-6.08884 L 89.7422,-5.92447
 L 89.588,-5.79099 L 89.2307,-5.56992 L 88.8206,-5.43173 L 88.384,-5.38399 L 87.3524,-5.67433 L 86.6142,-6.43466
 L 86.332,-7.49899 L 86.6051,-8.57733 L 87.3329,-9.327 L 88.378,-9.60799 L 88.7886,-9.56924 L 89.1714,-9.45407
 L 89.516,-9.26399 L 89.7097,-9.11159 L 89.8773,-8.92273 L 90.049,-8.66499 L 90.595,-8.66499 L 90.0703,-9.40874
 L 89.2971,-9.88692 L 88.349,-10.056 L 87.048,-9.71655 L 86.153,-8.80444 L 85.82,-7.47899 L 86.16,-6.17747
 L 87.0696,-5.27419 L 88.383,-4.936 z
M 102.5,-1 L 102.5,-14.5 L 130.5,-14.5 L 130.5,-1 z
M 116.99,-5.03932 L 117.534,-5.16133 L 117.991,-5.37199 L 118.606,-5.90892 L 118.981,-6.6174 L 119.108,-7.47899
 L 118.982,-8.34866 L 118.612,-9.06366 L 118.005,-9.59999 L 117.517,-9.82785 L 116.923,-9.95348 L 116.154,-9.99199
 L 115.012,-9.99199 L 115.012,-5 L 116.332,-5 z
M 115.524,-5.45 L 115.524,-9.54199 L 116.19,-9.54199 L 116.83,-9.50885 L 117.33,-9.40347 L 117.729,-9.217
 L 118.198,-8.78358 L 118.493,-8.19839 L 118.596,-7.49899 L 118.516,-6.87451 L 118.283,-6.33115 L 117.91,-5.896
 L 117.483,-5.63948 L 116.928,-5.49518 L 116.19,-5.45 z
M 131.5,-1 L 131.5,-14.5 L 159.5,-14.5 L 159.5,-1 z
M 146.695,-5.45 L 144.524,-5.45 L 144.524,-7.30399 L 146.623,-7.30399 L 146.623,-7.752 L 144.524,-7.752
 L 144.524,-9.54199 L 146.695,-9.54199 L 146.695,-9.99199 L 144.012,-9.99199 L 144.012,-5 L 146.695,-5
 z
M 160.5,-1 L 160.5,-14.5 L 188.5,-14.5 L 188.5,-1 z
M 173.524,-7.23999 L 175.432,-7.23999 L 175.432,-7.68799 L 173.524,-7.68799 L 173.524,-9.54199 L 175.504,-9.54199
 L 175.504,-9.99199 L 173.012,-9.99199 L 173.012,-5 L 173.524,-5 z
M 189.5,-1 L 189.5,-14.5 L 217.5,-14.5 L 217.5,-1 z
M 205.206,-5.03229 L 205.846,-5.31436 L 206.376,-5.77199 L 206.711,-6.25117 L 206.923,-6.7628 L 207.016,-7.30399
 L 203.714,-7.30399 L 203.714,-6.85599 L 206.431,-6.85599 L 206.327,-6.54692 L 206.158,-6.2574 L 205.918,-5.97499
 L 205.5,-5.65155 L 205.009,-5.4521 L 204.464,-5.38399 L 203.382,-5.66811 L 202.62,-6.42088 L 202.332,-7.493
 L 202.617,-8.57243 L 203.374,-9.32521 L 204.457,-9.60799 L 205.161,-9.4951 L 205.746,-9.17021 L 206.174,-8.65399
 L 206.72,-8.65399 L 206.213,-9.39125 L 205.409,-9.87939 L 204.409,-10.056 L 203.092,-9.7131 L 202.168,-8.80354
 L 201.82,-7.506 L 202.177,-6.19704 L 203.123,-5.28096 L 204.474,-4.936 z
M 218.5,-1 L 218.5,-14.5 L 246.5,-14.5 L 246.5,-1 z
M 231.524,-7.30399 L 234.02,-7.30399 L 234.02,-5 L 234.532,-5 L 234.532,-9.99199 L 234.02,-9.99199
 L 234.02,-7.752 L 231.524,-7.752 L 231.524,-9.99199 L 231.012,-9.99199 L 231.012,-5 L 231.524,-5
 z
M 247.5,-1 L 247.5,-14.5 L 275.5,-14.5 L 275.5,-1 z
M 260.524,-9.99199 L 260.012,-9.99199 L 260.012,-5 L 260.524,-5 z
M 276.5,-1 L 276.5,-14.5 L 304.5,-14.5 L 304.5,-1 z
M 290.353,-5.00922 L 290.729,-5.22577 L 290.995,-5.58099 L 291.095,-5.85469 L 291.163,-6.20796 L 291.188,-6.58099
 L 291.188,-9.99199 L 290.676,-9.99199 L 290.676,-6.575 L 290.585,-5.91644 L 290.315,-5.51788 L 289.873,-5.38399
 L 289.452,-5.4828 L 289.167,-5.76251 L 289.044,-6.198 L 288.564,-6.198 L 288.748,-5.52058 L 289.199,-5.08807
 L 289.879,-4.936 z
M 305.5,-1 L 305.5,-14.5 L 333.5,-14.5 L 333.5,-1 z
M 318.524,-6.36499 L 319.156,-7.16199 L 320.774,-5 L 321.386,-5 L 319.465,-7.56 L 321.386,-9.99199
 L 320.774,-9.99199 L 318.524,-7.12099 L 318.524,-9.99199 L 318.012,-9.99199 L 318.012,-5 L 318.524,-5
 z
M 334.5,-1 L 334.5,-14.5 L 362.5,-14.5 L 362.5,-1 z
M 349.537,-5.45 L 347.524,-5.45 L 347.524,-9.99199 L 347.012,-9.99199 L 347.012,-5 L 349.537,-5
 z
M 363.5,-1 L 363.5,-14.5 L 377,-14.5 L 377,-1 z
M 362.5,-247.5 L 334.5,-247.5 L 334.5,-261 L 333.5,-261 L 333.5,-247.5 L 305.5,-247.5
 L 305.5,-261 L 304.5,-261 L 304.5,-247.5 L 276.5,-247.5 L 276.5,-261 L 362.5,-261
 z
M 204.908,-253.287 L 205.832,-254.196 L 206.18,-255.494 L 205.823,-256.803 L 204.877,-257.719 L 203.526,-258.064
 L 202.794,-257.968 L 202.154,-257.686 L 201.624,-257.228 L 201.289,-256.749 L 201.077,-256.237 L 200.984,-255.696
 L 204.286,-255.696 L 204.286,-256.144 L 201.569,-256.144 L 201.673,-256.453 L 201.842,-256.743 L 202.082,-257.025
 L 202.5,-257.348 L 202.991,-257.548 L 203.536,-257.616 L 204.618,-257.332 L 205.38,-256.579 L 205.668,-255.507
 L 205.383,-254.428 L 204.626,-253.675 L 203.543,-253.392 L 202.839,-253.505 L 202.254,-253.83 L 201.826,-254.346
 L 201.28,-254.346 L 201.787,-253.609 L 202.591,-253.121 L 203.591,-252.944 z
M 88.952,-253.283 L 89.847,-254.196 L 90.18,-255.521 L 89.84,-256.823 L 88.9304,-257.726 L 87.617,-258.064
 L 86.707,-257.91 L 85.961,-257.45 L 85.385,-256.689 L 85.925,-256.689 L 86.1053,-256.911 L 86.2578,-257.076
 L 86.412,-257.209 L 86.7693,-257.43 L 87.1794,-257.568 L 87.616,-257.616 L 88.6476,-257.326 L 89.3858,-256.565
 L 89.668,-255.501 L 89.3949,-254.423 L 88.6671,-253.673 L 87.622,-253.392 L 87.2114,-253.431 L 86.8286,-253.546
 L 86.484,-253.736 L 86.2903,-253.888 L 86.1227,-254.077 L 85.951,-254.335 L 85.405,-254.335 L 85.9297,-253.591
 L 86.7029,-253.113 L 87.651,-252.944 z
M 291.324,-256.425 L 291.415,-257.084 L 291.685,-257.482 L 292.127,-257.616 L 292.548,-257.517 L 292.833,-257.237
 L 292.956,-256.802 L 293.436,-256.802 L 293.252,-257.479 L 292.801,-257.912 L 292.121,-258.064 L 291.647,-257.991
 L 291.271,-257.774 L 291.005,-257.419 L 290.905,-257.145 L 290.837,-256.792 L 290.812,-256.419 L 290.812,-253.008
 L 291.324,-253.008 z
M 32.428,-258 L 31.914,-258 L 31.204,-256.336 L 28.941,-256.336 L 28.237,-258 L 27.704,-258
 L 29.796,-253.008 L 30.342,-253.008 z
M 29.132,-255.888 L 31.02,-255.888 L 30.066,-253.58 z
M 60.988,-258 L 59.771,-258 L 59.2119,-257.974 L 58.7898,-257.89 L 58.456,-257.739 L 58.1658,-257.457
 L 57.9809,-257.06 L 57.916,-256.582 L 58.0014,-256.051 L 58.2676,-255.651 L 58.729,-255.365 L 58.4126,-255.107
 L 58.2304,-254.764 L 58.172,-254.32 L 58.2235,-253.909 L 58.3719,-253.563 L 58.608,-253.302 L 58.9198,-253.135
 L 59.3209,-253.039 L 59.844,-253.008 L 60.988,-253.008 z
M 59.911,-255.632 L 59.4371,-255.646 L 59.1049,-255.691 L 58.871,-255.772 L 58.6308,-255.966 L 58.4802,-256.248
 L 58.428,-256.608 L 58.4747,-256.93 L 58.604,-257.194 L 58.8,-257.37 L 59.0594,-257.473 L 59.3973,-257.532
 L 59.828,-257.55 L 60.476,-257.55 L 60.476,-255.632 z
M 59.9,-253.458 L 59.4788,-253.475 L 59.1765,-253.532 L 58.962,-253.637 L 58.8153,-253.802 L 58.7188,-254.041
 L 58.684,-254.324 L 58.7263,-254.643 L 58.8507,-254.89 L 59.053,-255.053 L 59.2635,-255.13 L 59.5275,-255.172
 L 59.894,-255.184 L 60.476,-255.184 L 60.476,-253.458 z
M 118.988,-258 L 117.668,-258 L 117.01,-257.961 L 116.466,-257.839 L 116.009,-257.628 L 115.394,-257.091
 L 115.019,-256.383 L 114.892,-255.521 L 115.018,-254.651 L 115.388,-253.936 L 115.995,-253.4 L 116.483,-253.172
 L 117.077,-253.047 L 117.846,-253.008 L 118.988,-253.008 z
M 117.81,-253.458 L 117.17,-253.491 L 116.67,-253.597 L 116.271,-253.783 L 115.802,-254.216 L 115.507,-254.802
 L 115.404,-255.501 L 115.484,-256.125 L 115.717,-256.669 L 116.09,-257.104 L 116.517,-257.361 L 117.072,-257.505
 L 117.81,-257.55 L 118.476,-257.55 L 118.476,-253.458 z
M 147.988,-258 L 145.305,-258 L 145.305,-257.55 L 147.476,-257.55 L 147.476,-255.696 L 145.377,-255.696
 L 145.377,-255.248 L 147.476,-255.248 L 147.476,-253.458 L 145.305,-253.458 L 145.305,-253.008 L 147.988,-253.008
 z
M 263.988,-258 L 263.476,-258 L 263.476,-253.008 L 263.988,-253.008 z
M 176.988,-258 L 176.476,-258 L 176.476,-255.76 L 174.568,-255.76 L 174.568,-255.312 L 176.476,-255.312
 L 176.476,-253.458 L 174.496,-253.458 L 174.496,-253.008 L 176.988,-253.008 z
M 231.98,-255.248 L 234.476,-255.248 L 234.476,-253.008 L 234.988,-253.008 L 234.988,-258 L 234.476,-258
 L 234.476,-255.696 L 231.98,-255.696 L 231.98,-258 L 231.468,-258 L 231.468,-253.008 L 231.98,-253.008
 z
M 321.476,-255.879 L 321.476,-253.008 L 321.988,-253.008 L 321.988,-258 L 321.476,-258 L 321.476,-256.635
 L 320.844,-255.838 L 319.226,-258 L 318.614,-258 L 320.535,-255.44 L 318.614,-253.008 L 319.226,-253.008
 z
M 350.988,-258 L 348.463,-258 L 348.463,-257.55 L 350.476,-257.55 L 350.476,-253.008 L 350.988,-253.008
 z
" stroke="black" fill="lightgray" stroke-width="0.5"/></svg>
